<?xml version="1.0" encoding="UTF-8"?>
<svg version="1.1" xmlns="http://www.w3.org/2000/svg" width="2468" height="1017">
<path d="M0 0 C0.84159668 0.41121094 1.68319336 0.82242187 2.55029297 1.24609375 C14.72613972 7.261502 26.08548636 13.92000184 37 22 C37.58217285 22.42667969 38.1643457 22.85335937 38.76416016 23.29296875 C45.69695559 28.39783086 52.22106499 33.84410654 58.52734375 39.71484375 C60.59860099 41.62903883 62.70914701 43.44587611 64.875 45.25 C108.02778244 83.04164247 134.60229334 143.45535343 139 200 C139.14686606 203.49519445 139.18674243 206.98634786 139.203125 210.484375 C139.20882507 211.46126282 139.21452515 212.43815063 139.22039795 213.44464111 C139.22978834 215.50523824 139.236358 217.56584997 139.24023438 219.62646484 C139.24984518 222.7004808 139.28088714 225.77379925 139.3125 228.84765625 C139.40883001 246.69496381 137.64513876 264.15278681 133.3125 281.5 C133.05686279 282.53568115 132.80122559 283.5713623 132.5378418 284.63842773 C123.90358717 318.38536689 107.94284724 350.93496298 86 378 C85.52771973 378.58652344 85.05543945 379.17304687 84.56884766 379.77734375 C73.46102386 393.45554158 61.02645077 406.30956995 47 417 C45.76554735 417.96344219 44.53117819 418.92699134 43.296875 419.890625 C34.56984956 426.63690503 25.63479742 432.63469474 16 438 C15.27973633 438.40460449 14.55947266 438.80920898 13.81738281 439.22607422 C-22.39408686 459.41167915 -62.52227718 470.18918441 -103.95141602 470.18530273 C-106.53353721 470.18747563 -109.11522028 470.20565813 -111.69726562 470.22460938 C-127.30020971 470.27870655 -142.66903464 469.09437908 -157.9375 465.75 C-158.94490234 465.53239014 -159.95230469 465.31478027 -160.99023438 465.09057617 C-205.51089693 455.20527783 -246.12736129 433.58994954 -279 402 C-279.59458008 401.43265137 -280.18916016 400.86530273 -280.80175781 400.28076172 C-289.69930679 391.74801684 -297.69744094 382.92923769 -305 373 C-305.42619629 372.42926758 -305.85239258 371.85853516 -306.29150391 371.27050781 C-316.41826354 357.68386776 -324.77304815 343.31648747 -332 328 C-332.30147949 327.36513672 -332.60295898 326.73027344 -332.91357422 326.07617188 C-341.32341015 308.18290393 -347.04250641 289.34524801 -351 270 C-351.15984375 269.23526367 -351.3196875 268.47052734 -351.484375 267.68261719 C-363.75209751 206.68771237 -349.22558271 138.89815911 -315 87.359375 C-300.3904005 65.92054865 -283.56199422 45.9568115 -263 30 C-262.06542969 29.236875 -261.13085938 28.47375 -260.16796875 27.6875 C-245.76337676 16.1490335 -229.72854892 6.74221 -213 -1 C-212.38979004 -1.29036133 -211.77958008 -1.58072266 -211.15087891 -1.87988281 C-191.70691928 -11.10665489 -171.13251005 -17.14004418 -150 -21 C-149.14889648 -21.16371094 -148.29779297 -21.32742188 -147.42089844 -21.49609375 C-98.43311685 -30.67537609 -44.42513904 -21.76539976 0 0 Z M-186.1875 8 C-187.27015137 8.40790771 -188.35280273 8.81581543 -189.46826172 9.23608398 C-198.30162961 12.62358671 -206.70067792 16.47413657 -215 21 C-216.15113281 21.61230469 -217.30226563 22.22460938 -218.48828125 22.85546875 C-231.10125773 29.78332107 -242.66372996 38.29397486 -254 47.125 C-254.59361328 47.58624268 -255.18722656 48.04748535 -255.79882812 48.52270508 C-258.85429278 50.86808492 -258.85429278 50.86808492 -261 54 C-254.20524452 53.18898115 -247.5887635 51.71447 -240.9375 50.125 C-239.77927734 49.8878125 -238.62105469 49.650625 -237.42773438 49.40625 C-230.84790565 47.81934217 -230.84790565 47.81934217 -225.96362305 43.39575195 C-224.35730511 40.48894933 -224.35730511 40.48894933 -223.15673828 37.56030273 C-221.16622974 33.15454861 -218.10623862 31.04376656 -213.80078125 28.91015625 C-207.25317393 26.78241217 -198.44824517 26.5895624 -192.05859375 29.203125 C-188.95950598 31.22493514 -186.60461793 32.96772549 -184.71875 36.1875 C-183.02610542 38.36040267 -183.02610542 38.36040267 -179.64453125 38.390625 C-177.74767578 38.32101562 -177.74767578 38.32101562 -175.8125 38.25 C-174.54019531 38.21390625 -173.26789063 38.1778125 -171.95703125 38.140625 C-170.98121094 38.09421875 -170.00539063 38.0478125 -169 38 C-168.690625 38.969375 -168.38125 39.93875 -168.0625 40.9375 C-167.30476658 43.84065792 -167.30476658 43.84065792 -166 45 C-165.76271186 51.52542373 -165.76271186 51.52542373 -167 54 C-169.07926529 54.21145071 -171.1641172 54.36904772 -173.25 54.5 C-178.23467763 55.12673162 -178.23467763 55.12673162 -182.0078125 58.17578125 C-184.45698514 62.89918562 -185.35243932 65.80734229 -184 71 C-182.91181679 73.45537941 -182.91181679 73.45537941 -181.515625 75.9296875 C-180.99911377 76.8781958 -180.48260254 77.8267041 -179.95043945 78.80395508 C-179.38929443 79.8173999 -178.82814941 80.83084473 -178.25 81.875 C-177.67016357 82.93420654 -177.09032715 83.99341309 -176.49291992 85.0847168 C-171.9616899 93.3346003 -167.32393964 101.52326819 -162.66699219 109.70263672 C-159.33177851 115.58006917 -156.11622587 121.50393408 -153 127.5 C-151.78861631 129.81001092 -150.5739894 132.1182654 -149.35693359 134.42529297 C-148.37441403 136.28956992 -147.39611031 138.15607074 -146.42041016 140.02392578 C-144.74141244 143.21670199 -143.03034625 146.39048608 -141.3125 149.5625 C-140.78978516 150.56925781 -140.26707031 151.57601562 -139.72851562 152.61328125 C-139.21611328 153.5465625 -138.70371094 154.47984375 -138.17578125 155.44140625 C-137.73145752 156.27357666 -137.28713379 157.10574707 -136.8293457 157.96313477 C-133.39200275 161.79040719 -128.98201977 161.93554545 -124.05712891 162.25878906 C-122.61366267 162.2716949 -121.17006546 162.27340738 -119.7265625 162.265625 C-118.54309738 162.26971878 -118.54309738 162.26971878 -117.33572388 162.27389526 C-114.76531124 162.27794168 -112.19536567 162.26530334 -109.625 162.25 C-108.7446106 162.24756287 -107.86422119 162.24512573 -106.95715332 162.24261475 C-94.5354174 162.20243587 -82.14932907 161.875069 -69.75 161.125 C-68.43338379 161.04668945 -67.11676758 160.96837891 -65.76025391 160.88769531 C-52.59871211 160.7618751 -52.59871211 160.7618751 -40.79199219 156.30126953 C-38.72449859 153.64620214 -37.88053369 151.22862353 -37 148 C-36.11852295 148.09087891 -35.2370459 148.18175781 -34.32885742 148.27539062 C-31.00619804 148.61526005 -27.68310676 148.95010392 -24.35961914 149.28173828 C-22.93103552 149.42528709 -21.50264182 149.57074098 -20.07446289 149.71826172 C-6.66245259 151.10133118 4.79756953 151.54780813 17.9375 147.9375 C19.11973145 147.6187793 20.30196289 147.30005859 21.52001953 146.97167969 C57.8335887 137.17090773 57.8335887 137.17090773 85.73828125 113.44921875 C87.55674599 109.91925778 87.85564037 106.81856031 87 103 C85.40284121 99.9343912 83.354031 97.51708077 81 95 C80.46632813 94.42507813 79.93265625 93.85015625 79.3828125 93.2578125 C51.35694197 66.22841737 1.79164724 61.60121191 -35 56 C-37.51696093 55.6121988 -40.03389105 55.22419748 -42.55078125 54.8359375 C-44.36715696 54.55709268 -46.18355046 54.27836346 -48 54 C-48.99 51.03 -49.98 48.06 -51 45 C-50.34 45 -49.68 45 -49 45 C-46.68407978 41.77885843 -46.68407978 41.77885843 -46 38 C-16.20420112 39.76607525 14.58430681 44.63179108 42.875 54.43359375 C45.03226945 55.25990202 45.03226945 55.25990202 47 54 C24.04549464 33.2173728 -2.82552745 17.27177885 -32 6.875 C-32.8549707 6.56739746 -33.70994141 6.25979492 -34.59082031 5.94287109 C-35.38584961 5.67039551 -36.18087891 5.39791992 -37 5.1171875 C-37.70125 4.87597168 -38.4025 4.63475586 -39.125 4.38623047 C-41.21352034 3.79277051 -41.21352034 3.79277051 -44 5 C-44.54872657 6.84774388 -44.54872657 6.84774388 -44.75 9.0625 C-45.91583675 14.84578468 -48.43152282 18.30617144 -53 22 C-69.06513979 31.86695819 -88.52347508 33.23264945 -106.875 33.25 C-107.6113266 33.25100708 -108.3476532 33.25201416 -109.10629272 33.25305176 C-128.64525049 33.23496727 -149.97609841 31.79895566 -165.625 18.6328125 C-169.52259991 14.52641259 -170.70051979 9.34582916 -172 4 C-177.03526971 4 -181.5151202 6.23939828 -186.1875 8 Z M-296.9375 95.375 C-300.4257826 99.07042527 -302.4019004 102.9252155 -303 108 C-301.27412279 116.05409367 -294.46650543 121.54567833 -287.9765625 126.140625 C-272.36860342 136.04204214 -255.5408065 141.53169865 -238 147 C-237.04963867 147.3098584 -236.09927734 147.6197168 -235.12011719 147.93896484 C-221.01946493 152.46743359 -209.30003656 151.7998124 -194.77832031 149.42236328 C-189.21670122 148.57687989 -183.61471041 148.29128194 -178 148 C-177.690625 148.93199219 -177.38125 149.86398437 -177.0625 150.82421875 C-175.66524373 155.27630925 -175.66524373 155.27630925 -173 159 C-166.30251058 160.75165108 -158.87049157 160.09846959 -152 160 C-157.24924629 149.39895911 -162.62834554 138.87928283 -168.1875 128.4375 C-168.55173065 127.75188995 -168.9159613 127.06627991 -169.29122925 126.3598938 C-174.60161601 116.37099639 -179.99173583 106.43207506 -185.68286133 96.65332031 C-188.02607533 92.61230193 -190.22883409 88.63303905 -192.05078125 84.328125 C-193.69398049 80.5272244 -195.26072807 77.16465374 -198 74 C-201.91978176 72.69773255 -205.29797857 72.3820496 -209.41796875 72.23828125 C-214.24019013 71.91750098 -217.48474617 70.26347256 -221 67 C-221.99 65.515 -221.99 65.515 -223 64 C-246.46306772 64 -279.67402695 79.79489465 -296.9375 95.375 Z M-242.25 174.5625 C-243.85178352 174.92832392 -245.45359041 175.29404551 -247.05541992 175.65966797 C-296.15814058 186.85137309 -296.15814058 186.85137309 -335 217 C-336.64234676 220.28469352 -336.63742304 223.46292706 -336 227 C-334.43723975 230.08973209 -332.35090901 232.47550066 -330 235 C-329.17628906 235.93779297 -329.17628906 235.93779297 -328.3359375 236.89453125 C-305.0893037 260.38032795 -253.35827135 273.14398585 -220.9375 274.4375 C-211.37845539 274.27628595 -201.91755727 272.80490172 -192.47045898 271.42358398 C-191.22079346 271.24255127 -189.97112793 271.06151855 -188.68359375 270.875 C-187.56525146 270.70742188 -186.44690918 270.53984375 -185.29467773 270.3671875 C-181.83679528 269.98181105 -178.47638863 269.93831992 -175 270 C-174.9175 270.515625 -174.835 271.03125 -174.75 271.5625 C-173.65652317 275.11629969 -172.01363024 277.86110581 -170 281 C-166.28139639 282.23953454 -162.71055483 282.37051563 -158.828125 282.55859375 C-157.96382874 282.60084579 -157.09953247 282.64309784 -156.20904541 282.68663025 C-143.11062834 283.24767888 -129.99340244 283.11062984 -116.88586426 283.06866455 C-113.27808229 283.05825174 -109.67029281 283.05382933 -106.0625 283.04882812 C-99.04164896 283.03825029 -92.02082745 283.02128899 -85 283 C-93.38716429 266.16622546 -101.84963752 249.39433741 -111.1875 233.0625 C-116.64987449 223.50544879 -121.89186954 213.84189179 -127.0625 204.125 C-127.61386124 203.09259689 -127.61386124 203.09259689 -128.17636108 202.03933716 C-129.23703582 200.05153519 -130.29361459 198.06163884 -131.34765625 196.0703125 C-131.6779332 195.44787155 -132.00821014 194.8254306 -132.34849548 194.18412781 C-134.51117338 190.06211728 -136.40423148 185.90197439 -138.01342773 181.53466797 C-138.88262117 179.86021828 -138.88262117 179.86021828 -140.68359375 179.31005859 C-143.72519387 178.90293042 -146.75521177 178.64377378 -149.81640625 178.421875 C-151.21806986 178.31489171 -152.61967895 178.2071925 -154.02124023 178.09887695 C-154.76074921 178.04236969 -155.50025818 177.98586243 -156.26217651 177.92764282 C-171.37222346 176.76076721 -186.3059872 175.00203807 -201.27368164 172.62597656 C-215.86866934 170.33933356 -227.97278926 171.22866289 -242.25 174.5625 Z M-16.875 172.8125 C-43.02432052 177.06475946 -69.13533474 178.47936052 -95.57228088 179.46347046 C-96.99249794 179.51635727 -96.99249794 179.51635727 -98.44140625 179.5703125 C-99.36376572 179.60452301 -100.28612518 179.63873352 -101.23643494 179.67398071 C-108.50559746 179.95473086 -115.74941608 180.40052082 -123 181 C-115.72550405 195.87536255 -107.86828374 210.43339562 -100 225 C-99.42523926 226.06412109 -98.85047852 227.12824219 -98.25830078 228.22460938 C-95.57926007 233.18095285 -92.89537815 238.13463604 -90.20703125 243.0859375 C-87.96725851 247.211871 -85.73676018 251.34266649 -83.51171875 255.4765625 C-82.93437988 256.54745117 -82.35704102 257.61833984 -81.76220703 258.72167969 C-80.6689042 260.74999042 -79.57729335 262.77921457 -78.48779297 264.80957031 C-75.15713712 270.98142694 -71.64749966 277.00962053 -68 283 C-62.06 282.01 -62.06 282.01 -56 281 C-56.66 280.67 -57.32 280.34 -58 280 C-57.566875 279.30132813 -57.13375 278.60265625 -56.6875 277.8828125 C-56.130625 276.97273438 -55.57375 276.06265625 -55 275.125 C-54.443125 274.22007812 -53.88625 273.31515625 -53.3125 272.3828125 C-51.83917671 270.16142533 -51.83917671 270.16142533 -52 268 C-47.56156045 268.42828256 -43.1242955 268.86750924 -38.6875 269.3125 C-38.02651306 269.37869537 -37.36552612 269.44489075 -36.68450928 269.51309204 C-27.93838735 270.39663129 -19.23693537 271.3862021 -10.60424805 273.08520508 C2.11997899 275.39799583 14.28651784 273.82722805 26.75 271 C27.45832977 270.84383209 28.16665955 270.68766418 28.89645386 270.52676392 C77.76504309 259.92716592 77.76504309 259.92716592 118 232 C120.6284399 227.50244728 121.70211789 224.52796148 120.87109375 219.421875 C116.21503627 206.47678244 99.72788589 199.09161819 88.125 193.4375 C67.67928166 183.88707503 45.95732323 178.71853762 24 174 C23.11683105 173.8050293 22.23366211 173.61005859 21.32373047 173.40917969 C8.25054552 170.54059327 -3.70010445 170.48412826 -16.875 172.8125 Z M-17.31079102 295.5958252 C-20.82759284 296.07145652 -24.3473552 296.52399094 -27.8671875 296.9765625 C-28.90954559 297.11112854 -28.90954559 297.11112854 -29.97296143 297.24841309 C-38.95998125 298.39634653 -47.97416866 299.22751894 -57 300 C-56.38680623 304.33165723 -54.82199922 307.58015336 -52.75390625 311.41796875 C-52.26392906 312.33317039 -52.26392906 312.33317039 -51.76405334 313.26686096 C-50.70329388 315.24394238 -49.6331692 317.21577021 -48.5625 319.1875 C-47.82623479 320.5541329 -47.090397 321.92099616 -46.35498047 323.28808594 C-41.74152042 331.84954428 -37.08717443 340.38880811 -32.30859375 348.859375 C-30.60495333 351.88643794 -28.96589626 354.94208258 -27.34765625 358.015625 C-26.90276855 358.84868164 -26.45788086 359.68173828 -25.99951172 360.54003906 C-25.14910657 362.13450916 -24.31012193 363.73514413 -23.48486328 365.34277344 C-21.22803053 369.58502287 -21.22803053 369.58502287 -17.4765625 372.44921875 C-15.21597121 372.95196855 -12.9718785 373.43246628 -10.6875 373.8125 C-6.44552763 374.69624424 -3.37532419 376.33939972 0.17578125 378.78125 C4.02026371 381.44558611 4.02026371 381.44558611 8.58349609 381.71142578 C9.55367676 381.4586084 10.52385742 381.20579102 11.5234375 380.9453125 C13.1621582 380.52415161 13.1621582 380.52415161 14.83398438 380.09448242 C16.58678711 379.61458862 16.58678711 379.61458862 18.375 379.125 C19.58220703 378.80055908 20.78941406 378.47611816 22.03320312 378.1418457 C58.72499195 368.57151014 58.72499195 368.57151014 86.39453125 344.58203125 C87.76248164 341.10685516 88.07948424 338.64912127 87.625 334.9375 C80.29569965 321.68838014 67.2283657 315.05578022 54 309 C52.88367188 308.48566406 51.76734375 307.97132813 50.6171875 307.44140625 C37.88678594 301.9918492 24.34418026 298.60467079 11 295 C10.31526611 294.80494873 9.63053223 294.60989746 8.92504883 294.40893555 C0.42875673 292.60407958 -8.84530643 294.44959553 -17.31079102 295.5958252 Z M-251 302 C-251.88961426 302.2882666 -252.77922852 302.5765332 -253.69580078 302.87353516 C-270.34010619 308.36374372 -291.45559789 316.04582492 -301.25 331.5625 C-302.85391321 334.99606235 -303.7948973 338.08995186 -302.92578125 341.9140625 C-296.670513 356.00821121 -278.56307878 363.90147572 -265.125 369.3125 C-229.93688519 382.86202438 -191.53816746 389.4097725 -154 392 C-152.87948242 392.08540039 -151.75896484 392.17080078 -150.60449219 392.25878906 C-136.82980034 393.20560824 -123.05269233 393.2414354 -109.25 393.25 C-107.97651703 393.25133942 -106.70303406 393.25267883 -105.39096069 393.25405884 C-89.32392615 393.25040366 -73.33031218 393.00103929 -57.3125 391.6875 C-56.18177063 391.59921936 -56.18177063 391.59921936 -55.02819824 391.50915527 C-47.84002392 390.92751552 -41.50713557 390.29100501 -35 387 C-32.93848919 384.03657821 -31.85531705 382.27136857 -32.26855469 378.64013672 C-33.0841638 375.69621251 -34.24354143 373.31657815 -35.703125 370.6328125 C-36.26459229 369.59431152 -36.82605957 368.55581055 -37.40454102 367.48583984 C-38.01354248 366.3767627 -38.62254395 365.26768555 -39.25 364.125 C-39.87898193 362.96822754 -40.50796387 361.81145508 -41.15600586 360.61962891 C-45.72864562 352.22599256 -50.4137616 343.89656019 -55.14868164 335.59350586 C-59.8586628 327.3158601 -64.38888328 318.94555658 -68.86352539 310.53857422 C-69.63297485 309.10215576 -69.63297485 309.10215576 -70.41796875 307.63671875 C-71.09508911 306.36380981 -71.09508911 306.36380981 -71.78588867 305.06518555 C-72.95658064 302.87594787 -72.95658064 302.87594787 -75 301 C-77.35045602 300.72791184 -77.35045602 300.72791184 -80.11254883 300.82055664 C-81.19005905 300.83025482 -82.26756927 300.839953 -83.37773132 300.84994507 C-84.5589003 300.86981476 -85.74006927 300.88968445 -86.95703125 300.91015625 C-89.49885435 300.9332432 -92.04068424 300.95559134 -94.58251953 300.97729492 C-95.9388247 300.99176216 -97.2951276 301.0064445 -98.65142822 301.02133179 C-131.33016025 301.36262544 -163.70851396 300.12850215 -196.1875 296.3125 C-216.41439697 293.96560657 -231.47825272 295.60543975 -251 302 Z M-119 412 C-119.33 413.32 -119.66 414.64 -120 416 C-121.75763672 416.43699219 -121.75763672 416.43699219 -123.55078125 416.8828125 C-139.87963788 420.94683838 -139.87963788 420.94683838 -153 431 C-153.48108188 434.47910224 -153.48108188 434.47910224 -152 438 C-143.79124344 447.16533253 -129.61037773 450.39805263 -117.84301758 451.22070312 C-98.81203767 451.89320612 -81.13863725 451.16725127 -65 440 C-62.70157516 437.45809795 -62.03794227 436.58178142 -61.8125 433.125 C-63.93838529 427.53056503 -68.54258031 425.2553053 -73.70703125 422.6171875 C-81.27924047 419.23148753 -88.86144402 417.48083193 -97 416 C-96.67 414.35 -96.34 412.7 -96 411 C-107.53737528 410.83017454 -107.53737528 410.83017454 -119 412 Z " fill="#EDEDED" transform="translate(732,287)"/>
<path d="M0 0 C2.54292075 0.00315138 5.08466421 -0.02034936 7.62744141 -0.0456543 C36.76662394 -0.15879352 62.27769818 9.29619304 84.31103516 28.31567383 C84.98263672 28.88543945 85.65423828 29.45520508 86.34619141 30.04223633 C112.55116737 54.20285246 123.74892516 94.32555226 125.43405151 128.8348999 C125.63968417 135.18216959 125.64839079 141.52820675 125.62353516 147.87817383 C125.62171234 148.8454541 125.61988953 149.81273437 125.61801147 150.80932617 C125.4831626 193.34953364 116.8305045 235.85993335 86.27978516 267.43676758 C68.22580496 285.33908464 48.18646992 292.65152981 23.31103516 297.31567383 C23.31103516 308.53567383 23.31103516 319.75567383 23.31103516 331.31567383 C37.83103516 331.31567383 52.35103516 331.31567383 67.31103516 331.31567383 C67.31103516 341.21567383 67.31103516 351.11567383 67.31103516 361.31567383 C59.53543351 361.31055325 51.76419674 361.28717293 43.98950195 361.21801758 C41.3486028 361.1999237 38.70760949 361.19227696 36.06665039 361.19555664 C32.25545318 361.19843247 28.44618284 361.16291743 24.63525391 361.12036133 C23.46709641 361.12945526 22.2989389 361.13854919 21.09538269 361.1479187 C10.59325608 360.96448987 3.17708164 357.46691381 -4.18896484 350.00317383 C-10.01794495 343.51966841 -11.14799901 335.54078711 -10.98193359 327.12426758 C-10.97768875 326.2935524 -10.97344391 325.46283722 -10.96907043 324.60694885 C-10.95245798 321.98867501 -10.91484114 319.37120968 -10.87646484 316.75317383 C-10.86139537 314.96347151 -10.84771096 313.17375696 -10.83544922 311.3840332 C-10.80261204 307.02760829 -10.7509542 302.67177748 -10.68896484 298.31567383 C-11.65648682 298.20175293 -12.62400879 298.08783203 -13.62084961 297.97045898 C-21.14266418 297.03529184 -28.3688805 295.95332349 -35.62646484 293.69067383 C-36.46564453 293.4319751 -37.30482422 293.17327637 -38.16943359 292.90673828 C-51.48671233 288.6227614 -62.920781 282.27913412 -73.68896484 273.31567383 C-74.61193359 272.56801758 -75.53490234 271.82036133 -76.48583984 271.05004883 C-105.39465585 246.38772557 -116.52296234 206.19891208 -119.47729492 169.67236328 C-122.28864882 125.08954346 -117.66753465 75.0704009 -88.27490234 39.23364258 C-64.69194472 12.6226617 -35.44406915 -0.09154294 0 0 Z M-24.68896484 36.31567383 C-25.74341797 36.66629883 -26.79787109 37.01692383 -27.88427734 37.37817383 C-48.61867329 45.17387361 -63.04500381 61.261477 -72.43896484 80.81567383 C-79.51954616 97.33703023 -81.00938268 113.88111657 -80.98974609 131.62817383 C-80.99365203 133.13639438 -80.99799043 134.64461387 -81.00273132 136.15283203 C-81.01011345 139.28559974 -81.0099605 142.41825458 -81.00463867 145.55102539 C-80.9988406 149.5175202 -81.01582258 153.48354856 -81.03898335 157.44996643 C-81.05388129 160.55597523 -81.05457111 163.66187561 -81.05147362 166.76791382 C-81.05197834 168.22839281 -81.05705127 169.68887929 -81.06728554 171.14932251 C-81.2362902 198.61529835 -72.94961242 224.4039621 -53.68896484 244.31567383 C-36.67975941 260.66002433 -15.25392589 265.79424789 7.71337891 265.53051758 C29.11505978 264.94994966 47.19481734 256.17216282 62.31103516 241.31567383 C62.93751953 240.70208008 63.56400391 240.08848633 64.20947266 239.45629883 C78.40516887 224.42556166 86.43956292 201.81282384 86.47216797 181.4152832 C86.47713287 180.65806976 86.48209778 179.90085632 86.48721313 179.12069702 C86.50172812 176.63359642 86.50862093 174.14655971 86.51416016 171.65942383 C86.51698753 170.8019606 86.51981491 169.94449738 86.52272797 169.06105042 C86.53768181 164.51799211 86.54693371 159.97496522 86.55126953 155.43188477 C86.5567305 150.78015156 86.58071905 146.12871454 86.60924149 141.47707367 C86.62803424 137.86498222 86.63308235 134.25295953 86.63460541 130.64082336 C86.63759806 128.92831311 86.64550917 127.21580304 86.65879059 125.50334167 C86.85448643 98.31799097 79.16982558 73.88881978 60.00634766 53.91333008 C43.33914465 37.92920916 21.77768021 31.77527159 -0.88916016 31.89208984 C-9.24768623 32.11747971 -16.77791753 33.68442833 -24.68896484 36.31567383 Z " fill="#F2F2F2" transform="translate(1195.68896484375,358.684326171875)"/>
<path d="M0 0 C11.22 0 22.44 0 34 0 C34.67703209 5.41625673 35.15049747 10.46543723 35.15821838 15.87145996 C35.16562535 16.99652285 35.16562535 16.99652285 35.17318195 18.14431429 C35.18842819 20.63461894 35.19688228 23.12489808 35.20532227 25.61523438 C35.21491094 27.40949728 35.22492159 29.20375797 35.23532104 30.99801636 C35.26226901 35.85274548 35.28333307 40.70748423 35.30332303 45.56224632 C35.3252452 50.64181632 35.35260331 55.72135701 35.37937927 60.80090332 C35.42922211 70.41251435 35.47419203 80.02414173 35.51740164 89.63578463 C35.56684602 100.58136772 35.62173737 111.5269214 35.67708123 122.47247601 C35.79077214 144.9816232 35.89763908 167.49079863 36 190 C37.10166615 188.91027347 38.20157994 187.81877525 39.30078125 186.7265625 C40.21984253 185.81511475 40.21984253 185.81511475 41.1574707 184.88525391 C43.52250014 182.46538412 45.71680034 179.92080005 47.92578125 177.359375 C50.52628942 174.40135818 53.19726212 171.51302706 55.875 168.625 C59.40484638 164.81735422 62.91579509 160.9972443 66.375 157.125 C70.79483804 152.19085353 75.32112281 147.35994453 79.84936523 142.52563477 C83.08231417 139.06951341 86.28690734 135.59426077 89.4375 132.0625 C93.34880877 127.68503897 97.35427693 123.40160998 101.375 119.125 C105.97866263 114.22688699 110.57592462 109.32392435 115.125 104.375 C116.36636719 103.02535156 116.36636719 103.02535156 117.6328125 101.6484375 C120.09276245 99.03515813 120.09276245 99.03515813 122.01586914 95.87109375 C123.68535558 93.87729351 124.59807412 93.09852357 127.14569092 92.47402954 C129.8208382 92.30534419 132.43423122 92.32548625 135.11328125 92.4140625 C136.08283249 92.42255219 137.05238373 92.43104187 138.05131531 92.43978882 C141.13952065 92.47330131 144.22508778 92.54857772 147.3125 92.625 C149.40946742 92.65510233 151.50647589 92.68247767 153.60351562 92.70703125 C158.73668925 92.77308593 163.8678978 92.87659413 169 93 C162.69585968 100.39998347 162.69585968 100.39998347 159.84375 103.4375 C159.30363281 104.01435547 158.76351563 104.59121094 158.20703125 105.18554688 C157.64371094 105.78431641 157.08039063 106.38308594 156.5 107 C155.26037788 108.32288032 154.02079567 109.64579805 152.78125 110.96875 C152.15347656 111.63777344 151.52570313 112.30679688 150.87890625 112.99609375 C147.91355157 116.15872774 144.95705777 119.32961074 142 122.5 C140.83207184 123.75133997 139.66410301 125.00264198 138.49609375 126.25390625 C136.17529393 128.74043125 133.85502352 131.22744869 131.53515625 133.71484375 C124.91312175 140.814142 118.28087709 147.90370041 111.63867188 154.98413086 C105.07971531 161.97754087 98.53875925 168.98770965 92 176 C93.4772471 180.15742972 95.53299963 183.53702728 97.98828125 187.1953125 C98.39501572 187.80395142 98.80175018 188.41259033 99.22080994 189.03967285 C100.58020209 191.07117457 101.94629462 193.09807522 103.3125 195.125 C104.27932161 196.5666597 105.24578421 198.00856022 106.21191406 199.45068359 C109.46723957 204.30542715 112.73320325 209.15297104 116 214 C117.23943233 215.83983583 118.47885261 217.67967978 119.71826172 219.51953125 C124.78297672 227.03642298 129.84909832 234.55235821 134.9230957 242.06298828 C141.2554354 251.43698035 147.56612489 260.82433609 153.83074951 270.24371338 C155.81914176 273.23040164 157.81427487 276.21258007 159.80859375 279.1953125 C160.96588708 280.92763548 162.12298706 282.66008743 163.2800293 284.39257812 C164.06381445 285.56569338 164.84800625 286.73853703 165.63256836 287.91113281 C166.79650363 289.65096487 167.9589379 291.3917915 169.12109375 293.1328125 C169.7958374 294.14230957 170.47058105 295.15180664 171.16577148 296.19189453 C176 303.59283908 176 303.59283908 176 306 C170.22089086 306.42355347 164.45094278 306.72997903 158.65991211 306.93383789 C156.69639786 307.01882943 154.73394437 307.13449812 152.77416992 307.2824707 C136.98906904 308.44355346 136.98906904 308.44355346 132.08520508 304.43466187 C128.62868741 300.40228937 126.26211752 295.85239809 124.00296021 291.07131958 C122.73113665 288.44474175 121.18526443 286.07422193 119.5390625 283.66796875 C119.0553418 282.92401855 118.57162109 282.18006836 118.07324219 281.41357422 C117.59532227 280.67896973 117.11740234 279.94436523 116.625 279.1875 C115.5182114 277.48568864 114.41144108 275.78386538 113.3046875 274.08203125 C112.75522461 273.23721191 112.20576172 272.39239258 111.63964844 271.52197266 C110.05309421 269.08166516 108.46772901 266.64059014 106.8828125 264.19921875 C98.65233392 251.5228638 90.4018659 238.85968841 82.10888672 226.22412109 C80.03162769 223.04835324 77.96990321 219.86292665 75.91015625 216.67578125 C74.64883653 214.74192718 73.3871375 212.80832044 72.125 210.875 C71.5482251 209.97402588 70.9714502 209.07305176 70.37719727 208.14477539 C69.84280029 207.33129639 69.30840332 206.51781738 68.7578125 205.6796875 C68.06389404 204.60823486 68.06389404 204.60823486 67.35595703 203.51513672 C66.90849121 203.0151416 66.46102539 202.51514648 66 202 C58.16190114 202 50.49357978 209.65876034 44.93847656 214.64160156 C31.01296389 228.86069214 32.52780352 248.47938759 32.71469879 267.08726501 C32.88698425 280.08258526 33.36417381 293.0109793 34 306 C22.78 306 11.56 306 0 306 C0 205.02 0 104.04 0 0 Z " fill="#F2F2F2" transform="translate(1682,346)"/>
<path d="M0 0 C2.44848661 0.04216035 4.89422499 0.04101375 7.34301758 0.03417969 C32.51032283 0.13476793 53.88008438 8.32878324 71.80932617 26.1328125 C73.22820334 27.51949706 74.7104468 28.84037398 76.19262695 30.15917969 C78.2512207 32.54199219 78.2512207 32.54199219 78.3762207 34.52246094 C74.58591609 41.32658415 64.35957154 51.28288039 57.2512207 54.54199219 C53.66777836 53.65020987 51.67539641 52.24677425 49.3137207 49.47949219 C36.65309359 36.32344923 20.02869144 31.41192695 2.2512207 30.54199219 C-8.58252608 30.44116104 -20.42003276 32.0169949 -29.2175293 38.91699219 C-36.41496408 46.55508624 -38.22003054 54.54787708 -38.0300293 64.72949219 C-37.56177977 71.07687471 -35.4888721 75.20374248 -31.7487793 80.22949219 C-18.79392408 90.21552642 -2.67128513 92.09983501 13.00512695 94.97558594 C35.73735293 99.15862638 57.96381945 103.38074266 73.2512207 122.54199219 C80.06062209 133.18399065 82.59926946 143.43211777 82.5012207 155.91699219 C82.50895508 156.89410156 82.51668945 157.87121094 82.5246582 158.87792969 C82.47840217 176.27019813 76.44150153 190.88161461 64.6262207 203.66699219 C45.80174095 221.58644888 20.36704078 224.32165363 -4.3347168 223.82324219 C-34.53488425 222.76698451 -58.46172477 208.09698762 -78.7487793 186.54199219 C-80.7487793 183.54199219 -80.7487793 183.54199219 -80.55737305 181.55761719 C-77.17450708 173.1249658 -65.78193924 166.78048373 -58.7487793 161.54199219 C-55.29058626 163.01521344 -53.19249143 164.94662178 -50.6237793 167.66699219 C-35.21601791 183.35169046 -17.12748149 192.59112435 4.9387207 192.91699219 C17.22345132 192.89646251 29.82433254 191.14057637 39.2512207 182.54199219 C46.6827993 174.49915821 47.89934912 166.41457678 47.63012695 155.76074219 C47.20369396 148.88890447 44.52489996 143.32119458 39.4387207 138.66699219 C26.85525109 130.27801245 12.46691046 128.52763765 -2.1862793 126.10449219 C-25.35068249 122.22263457 -48.73126811 116.67029639 -63.6784668 97.00292969 C-73.10998218 82.22219662 -75.21595525 64.12405958 -71.67138672 47.10327148 C-68.12512968 32.49169304 -60.01624069 21.07234614 -47.7487793 12.54199219 C-32.7018518 3.54352137 -17.42773855 -0.31511732 0 0 Z " fill="#EFEFEF" transform="translate(1542.748779296875,433.4580078125)"/>
<path d="M0 0 C9.9 0 19.8 0 30 0 C30 19.47 30 38.94 30 59 C45.51 59 61.02 59 77 59 C77 68.57 77 78.14 77 88 C61.49 88 45.98 88 30 88 C30 138.82 30 189.64 30 242 C44.52 242 59.04 242 74 242 C74 251.9 74 261.8 74 272 C67.09827464 272.09229648 60.19872791 272.17179703 53.296875 272.21972656 C50.95370185 272.23972611 48.61057786 272.26693477 46.26757812 272.30175781 C42.88138629 272.35079125 39.49585959 272.37308621 36.109375 272.390625 C35.07762146 272.41127014 34.04586792 272.43191528 32.98284912 272.45318604 C21.5258269 272.45664702 12.29508845 269.41486174 4.06640625 261.37109375 C-1.98066969 254.43238846 -3.1275046 247.38075409 -3.12025452 238.31814575 C-3.12110894 237.67190148 -3.12196337 237.02565721 -3.12284368 236.35982978 C-3.12448208 234.20877048 -3.11900417 232.05779032 -3.11352539 229.90673828 C-3.11324314 228.35907493 -3.113402 226.81141144 -3.1139679 225.26374817 C-3.11425438 221.07207661 -3.1083816 216.88043376 -3.10139394 212.68876886 C-3.09513573 208.30454816 -3.09455465 203.92032677 -3.09336853 199.53610229 C-3.09026249 191.23833464 -3.0820589 182.94058018 -3.07201904 174.64281833 C-3.06083532 165.19425134 -3.05534176 155.74568371 -3.05032361 146.29711175 C-3.03987569 126.86473217 -3.02153924 107.43237067 -3 88 C-14.55 88 -26.1 88 -38 88 C-38 78.43 -38 68.86 -38 59 C-26.5625 58.1875 -26.5625 58.1875 -23.01391602 57.95385742 C-13.54902548 57.49770492 -13.54902548 57.49770492 -5 54 C-2.26901909 49.00130528 -1.61075768 45.08558107 -1.5234375 39.3359375 C-1.50785797 38.62200836 -1.49227844 37.90807922 -1.47622681 37.17251587 C-1.42912824 34.90668897 -1.40115355 32.64115635 -1.375 30.375 C-1.33802129 28.13048964 -1.29686327 25.88612752 -1.25234985 23.64175415 C-1.21338661 21.58991017 -1.18518951 19.53786981 -1.15771484 17.48583984 C-0.95246842 11.64807235 -0.44801297 5.82416859 0 0 Z " fill="#FAFAFA" transform="translate(2017,380)"/>
<path d="M0 0 C11.22 0 22.44 0 34 0 C34 70.29 34 140.58 34 213 C22.78 213 11.56 213 0 213 C0 142.71 0 72.42 0 0 Z " fill="#F6F6F6" transform="translate(1899,439)"/>
<path d="M0 0 C11.22 0 22.44 0 34 0 C34 70.29 34 140.58 34 213 C22.78 213 11.56 213 0 213 C0 142.71 0 72.42 0 0 Z " fill="#F6F6F6" transform="translate(1379,439)"/>
<path d="M0 0 C4.28189606 3.76003276 5.7472306 9.00877478 7.8125 14.1875 C8.25464844 15.29287109 8.69679688 16.39824219 9.15234375 17.53710938 C13.19682246 27.96169413 16.04333928 38.54755361 18.43798828 49.45727539 C18.79273271 51.06225506 19.16395053 52.66376297 19.55810547 54.25952148 C21.0689956 60.48268367 21.65076844 66.68428069 22.125 73.0625 C22.2084668 74.1563501 22.29193359 75.2502002 22.37792969 76.37719727 C23.6945155 94.63609299 23.6945155 94.63609299 23 102 C22.34 102.66 21.68 103.32 21 104 C21.04640625 103.43152344 21.0928125 102.86304688 21.140625 102.27734375 C21.40661432 96.58707224 20.70285111 92.4999226 17 88 C10.47944704 80.9205425 2.43955245 76.38380373 -6 72 C-7.11890625 71.41347656 -8.2378125 70.82695312 -9.390625 70.22265625 C-30.06581698 60.00095259 -52.5708775 54.78322352 -75 50 C-76.33272949 49.71552002 -76.33272949 49.71552002 -77.69238281 49.42529297 C-86.08668802 47.66643626 -94.42846478 46.47078508 -103 46 C-103 45.67 -103 45.34 -103 45 C-102.22736816 44.82984375 -101.45473633 44.6596875 -100.65869141 44.484375 C-44.34555678 33.45572891 -44.34555678 33.45572891 0 0 Z " fill="#414141" transform="translate(831,412)"/>
<path d="M0 0 C3.34524949 1.11508316 3.84221693 1.81291942 5.9375 4.5 C19.76108667 20.62751778 42.24090174 28.87561144 62 34.9375 C63.10214844 35.27668457 64.20429688 35.61586914 65.33984375 35.96533203 C78.05261199 39.76736494 90.99194863 42.43107748 104 45 C105.93757621 45.38764009 107.87508314 45.77562675 109.8125 46.1640625 C111.20830789 46.44283574 112.60413056 46.72153508 114 47 C110.74651138 47.9465969 108.48090778 47.79483729 105.13574219 47.27001953 C94.25745891 45.89469016 84.26551364 48.10704772 73.75 50.5625 C72.14821648 50.92832392 70.54640959 51.29404551 68.94458008 51.65966797 C20.49570119 62.57870685 20.49570119 62.57870685 -18 92 C-18.33 91.34 -18.66 90.68 -19 90 C-18.36729133 88.65022151 -17.69937532 87.31647119 -17 86 C-17 85.34 -17 84.68 -17 84 C-17.99 84 -18.98 84 -20 84 C-21.79662482 55.58671111 -11.65779481 25.45626523 0 0 Z " fill="#020202" transform="translate(416,412)"/>
<path d="M0 0 C-0.52272729 6.86399419 -1.59590023 13.38420639 -3.25 20.0625 C-3.47324951 20.97370605 -3.69649902 21.88491211 -3.92651367 22.82373047 C-4.60413918 25.55281062 -5.2976186 28.2771944 -6 31 C-6.19609863 31.76328613 -6.39219727 32.52657227 -6.59423828 33.31298828 C-9.65939718 45.01031166 -14.11312777 55.95300099 -19 67 C-19.66 67 -20.32 67 -21 67 C-21.66 68.98 -22.32 70.96 -23 73 C-23.66 73 -24.32 73 -25 73 C-24.67 73.99 -24.34 74.98 -24 76 C-25.75 79.1875 -25.75 79.1875 -28 82 C-28.99 82 -29.98 82 -31 82 C-30.95875 82.886875 -30.9175 83.77375 -30.875 84.6875 C-30.99897246 87.97277013 -31.61387904 90.05449295 -33 93 C-33.66 93 -34.32 93 -35 93 C-34.83242188 92.41992188 -34.66484375 91.83984375 -34.4921875 91.2421875 C-33.17170161 86.17753909 -32.44224111 82.80858671 -35 78 C-51.16407967 55.22973124 -87.45893437 46.72741755 -113 41 C-115.67212095 40.56430025 -118.30290222 40.25438165 -121 40 C-121 39.67 -121 39.34 -121 39 C-120.11554199 38.84442627 -119.23108398 38.68885254 -118.31982422 38.52856445 C-108.86194848 36.85739914 -99.41331344 35.14065167 -89.97357178 33.36981201 C-88.26878582 33.05036565 -86.56340215 32.73411219 -84.85791016 32.41845703 C-57.48299759 27.23052985 -25.0260046 18.31222842 -2.6171875 1.21484375 C-1 0 -1 0 0 0 Z " fill="#030303" transform="translate(852,541)"/>
<path d="M0 0 C0.91265625 0.51046875 0.91265625 0.51046875 1.84375 1.03125 C34.88383764 19.30047493 69.0349674 29.54556408 106.29296875 35.56201172 C109.00954197 36.00154386 111.72371354 36.45375566 114.4375 36.91015625 C118.62382223 37.6140582 122.81140675 38.30974493 127 39 C127 39.33 127 39.66 127 40 C125.48599609 39.98646484 125.48599609 39.98646484 123.94140625 39.97265625 C96.44327795 40.31642339 61.1503268 51.74442883 39.9609375 69.96875 C35.57090813 74.51619078 32.74411541 79.14231245 32.6875 85.5625 C32.790625 86.696875 32.89375 87.83125 33 89 C32.01 88.01 32.01 88.01 31 87 C31.103125 85.906875 31.20625 84.81375 31.3125 83.6875 C31.42835308 80.09886053 31.42835308 80.09886053 29.58984375 78.7109375 C28.32979112 77.92440783 27.06798084 77.14068895 25.8046875 76.359375 C23.22538737 74.41652555 22.27203161 72.24346675 21.0246582 69.31860352 C19.9890166 66.97514668 18.84115822 64.72252336 17.66015625 62.44921875 C8.56729719 44.32166036 -0.47920394 20.49677414 0 0 Z " fill="#020202" transform="translate(397,542)"/>
<path d="M0 0 C1.5846187 0.41175131 3.16759702 0.8298139 4.75 1.25 C6.07257813 1.59804688 6.07257813 1.59804688 7.421875 1.953125 C10.54276536 2.86622393 13.5961103 3.87763617 16.671875 4.9296875 C46.39257856 14.8945952 78.64521662 18.75260872 109.75 21.3125 C110.73413879 21.39381165 111.71827759 21.47512329 112.73223877 21.55889893 C127.4741916 22.75350917 142.21999682 23.47607739 157 24 C157 24.33 157 24.66 157 25 C154.36 25 151.72 25 149 25 C149.33 25.99 149.66 26.98 150 28 C147.07755415 30.92244585 143.46455474 31.28010007 139.5625 32.25 C131.31169534 34.41422618 121.53270356 37.00483021 116 44 C115.7496423 47.62535976 115.7496423 47.62535976 116 51 C115.34 50.67 114.68 50.34 114 50 C114 47.69 114 45.38 114 43 C108.72 42.67 103.44 42.34 98 42 C97.979375 43.7325 97.95875 45.465 97.9375 47.25 C97.92589844 48.22453125 97.91429687 49.1990625 97.90234375 50.203125 C97.98804423 52.65758678 98.29293934 54.66168914 99 57 C65.67063523 52.36513521 22.30164101 27.95929672 1.08984375 1.62890625 C0.73019531 1.09136719 0.37054688 0.55382812 0 0 Z " fill="#030303" transform="translate(464,674)"/>
<path d="M0 0 C-25.42513561 24.55441178 -63.01083284 51.87816376 -99 56 C-98.835 55.236875 -98.67 54.47375 -98.5 53.6875 C-97.83437851 48.77854151 -97.92079922 43.94564886 -98 39 C-99.64671412 39.30782496 -101.29235576 39.62139234 -102.9375 39.9375 C-103.85402344 40.11152344 -104.77054688 40.28554688 -105.71484375 40.46484375 C-107.95289844 40.77714988 -107.95289844 40.77714988 -109 42 C-110.66617115 42.04063832 -112.33388095 42.042721 -114 42 C-114 44.64 -114 47.28 -114 50 C-114.66 50 -115.32 50 -116 50 C-115.896875 49.113125 -115.79375 48.22625 -115.6875 47.3125 C-116.01293882 43.86284851 -116.55252794 42.53780912 -119.15625 40.28125 C-128.49550837 33.7912569 -139.164098 30.9015567 -150 28 C-149.67 26.35 -149.34 24.7 -149 23 C-148.35821808 22.95210831 -147.71643616 22.90421661 -147.0552063 22.85487366 C-140.33844893 22.353401 -133.62182487 21.8501705 -126.90527344 21.34594727 C-124.40302815 21.15832735 -121.90074991 20.97114643 -119.3984375 20.78442383 C-115.78897356 20.51500723 -112.17963351 20.24398004 -108.5703125 19.97265625 C-107.46261505 19.89032242 -106.3549176 19.80798859 -105.21365356 19.72315979 C-104.15330902 19.64315231 -103.09296448 19.56314484 -102.00048828 19.48071289 C-100.48578949 19.36918381 -100.48578949 19.36918381 -98.94049072 19.25540161 C-96.98696331 19.08572447 -95.03660208 18.87420884 -93.09222412 18.62033081 C-92.19924622 18.50384186 -91.30626831 18.38735291 -90.38623047 18.26733398 C-89.60343719 18.15139389 -88.82064392 18.0354538 -88.01412964 17.91600037 C-86 18 -86 18 -83.25 20.75 C-82.5075 21.8225 -81.765 22.895 -81 24 C-74.57938401 27.97466704 -68.33419234 27.76077287 -61 27 C-55.55648365 25.35579796 -52.20785247 21.49099346 -49 17 C-48.75636719 16.15179687 -48.51273438 15.30359375 -48.26171875 14.4296875 C-47 12 -47 12 -44.2265625 10.84765625 C-43.03804687 10.58855469 -41.84953125 10.32945312 -40.625 10.0625 C-39.26998062 9.74581415 -37.91585504 9.42528705 -36.5625 9.1015625 C-35.46615234 8.84487793 -35.46615234 8.84487793 -34.34765625 8.58300781 C-30.06295999 7.51896302 -25.84846922 6.21986437 -21.625 4.9375 C-20.80596191 4.69201416 -19.98692383 4.44652832 -19.14306641 4.19360352 C-14.34795802 2.74751354 -9.62242284 1.19055601 -4.92333984 -0.54467773 C-3 -1 -3 -1 0 0 Z " fill="#040404" transform="translate(785,675)"/>
<path d="M0 0 C10.5919683 -0.25874441 20.63903051 0.32400699 31.125 2.0625 C31.79866608 2.17093231 32.47233215 2.27936462 33.16641235 2.39108276 C51.74577931 5.39041689 70.22577579 9.39420406 88.15356445 15.14819336 C90.9550165 16.04348235 90.9550165 16.04348235 93.72436523 16.49682617 C102.18347141 18.36724971 109.82991955 31.50047029 115 38 C116.175625 39.3921875 116.175625 39.3921875 117.375 40.8125 C118.1175 41.699375 118.86 42.58625 119.625 43.5 C120.29789063 44.2940625 120.97078125 45.088125 121.6640625 45.90625 C122.10492187 46.5971875 122.54578125 47.288125 123 48 C122.67 48.99 122.34 49.98 122 51 C122.55429687 51.44730469 123.10859375 51.89460938 123.6796875 52.35546875 C130.87521968 58.3602812 130.87521968 58.3602812 132 63 C131.01 61.9790625 131.01 61.9790625 130 60.9375 C129.00214951 59.9561429 128.00193036 58.97719134 127 58 C126.48824219 57.48050781 125.97648438 56.96101563 125.44921875 56.42578125 C98.83171933 31.10669644 53.88950408 25.68938297 19.01953125 20.2265625 C18.33539154 20.11775253 17.65125183 20.00894257 16.94638062 19.89683533 C13.69121872 19.38632697 10.44411507 18.9375028 7.16943359 18.56933594 C6.0036377 18.43043945 4.8378418 18.29154297 3.63671875 18.1484375 C2.61666748 18.04450684 1.59661621 17.94057617 0.5456543 17.83349609 C-2 17 -2 17 -3.84057617 14.60400391 C-5.07896555 11.8226476 -5.25779847 10.00764885 -5 7 C-4.34 7 -3.68 7 -3 7 C-2.690625 6.21625 -2.38125 5.4325 -2.0625 4.625 C-1 2 -1 2 0 0 Z " fill="#181818" transform="translate(686,325)"/>
<path d="M0 0 C13.30558075 11.68394068 18.4888624 42.92278477 19.875 60 C19.94007488 61.66591691 19.9934876 63.3328253 20 65 C19.42636719 64.67128906 18.85273437 64.34257812 18.26171875 64.00390625 C-2.25412103 52.51628125 -23.21418679 44.94289044 -45.76171875 38.515625 C-49.54222747 37.43490784 -53.28475139 36.29115965 -57 35 C-55.26322041 31.52644082 -50.95032336 31.07858335 -47.4375 29.875 C-30.23791372 23.74747497 -10.93291358 15.34619979 0 0 Z " fill="#020202" transform="translate(831,412)"/>
<path d="M0 0 C0.96933472 0.27880005 0.96933472 0.27880005 1.95825195 0.56323242 C16.02395269 4.57159274 30.02058881 7.98429462 44.45239258 10.40112305 C45.52900146 10.58457275 46.60561035 10.76802246 47.71484375 10.95703125 C48.66480225 11.11147705 49.61476074 11.26592285 50.59350586 11.42504883 C53 12 53 12 56 14 C55.34515625 13.9278125 54.6903125 13.855625 54.015625 13.78125 C52.64664063 13.64203125 52.64664063 13.64203125 51.25 13.5 C50.36828125 13.4071875 49.4865625 13.314375 48.578125 13.21875 C47.39734375 13.1465625 46.2165625 13.074375 45 13 C44.18756836 12.94835693 43.37513672 12.89671387 42.53808594 12.84350586 C33.24979867 12.52610036 24.729603 14.46569452 15.75 16.5625 C14.14821648 16.92832392 12.54640959 17.29404551 10.94458008 17.65966797 C-37.50429881 28.57870685 -37.50429881 28.57870685 -76 58 C-76.33 57.34 -76.66 56.68 -77 56 C-76.36729133 54.65022151 -75.69937532 53.31647119 -75 52 C-75 51.34 -75 50.68 -75 50 C-75.99 50 -76.98 50 -78 50 C-78.12109311 42.92278069 -77.85373239 36.02804699 -77 29 C-76.01 29 -75.02 29 -74 29 C-72.21421765 28.19808997 -72.21421765 28.19808997 -70.3671875 27.05859375 C-69.29694336 26.43597656 -69.29694336 26.43597656 -68.20507812 25.80078125 C-67.43615234 25.35089844 -66.66722656 24.90101563 -65.875 24.4375 C-51.53985621 16.34342992 -36.98913609 11.2327692 -21.25 6.5625 C-20.4866333 6.33481934 -19.7232666 6.10713867 -18.93676758 5.87255859 C-16.73633561 5.22007054 -14.53303046 4.57859514 -12.328125 3.94140625 C-11.6641571 3.74490982 -11.00018921 3.54841339 -10.31610107 3.34596252 C-6.78740983 2.34328314 -3.66978104 1.78193673 0 2 C0 1.34 0 0.68 0 0 Z " fill="#3E3E3E" transform="translate(474,446)"/>
<path d="M0 0 C0.65508545 0.19682373 1.3101709 0.39364746 1.98510742 0.59643555 C6.38778027 2.02501974 9.72956555 3.93974701 13.4375 6.625 C11.58939141 11.20636394 8.96021297 12.40801424 4.62890625 14.45703125 C-1.5711771 16.7260948 -8.054576 17.64317253 -14.5625 18.625 C-15.62726562 18.80933594 -16.69203125 18.99367188 -17.7890625 19.18359375 C-36.72211545 21.39832976 -58.64289753 21.04884756 -75.8828125 11.96875 C-77.84776387 10.39678891 -78.61398509 8.93272699 -79.5625 6.625 C-72.18768197 1.48093957 -65.37925143 -0.84473625 -56.5625 -2.375 C-54.94214844 -2.68244141 -54.94214844 -2.68244141 -53.2890625 -2.99609375 C-35.60981086 -5.98384607 -17.1711626 -5.19505288 0 0 Z " fill="#040404" transform="translate(657.5625,284.375)"/>
<path d="M0 0 C4.27338623 2.20334226 6.78745378 5.01240756 8.9375 9.3125 C9.23148762 12.68058436 9.21556301 16.05808346 9.25 19.4375 C9.27900391 20.36304688 9.30800781 21.28859375 9.33789062 22.2421875 C9.39453923 28.41252796 8.6733273 33.25912293 4.9375 38.3125 C-1.42737255 43.28249257 -10.38803801 43.13512207 -18.0625 42.3125 C-23.21521666 41.12691917 -26.69796331 38.34994403 -30.0625 34.3125 C-32.44481252 29.79028571 -32.42925511 25.49228224 -32.4375 20.5 C-32.47423828 19.34661133 -32.47423828 19.34661133 -32.51171875 18.16992188 C-32.54030786 12.52357273 -31.42335688 7.93834136 -28.0625 3.3125 C-20.26142148 -2.84430477 -9.09483408 -3.75294318 0 0 Z " fill="#EEEEEE" transform="translate(1927.0625,347.6875)"/>
<path d="M0 0 C4.27338623 2.20334226 6.78745378 5.01240756 8.9375 9.3125 C9.23148762 12.68058436 9.21556301 16.05808346 9.25 19.4375 C9.27900391 20.36304688 9.30800781 21.28859375 9.33789062 22.2421875 C9.39453923 28.41252796 8.6733273 33.25912293 4.9375 38.3125 C-1.42737255 43.28249257 -10.38803801 43.13512207 -18.0625 42.3125 C-23.21521666 41.12691917 -26.69796331 38.34994403 -30.0625 34.3125 C-32.44481252 29.79028571 -32.42925511 25.49228224 -32.4375 20.5 C-32.47423828 19.34661133 -32.47423828 19.34661133 -32.51171875 18.16992188 C-32.54030786 12.52357273 -31.42335688 7.93834136 -28.0625 3.3125 C-20.26142148 -2.84430477 -9.09483408 -3.75294318 0 0 Z " fill="#EEEEEE" transform="translate(1407.0625,347.6875)"/>
<path d="M0 0 C7.22949286 4.59362633 14.03886259 10.07038421 19.58203125 16.640625 C19.58203125 17.300625 19.58203125 17.960625 19.58203125 18.640625 C20.24203125 18.970625 20.90203125 19.300625 21.58203125 19.640625 C20.92203125 19.640625 20.26203125 19.640625 19.58203125 19.640625 C18.59203125 22.610625 18.59203125 22.610625 17.58203125 25.640625 C16.92203125 25.640625 16.26203125 25.640625 15.58203125 25.640625 C15.91203125 26.630625 16.24203125 27.620625 16.58203125 28.640625 C14.83203125 31.828125 14.83203125 31.828125 12.58203125 34.640625 C11.59203125 34.640625 10.60203125 34.640625 9.58203125 34.640625 C9.62328125 35.5275 9.66453125 36.414375 9.70703125 37.328125 C9.58305879 40.61339513 8.96815221 42.69511795 7.58203125 45.640625 C6.92203125 45.640625 6.26203125 45.640625 5.58203125 45.640625 C5.74960937 45.06054688 5.9171875 44.48046875 6.08984375 43.8828125 C7.41032964 38.81816409 8.13979014 35.44921171 5.58203125 30.640625 C-10.58204842 7.87035624 -46.87690312 -0.63195745 -72.41796875 -6.359375 C-75.0900897 -6.79507475 -77.72087097 -7.10499335 -80.41796875 -7.359375 C-80.41796875 -7.689375 -80.41796875 -8.019375 -80.41796875 -8.359375 C-79.46019531 -8.53065918 -78.50242187 -8.70194336 -77.515625 -8.87841797 C-73.9293526 -9.52052229 -70.34373764 -10.16623615 -66.75830078 -10.81298828 C-65.21257676 -11.09130245 -63.666681 -11.36866469 -62.12060547 -11.64501953 C-59.88592368 -12.04463661 -57.65190185 -12.44778365 -55.41796875 -12.8515625 C-54.3971521 -13.03294266 -54.3971521 -13.03294266 -53.35571289 -13.21798706 C-49.90574743 -13.84503818 -46.54936992 -14.58413802 -43.16796875 -15.51611328 C-30.68837294 -18.32239739 -10.77822772 -6.17547719 0 0 Z " fill="#5A5A5A" transform="translate(811.41796875,588.359375)"/>
<path d="M0 0 C0.62116699 0.13051758 1.24233398 0.26103516 1.88232422 0.39550781 C18.18606208 3.79745713 34.51735454 6.61587057 51 9 C51 9.33 51 9.66 51 10 C49.48599609 9.98646484 49.48599609 9.98646484 47.94140625 9.97265625 C20.44327795 10.31642339 -14.8496732 21.74442883 -36.0390625 39.96875 C-40.42909187 44.51619078 -43.25588459 49.14231245 -43.3125 55.5625 C-43.209375 56.696875 -43.10625 57.83125 -43 59 C-43.66 58.34 -44.32 57.68 -45 57 C-44.896875 55.906875 -44.79375 54.81375 -44.6875 53.6875 C-44.57164692 50.09886053 -44.57164692 50.09886053 -46.41015625 48.7109375 C-47.66180351 47.9296545 -48.91855151 47.15649706 -50.1796875 46.390625 C-53.3276006 43.98578151 -54.52879958 40.5830849 -56 37 C-56.33 36.34 -56.66 35.68 -57 35 C-56.34 35 -55.68 35 -55 35 C-54.74863281 34.42765625 -54.49726563 33.8553125 -54.23828125 33.265625 C-46.07123377 18.32276211 -25.58140868 10.37740341 -10.4375 4.625 C-9.74615967 4.36187012 -9.05481934 4.09874023 -8.3425293 3.82763672 C-5.42152946 2.75184062 -3.13846166 2 0 2 C0 1.34 0 0.68 0 0 Z " fill="#535353" transform="translate(473,572)"/>
<path d="M0 0 C0.5625 1.9375 0.5625 1.9375 1 4 C0.67 4.33 0.34 4.66 0 5 C-0.37019504 9.997633 0.14098382 13.96334847 1.515625 18.7890625 C1.79180664 19.7682666 2.06798828 20.7474707 2.35253906 21.75634766 C2.56620117 22.49675293 2.77986328 23.2371582 3 24 C2.23558594 24.21092285 1.47117187 24.4218457 0.68359375 24.63916016 C-26.47501699 32.16823952 -52.53957573 39.87223054 -74 59 C-72.74257269 56.24756695 -71.81652631 54.82593521 -69.5625 52.6875 C-67.11311537 50.11863319 -66.30199999 48.29486664 -65.046875 45.06640625 C-60.80411606 36.6917067 -52.97812371 29.57439202 -46.5625 22.74609375 C-45.02875805 21.1024648 -43.51923501 19.43490728 -42.0625 17.72265625 C-38.3950838 13.57134486 -36.25820219 12.78437361 -30.63037109 12.31567383 C-25.68025686 11.72160499 -20.92215626 10.25947848 -16.125 8.9375 C-14.08683295 8.38082562 -12.04780536 7.8272896 -10.0078125 7.27734375 C-9.11723145 7.03234131 -8.22665039 6.78733887 -7.30908203 6.53491211 C-5 6 -5 6 -2 6 C-1.34 4.02 -0.68 2.04 0 0 Z " fill="#2C2C2C" transform="translate(506,327)"/>
<path d="M0 0 C1.2375 0.06058594 2.475 0.12117187 3.75 0.18359375 C17.4975894 0.85050951 31.24760218 1.44157257 45 2 C45 2.33 45 2.66 45 3 C42.36 3 39.72 3 37 3 C37.495 4.485 37.495 4.485 38 6 C35.07755415 8.92244585 31.46455474 9.28010007 27.5625 10.25 C19.31169534 12.41422618 9.53270356 15.00483021 4 22 C3.7496423 25.62535976 3.7496423 25.62535976 4 29 C3.34 28.67 2.68 28.34 2 28 C2 25.69 2 23.38 2 21 C-3.28 20.67 -8.56 20.34 -14 20 C-14.33 20.66 -14.66 21.32 -15 22 C-13.84823611 14.16800553 -9.74055781 8.20619241 -3.8125 3.125 C-2 2 -2 2 0 2 C0 1.34 0 0.68 0 0 Z " fill="#1D1D1D" transform="translate(576,696)"/>
<path d="M0 0 C4.36477976 4.08033344 7.94337427 8.88129766 9.73828125 14.625 C8.67287109 14.82416016 8.67287109 14.82416016 7.5859375 15.02734375 C6.66683594 15.20394531 5.74773438 15.38054688 4.80078125 15.5625 C3.88425781 15.73652344 2.96773437 15.91054688 2.0234375 16.08984375 C-0.21461719 16.40214988 -0.21461719 16.40214988 -1.26171875 17.625 C-2.9278899 17.66563832 -4.5955997 17.667721 -6.26171875 17.625 C-6.26171875 20.265 -6.26171875 22.905 -6.26171875 25.625 C-6.92171875 25.625 -7.58171875 25.625 -8.26171875 25.625 C-8.15859375 24.738125 -8.05546875 23.85125 -7.94921875 22.9375 C-8.27465757 19.48784851 -8.81424669 18.16280912 -11.41796875 15.90625 C-20.75722712 9.4162569 -31.42581675 6.5265567 -42.26171875 3.625 C-41.93171875 1.975 -41.60171875 0.325 -41.26171875 -1.375 C-37.09929521 -1.66243274 -32.93669852 -1.94717265 -28.77392578 -2.22949219 C-27.35981353 -2.32576942 -25.94574989 -2.42276356 -24.53173828 -2.52050781 C-22.49133677 -2.66142349 -20.45077042 -2.7997022 -18.41015625 -2.9375 C-17.18474121 -3.02128906 -15.95932617 -3.10507812 -14.69677734 -3.19140625 C-4.7688445 -3.72202498 -4.7688445 -3.72202498 0 0 Z " fill="#1A1A1A" transform="translate(677.26171875,699.375)"/>
<path d="M0 0 C10.40028775 -0.3995295 20.20713857 0.83375042 30.4375 2.4375 C33.435182 2.90143851 36.43374038 3.35890598 39.43359375 3.80859375 C40.15461273 3.91674408 40.87563171 4.02489441 41.61849976 4.13632202 C48.39320318 5.11869576 55.16292633 5.64022588 62 6 C62 6.33 62 6.66 62 7 C45.43969105 9.68489566 28.89025776 12.19637088 12.1875 13.8125 C10.3156604 13.99776245 10.3156604 13.99776245 8.40600586 14.18676758 C0.91565205 14.87663529 -6.47931782 15.14766755 -14 15 C-14 14.67 -14 14.34 -14 14 C-12.96875 14.061875 -11.9375 14.12375 -10.875 14.1875 C-8.88491651 14.04074645 -8.88491651 14.04074645 -7 13 C-4.51382052 9.55675142 -2.75050704 5.85933934 -1 2 C-0.67 1.34 -0.34 0.68 0 0 Z " fill="#070707" transform="translate(680,555)"/>
<path d="M0 0 C0 0.33 0 0.66 0 1 C-3.3 1 -6.6 1 -10 1 C-8.79434215 3.43885611 -7.58600698 5.87629988 -6.375 8.3125 C-6.01543213 9.03711426 -5.65586426 9.76172852 -5.28540039 10.50830078 C-2.66454165 15.75698708 0.11637046 20.88840843 3.06640625 25.9609375 C3.52853516 26.97027344 3.52853516 26.97027344 4 28 C3.67 28.66 3.34 29.32 3 30 C1.68 29.34 0.36 28.68 -1 28 C-0.67 27.67 -0.34 27.34 0 27 C-2.31 27.66 -4.62 28.32 -7 29 C-7 29.66 -7 30.32 -7 31 C-5.68 31.33 -4.36 31.66 -3 32 C-3.515625 32.53625 -4.03125 33.0725 -4.5625 33.625 C-6.32605545 36.00496499 -6.32605545 36.00496499 -5.6875 39.25 C-5.460625 40.1575 -5.23375 41.065 -5 42 C-7.83656155 39.49655778 -9.3789164 36.73290233 -11.14453125 33.40625 C-11.73943359 32.2925 -12.33433594 31.17875 -12.94726562 30.03125 C-13.56279297 28.8659375 -14.17832031 27.700625 -14.8125 26.5 C-16.0270809 24.21861004 -17.24192229 21.93735875 -18.45703125 19.65625 C-19.04564941 18.54765625 -19.63426758 17.4390625 -20.24072266 16.296875 C-22.79357279 11.51284944 -25.39168839 6.75396486 -28 2 C-23.31172022 -2.68827978 -6.33356571 -0.08546041 0 0 Z " fill="#1A1A1A" transform="translate(685,586)"/>
<path d="M0 0 C11.36783648 -0.16938829 22.65384417 0.36077995 34 1 C34 1.33 34 1.66 34 2 C27.565 2.495 27.565 2.495 21 3 C21.95003906 4.70929688 22.90007813 6.41859375 23.87890625 8.1796875 C25.10719074 10.41122726 26.33503257 12.64301071 27.5625 14.875 C28.19091797 16.00292969 28.81933594 17.13085938 29.46679688 18.29296875 C30.05654297 19.36933594 30.64628906 20.44570313 31.25390625 21.5546875 C32.07870483 23.04718018 32.07870483 23.04718018 32.92016602 24.56982422 C33.27651123 25.37178223 33.63285645 26.17374023 34 27 C33.67 27.66 33.34 28.32 33 29 C32.01 28.34 31.02 27.68 30 27 C30.33 26.67 30.66 26.34 31 26 C27.58978257 26.78697325 24.31114834 27.87119943 21 29 C21.99 29.66 22.98 30.32 24 31 C23.01 32.485 23.01 32.485 22 34 C22.66 34.33 23.32 34.66 24 35 C23.34 35.99 22.68 36.98 22 38 C19.91761097 34.12281726 17.83635187 30.24503075 15.75610352 26.36669922 C15.04937693 25.04947842 14.34235058 23.73241841 13.63500977 22.41552734 C12.61394217 20.51442757 11.59398097 18.61273773 10.57421875 16.7109375 C9.96151123 15.56931152 9.34880371 14.42768555 8.7175293 13.25146484 C8.15074463 12.17848145 7.58395996 11.10549805 7 10 C6.43128174 8.93346191 5.86256348 7.86692383 5.27661133 6.76806641 C4 4 4 4 4 1 C2.68 0.67 1.36 0.34 0 0 Z " fill="#3F3F3F" transform="translate(589,466)"/>
<path d="M0 0 C1.671875 2.21484375 1.671875 2.21484375 2.75 4.9375 C4.42452694 9.17108406 4.42452694 9.17108406 8 12 C-0.57320177 12.27966575 -8.9467095 11.2202166 -17.4375 10.1875 C-18.19101746 10.09762817 -18.94453491 10.00775635 -19.72088623 9.91516113 C-30.86928531 8.58472673 -41.9623973 7.07544666 -53 5 C-53 4.67 -53 4.34 -53 4 C-52.19304687 3.97421875 -51.38609375 3.9484375 -50.5546875 3.921875 C-39.43164914 3.40232756 -28.47897694 1.92655267 -17.47412109 0.28417969 C-16.22324707 0.10532227 -14.97237305 -0.07353516 -13.68359375 -0.2578125 C-12.56525146 -0.4242627 -11.44690918 -0.59071289 -10.29467773 -0.76220703 C-6.66405499 -1.02424679 -3.55696446 -0.76436722 0 0 Z " fill="#080808" transform="translate(557,557)"/>
<path d="M0 0 C13.76550403 -0.68700297 27.36490624 1.3358163 41 3 C37.27070873 5.48619418 33.7602385 5.84616742 29.421875 6.47265625 C28.15467621 6.6646183 28.15467621 6.6646183 26.86187744 6.86045837 C24.15892312 7.2682013 21.45454389 7.66545199 18.75 8.0625 C16.94390775 8.33330053 15.13791676 8.60477734 13.33203125 8.87695312 C9.25831589 9.48899521 5.18393097 10.09603835 1.10780334 10.69181824 C-0.89185522 10.98418816 -2.89089344 11.28079168 -4.88989258 11.57763672 C-7.78827427 11.97124692 -10.5166982 12.10251098 -13.4375 12.0625 C-14.73494141 12.04896484 -14.73494141 12.04896484 -16.05859375 12.03515625 C-16.69925781 12.02355469 -17.33992187 12.01195312 -18 12 C-18 11.67 -18 11.34 -18 11 C-17.16855469 10.89042969 -16.33710937 10.78085937 -15.48046875 10.66796875 C-14.39378906 10.50941406 -13.30710937 10.35085938 -12.1875 10.1875 C-11.10855469 10.03667969 -10.02960937 9.88585937 -8.91796875 9.73046875 C-5.78734184 8.94676429 -4.85453676 8.56739173 -3 6 C-1.95377125 4.02379014 -0.94560065 2.0262871 0 0 Z " fill="#060606" transform="translate(695,435)"/>
<path d="M0 0 C2.475 5.445 2.475 5.445 5 11 C-9.9244149 10.56678041 -24.39010146 7.94445397 -39 5 C-39 4.34 -39 3.68 -39 3 C-13.03669725 -0.44954128 -13.03669725 -0.44954128 0 0 Z " fill="#050505" transform="translate(554,435)"/>
<path d="M0 0 C4.62 0 9.24 0 14 0 C17.20695267 4.91064627 18.69788995 7.95162041 18 14 C17.01 15.485 17.01 15.485 16 17 C12.64276273 17.41965466 9.35025237 17.43998475 5.96875 17.49609375 C4.9890625 17.66238281 4.009375 17.82867187 3 18 C1.51853889 19.92193836 1.51853889 19.92193836 1 22 C1.165 21.38125 1.33 20.7625 1.5 20.125 C2.6254903 13.09068564 2.33946419 6.72595956 0 0 Z " fill="#020202" transform="translate(549,325)"/>
<path d="M0 0 C0.99 0.33 1.98 0.66 3 1 C3.25523437 1.81855469 3.51046875 2.63710938 3.7734375 3.48046875 C4.38058594 4.72763672 4.38058594 4.72763672 5 6 C8.08765687 7.04417909 8.08765687 7.04417909 11.625 7.3125 C12.81351563 7.45300781 14.00203125 7.59351563 15.2265625 7.73828125 C16.14179687 7.82464844 17.05703125 7.91101563 18 8 C17.04270084 9.12588014 16.08412105 10.2506715 15.125 11.375 C14.59132813 12.00148438 14.05765625 12.62796875 13.5078125 13.2734375 C12.38567993 14.55836651 11.20628025 15.79371975 10 17 C9.83322718 20.58343976 9.83322718 20.58343976 10 24 C9.34 23.67 8.68 23.34 8 23 C8 20.69 8 18.38 8 16 C2.72 15.67 -2.56 15.34 -8 15 C-8.33 15.66 -8.66 16.32 -9 17 C-7.96630118 9.970848 -4.5758751 5.19423661 0 0 Z " fill="#737373" transform="translate(570,701)"/>
<path d="M0 0 C11.36783648 -0.16938829 22.65384417 0.36077995 34 1 C34 1.33 34 1.66 34 2 C27.565 2.495 27.565 2.495 21 3 C21.66 4.98 22.32 6.96 23 9 C21.54634731 10.17249353 20.08692581 11.33783816 18.625 12.5 C17.81289063 13.1496875 17.00078125 13.799375 16.1640625 14.46875 C14 16 14 16 12 16 C11.67 16.66 11.34 17.32 11 18 C9.82592979 15.73272667 8.66060261 13.46165376 7.5 11.1875 C7.16613281 10.54490234 6.83226562 9.90230469 6.48828125 9.24023438 C4.99760916 6.30452301 4 4.33873483 4 1 C2.68 0.67 1.36 0.34 0 0 Z " fill="#111111" transform="translate(589,466)"/>
<path d="M0 0 C4.91970564 3.60778414 6.96940865 6.24665785 9 12 C8.28972656 12.13277344 7.57945312 12.26554688 6.84765625 12.40234375 C5.92855469 12.57894531 5.00945313 12.75554688 4.0625 12.9375 C3.14597656 13.11152344 2.22945312 13.28554688 1.28515625 13.46484375 C-0.95289844 13.77714988 -0.95289844 13.77714988 -2 15 C-3.66617115 15.04063832 -5.33388095 15.042721 -7 15 C-7 17.64 -7 20.28 -7 23 C-7.66 23 -8.32 23 -9 23 C-8.8453125 21.7625 -8.8453125 21.7625 -8.6875 20.5 C-9.11169368 15.74903079 -11.28442298 12.82120481 -14 9 C-12.8125 6.5625 -12.8125 6.5625 -11 4 C-8.6875 3.375 -8.6875 3.375 -6 3 C-3.97762948 2.04605164 -1.9717304 1.05464649 0 0 Z " fill="#5A5A5A" transform="translate(678,702)"/>
<path d="M0 0 C5.86972189 1.95657396 8.35849744 6.71699487 11 12 C10.67 12.66 10.34 13.32 10 14 C8.68 13.34 7.36 12.68 6 12 C6.33 11.67 6.66 11.34 7 11 C4.69 11.66 2.38 12.32 0 13 C0 13.66 0 14.32 0 15 C1.32 15.33 2.64 15.66 4 16 C3.484375 16.53625 2.96875 17.0725 2.4375 17.625 C0.67394455 20.00496499 0.67394455 20.00496499 1.3125 23.25 C1.539375 24.1575 1.76625 25.065 2 26 C-1.20494546 23.27579636 -3.31141443 19.81620338 -5 16 C-5.1875 13.375 -5.1875 13.375 -5 11 C-5.268125 10.175 -5.53625 9.35 -5.8125 8.5 C-5.874375 7.675 -5.93625 6.85 -6 6 C-3.625 3.25 -3.625 3.25 -1 1 C-0.67 0.67 -0.34 0.34 0 0 Z " fill="#828282" transform="translate(678,602)"/>
<path d="M0 0 C2.83036718 1.99173987 4.4351091 4.94846275 6 8 C5.67 8.66 5.34 9.32 5 10 C4.01 9.34 3.02 8.68 2 8 C2.33 7.67 2.66 7.34 3 7 C-0.41021743 7.78697325 -3.68885166 8.87119943 -7 10 C-6.01 10.66 -5.02 11.32 -4 12 C-4.99 13.485 -4.99 13.485 -6 15 C-5.34 15.33 -4.68 15.66 -4 16 C-4.66 16.99 -5.32 17.98 -6 19 C-9.31809585 13.91916574 -10.24284303 11.1924973 -10 5 C-10.66 4.34 -11.32 3.68 -12 3 C-7.82561234 0.61463562 -4.83415572 -0.6445541 0 0 Z " fill="#7A7A7A" transform="translate(617,485)"/>
<path d="M0 0 C1.3125 2.5625 1.3125 2.5625 2 5 C1.28972656 5.13277344 0.57945312 5.26554688 -0.15234375 5.40234375 C-1.07144531 5.57894531 -1.99054687 5.75554688 -2.9375 5.9375 C-3.85402344 6.11152344 -4.77054688 6.28554688 -5.71484375 6.46484375 C-7.95289844 6.77714988 -7.95289844 6.77714988 -9 8 C-10.66617115 8.04063832 -12.33388095 8.042721 -14 8 C-14 10.64 -14 13.28 -14 16 C-14.66 16 -15.32 16 -16 16 C-15.67 12.7 -15.34 9.4 -15 6 C-15.99 5.34 -16.98 4.68 -18 4 C-5.86281588 -2.51263538 -5.86281588 -2.51263538 0 0 Z " fill="#909090" transform="translate(685,709)"/>
<path d="M0 0 C2.375 0.625 2.375 0.625 5 2 C6.3125 5.125 6.3125 5.125 7 8 C4.525 7.01 4.525 7.01 2 6 C-0.5609294 7.79857668 -0.5609294 7.79857668 -3 10 C-3 10.99 -3 11.98 -3 13 C-3.33 13.66 -3.66 14.32 -4 15 C-3.34 15.33 -2.68 15.66 -2 16 C-2.66 16.99 -3.32 17.98 -4 19 C-7.88441497 9.98815727 -7.88441497 9.98815727 -6 5 C-4.12530562 3.03726748 -2.21745677 1.60411766 0 0 Z " fill="#515151" transform="translate(676,597)"/>
<path d="M0 0 C3.40319453 1.13439818 4.68829699 2.30301316 7 5 C7.75 7.25 7.75 7.25 8 9 C6.35 9 4.7 9 3 9 C3 8.34 3 7.68 3 7 C-1.455 8.485 -1.455 8.485 -6 10 C-6 6 -6 6 -3.5625 3.3125 C-2.716875 2.549375 -1.87125 1.78625 -1 1 C-0.67 0.67 -0.34 0.34 0 0 Z " fill="#797979" transform="translate(678,602)"/>
<path d="M0 0 C0.33 1.98 0.66 3.96 1 6 C-4.61 5.67 -10.22 5.34 -16 5 C-16 4.34 -16 3.68 -16 3 C-10.47239641 0.89424625 -5.93002267 -0.37851209 0 0 Z " fill="#D5D5D5" transform="translate(687,714)"/>
<path d="M0 0 C1.5843317 0.08768248 3.16753567 0.19587329 4.75 0.3125 C6.07257812 0.39951172 6.07257812 0.39951172 7.421875 0.48828125 C10.32303774 1.0641181 11.79225607 2.07596148 14 4 C13.67 4.66 13.34 5.32 13 6 C6.07 5.505 6.07 5.505 -1 5 C-1.33 5.66 -1.66 6.32 -2 7 C-1.125 2.25 -1.125 2.25 0 0 Z " fill="#A4A4A4" transform="translate(563,711)"/>
<path d="M0 0 C0.99 0.66 1.98 1.32 3 2 C2.67 2.66 2.34 3.32 2 4 C0.00390625 4.37890625 0.00390625 4.37890625 -2.4375 4.5625 C-5.84628205 4.8061175 -5.84628205 4.8061175 -9 6 C-8.01 7.485 -8.01 7.485 -7 9 C-7.66 10.32 -8.32 11.64 -9 13 C-10.8454602 9.88578592 -11.46369062 7.61678684 -11 4 C-8.28305166 0.13907342 -4.4466153 -1.4822051 0 0 Z " fill="#565656" transform="translate(615,482)"/>
<path d="M0 0 C3.27725968 0.05958654 3.94187595 0.22850076 6.625 2.375 C7.12 3.035 7.615 3.695 8.125 4.375 C7.795 5.035 7.465 5.695 7.125 6.375 C6.135 5.715 5.145 5.055 4.125 4.375 C4.455 4.045 4.785 3.715 5.125 3.375 C2.27949988 4.03510476 -0.39825999 4.89224966 -3.125 5.9375 C-3.83140625 6.20691406 -4.5378125 6.47632813 -5.265625 6.75390625 C-5.79671875 6.95886719 -6.3278125 7.16382813 -6.875 7.375 C-6.05760147 2.19814266 -5.60795739 0.54270555 0 0 Z " fill="#8D8D8D" transform="translate(614.875,488.625)"/>
<path d="M0 0 C3.48247874 1.16082625 3.88819244 1.90932476 5.75 4.9375 C6.19859375 5.64777344 6.6471875 6.35804688 7.109375 7.08984375 C7.55023437 8.03537109 7.55023437 8.03537109 8 9 C7.67 9.66 7.34 10.32 7 11 C5.02 8.36 3.04 5.72 1 3 C-4.29012124 7.40843437 -9.18808428 12.07559794 -14 17 C-14 14 -14 14 -12.71484375 12.37426758 C-12.12832031 11.80345459 -11.54179688 11.2326416 -10.9375 10.64453125 C-10.30585937 10.02255859 -9.67421875 9.40058594 -9.0234375 8.75976562 C-8.35570312 8.11716797 -7.68796875 7.47457031 -7 6.8125 C-6.33226562 6.15830078 -5.66453125 5.50410156 -4.9765625 4.83007812 C-3.32421559 3.21313865 -1.66528399 1.60359509 0 0 Z " fill="#232323" transform="translate(1746,544)"/>
<path d="M0 0 C0.33 0 0.66 0 1 0 C2.125 5.625 2.125 5.625 1 9 C1.99 9 2.98 9 4 9 C5.21597114 12.64791341 4.33183805 13.67699678 2.76953125 17.015625 C1.5013568 20.28584134 1.30535583 23.51894359 1 27 C0.67 27 0.34 27 0 27 C0 18.09 0 9.18 0 0 Z " fill="#A0A0A0" transform="translate(395,487)"/>
<path d="M0 0 C0.99 0.99 1.98 1.98 3 3 C2.26394531 3.19335938 1.52789063 3.38671875 0.76953125 3.5859375 C-0.20628906 3.84632813 -1.18210937 4.10671875 -2.1875 4.375 C-3.63189453 4.75785156 -3.63189453 4.75785156 -5.10546875 5.1484375 C-7.82210207 5.94766296 -10.39137175 6.9031362 -13 8 C-11.68 8.99 -10.36 9.98 -9 11 C-9.66 11 -10.32 11 -11 11 C-11.33 11.99 -11.66 12.98 -12 14 C-14.62386487 10.93882432 -15 10.26826873 -15 6 C-14.16855469 5.73445312 -13.33710937 5.46890625 -12.48046875 5.1953125 C-11.39378906 4.84210937 -10.30710937 4.48890625 -9.1875 4.125 C-8.10855469 3.77695312 -7.02960937 3.42890625 -5.91796875 3.0703125 C-2.86684198 2.08040347 -2.86684198 2.08040347 0 0 Z " fill="#636363" transform="translate(681,705)"/>
<path d="M0 0 C1.75 1.5625 1.75 1.5625 3 3 C2.67 3.66 2.34 4.32 2 5 C0.14375 4.938125 0.14375 4.938125 -1.75 4.875 C-5.01637962 4.86341709 -7.2146947 5.1431298 -10 7 C-9.67 6.34 -9.34 5.68 -9 5 C-9.99 4.34 -10.98 3.68 -12 3 C-10.75823305 2.29773859 -9.50614401 1.61370891 -8.25 0.9375 C-7.20585938 0.36322266 -7.20585938 0.36322266 -6.140625 -0.22265625 C-3.60136504 -1.14475978 -2.48841422 -0.97005978 0 0 Z " fill="#C9C9C9" transform="translate(621,492)"/>
<path d="M0 0 C-1.66463038 4.28642324 -4.79075837 7.08617217 -8 10.25 C-8.5465625 10.80429687 -9.093125 11.35859375 -9.65625 11.9296875 C-13.7466133 16 -13.7466133 16 -16 16 C-14.33536962 11.71357676 -11.20924163 8.91382783 -8 5.75 C-7.4534375 5.19570313 -6.906875 4.64140625 -6.34375 4.0703125 C-2.2533867 0 -2.2533867 0 0 0 Z " fill="#9A9A9A" transform="translate(1124,383)"/>
<path d="M0 0 C5.45769811 -0.11138159 10.61509359 0.08342019 16 1 C16 2.65 16 4.3 16 6 C15.67 5.01 15.34 4.02 15 3 C9.72 3 4.44 3 -1 3 C-0.67 2.01 -0.34 1.02 0 0 Z " fill="#D0D0D0" transform="translate(562,716)"/>
<path d="M0 0 C0.99 0.33 1.98 0.66 3 1 C4.1875 4.0625 4.1875 4.0625 5 7 C1.37 7.33 -2.26 7.66 -6 8 C-4.02 5.36 -2.04 2.72 0 0 Z " fill="#606060" transform="translate(570,701)"/>
<path d="M0 0 C5.06562383 -0.25328119 9.15758367 0.66416101 14 2 C13.67 2.680625 13.34 3.36125 13 4.0625 C11.82692685 7.50840238 11.85819507 10.38397422 12 14 C11.34 13.67 10.68 13.34 10 13 C10 10.69 10 8.38 10 6 C7.03 5.505 7.03 5.505 4 5 C4.66 4.34 5.32 3.68 6 3 C4.02 2.34 2.04 1.68 0 1 C0 0.67 0 0.34 0 0 Z " fill="#777777" transform="translate(568,711)"/>
<path d="M0 0 C-5.78987645 3.85991763 -11.06746106 5.43328368 -18 5 C-16.49812318 1.99624635 -14.37277281 1.86738789 -11.25 0.8125 C-9.67992187 0.26529297 -9.67992187 0.26529297 -8.078125 -0.29296875 C-4.91440531 -1.01966071 -3.08256513 -0.89622727 0 0 Z " fill="#7E7E7E" transform="translate(685,709)"/>
<path d="M0 0 C2.0625 1.4375 2.0625 1.4375 2.875 3.5625 C2.936875 4.18125 2.99875 4.8 3.0625 5.4375 C1.4125 5.1075 -0.2375 4.7775 -1.9375 4.4375 C-1.6075 3.7775 -1.2775 3.1175 -0.9375 2.4375 C-4.80398272 3.47847612 -8.43211443 4.47448408 -11.9375 6.4375 C-11.671875 4.5546875 -11.671875 4.5546875 -10.9375 2.4375 C-7.49124824 0.13463083 -4.05128051 -0.77577712 0 0 Z " fill="#8F8F8F" transform="translate(685.9375,610.5625)"/>
<path d="M0 0 C3.96 0.33 7.92 0.66 12 1 C6.25 7.875 6.25 7.875 4 9 C4.33 8.01 4.66 7.02 5 6 C4.34 5.67 3.68 5.34 3 5 C3 4.34 3 3.68 3 3 C2.01 2.67 1.02 2.34 0 2 C0 1.34 0 0.68 0 0 Z " fill="#4F4F4F" transform="translate(576,708)"/>
<path d="M0 0 C1.875 1.5 1.875 1.5 3 3 C2.67 3.66 2.34 4.32 2 5 C1.443125 4.649375 0.88625 4.29875 0.3125 3.9375 C-3.44318137 2.41492647 -6.2832512 3.76108373 -10 5 C-10.66 4.34 -11.32 3.68 -12 3 C-7.82561234 0.61463562 -4.83415572 -0.6445541 0 0 Z " fill="#6D6D6D" transform="translate(617,485)"/>
<path d="M0 0 C3.14328218 2.0679488 3.51886104 3.98228251 4.375 7.5625 C1.90699953 6.41076645 0.32716435 5.51466435 -1.625 3.5625 C-5.09 5.0475 -5.09 5.0475 -8.625 6.5625 C-6.88651711 2.36116635 -4.90250672 -0.81708445 0 0 Z " fill="#373737" transform="translate(678.625,597.4375)"/>
<path d="M0 0 C0.66 0.66 1.32 1.32 2 2 C-0.77079887 5.80984844 -4.62868145 6.06840752 -9 7 C-8.4375 4.625 -8.4375 4.625 -7 2 C-3.375 0.6875 -3.375 0.6875 0 0 Z " fill="#CBCBCB" transform="translate(685,612)"/>
<path d="M0 0 C3 1 3 1 6 3 C5.67 3.66 5.34 4.32 5 5 C2.49609375 5.4140625 2.49609375 5.4140625 -0.5625 5.625 C-1.57441406 5.69976563 -2.58632813 5.77453125 -3.62890625 5.8515625 C-4.41136719 5.90054688 -5.19382812 5.94953125 -6 6 C-4 4 -2 2 0 0 Z " fill="#656565" transform="translate(678,602)"/>
<path d="M0 0 C2.47266124 2.26237627 4.063866 4.57453333 5.6875 7.5 C6.34298828 8.66015625 6.34298828 8.66015625 7.01171875 9.84375 C8 12 8 12 8 15 C4.37 14.67 0.74 14.34 -3 14 C-3 13.67 -3 13.34 -3 13 C-0.36 12.67 2.28 12.34 5 12 C4.6390625 11.30132812 4.278125 10.60265625 3.90625 9.8828125 C3.4421875 8.97273438 2.978125 8.06265625 2.5 7.125 C2.0359375 6.22007812 1.571875 5.31515625 1.09375 4.3828125 C0 2 0 2 0 0 Z " fill="#232323" transform="translate(574,434)"/>
<path d="M0 0 C0.33 1.98 0.66 3.96 1 6 C0.67 5.01 0.34 4.02 0 3 C-3.63 3 -7.26 3 -11 3 C-8.89427904 -1.21144191 -4.11694326 -0.07767817 0 0 Z " fill="#B9B9B9" transform="translate(687,714)"/>
<path d="M0 0 C-0.350625 0.61875 -0.70125 1.2375 -1.0625 1.875 C-1.5265625 2.926875 -1.5265625 2.926875 -2 4 C-1.67 4.66 -1.34 5.32 -1 6 C-4.04860014 4.98379995 -4.86666922 4.22608429 -7 2 C-7.66 1.67 -8.32 1.34 -9 1 C-8 -1 -8 -1 -6.1875 -1.75 C-3.50171361 -2.05694702 -2.2747813 -1.38111722 0 0 Z " fill="#343434" transform="translate(667,708)"/>
<path d="M0 0 C0.33 0.66 0.66 1.32 1 2 C-0.28913487 2.67154933 -1.58140204 3.33708859 -2.875 4 C-3.59429688 4.37125 -4.31359375 4.7425 -5.0546875 5.125 C-7 6 -7 6 -9 6 C-9 6.66 -9 7.32 -9 8 C-10.32 7.67 -11.64 7.34 -13 7 C-11 4 -11 4 -8.75 3.5 C-7.38875 3.2525 -7.38875 3.2525 -6 3 C-3.97762948 2.04605164 -1.9717304 1.05464649 0 0 Z " fill="#4C4C4C" transform="translate(678,702)"/>
<path d="M0 0 C0 0.66 0 1.32 0 2 C-1.65 2.33 -3.3 2.66 -5 3 C-2.25 0 -2.25 0 0 0 Z M-6 4 C-7 7 -7 7 -9 8 C-10.13350534 10.01669827 -10.13350534 10.01669827 -11 12 C-11.33 10.35 -11.66 8.7 -12 7 C-8.25 4 -8.25 4 -6 4 Z " fill="#2A2A2A" transform="translate(613,475)"/>
<path d="M0 0 C-0.598125 0.28875 -1.19625 0.5775 -1.8125 0.875 C-4.19327792 2.04742026 -4.19327792 2.04742026 -7 4 C-9.6875 4.125 -9.6875 4.125 -12 4 C-9.8923766 -0.2152468 -4.26296995 -1.87570678 0 0 Z " fill="#BBBBBB" transform="translate(621,492)"/>
<path d="M0 0 C0.99 0.33 1.98 0.66 3 1 C3.33 2.65 3.66 4.3 4 6 C-0.75 4.125 -0.75 4.125 -3 3 C-2.01 2.01 -1.02 1.02 0 0 Z " fill="#494949" transform="translate(570,701)"/>
<path d="M0 0 C2.0625 0.4375 2.0625 0.4375 4 1 C3.484375 1.53625 2.96875 2.0725 2.4375 2.625 C0.67394455 5.00496499 0.67394455 5.00496499 1.3125 8.25 C1.539375 9.1575 1.76625 10.065 2 11 C0.5 9.9375 0.5 9.9375 -1 8 C-1.25 4.375 -1.25 4.375 -1 1 C-0.67 0.67 -0.34 0.34 0 0 Z " fill="#A1A1A1" transform="translate(678,617)"/>
<path d="M0 0 C0.66 0.33 1.32 0.66 2 1 C1.01 1.66 0.02 2.32 -1 3 C-0.01 4.485 -0.01 4.485 1 6 C0.34 7.32 -0.32 8.64 -1 10 C-2.85776765 6.86501708 -3.20140476 4.62528568 -3 1 C-2.01 0.67 -1.02 0.34 0 0 Z " fill="#494949" transform="translate(607,485)"/>
<path d="M0 0 C-0.33 0.66 -0.66 1.32 -1 2 C-4.96 2 -8.92 2 -13 2 C-13 1.67 -13 1.34 -13 1 C-11.39796533 0.63631108 -9.79325797 0.28438048 -8.1875 -0.0625 C-7.29417969 -0.25972656 -6.40085937 -0.45695312 -5.48046875 -0.66015625 C-3 -1 -3 -1 0 0 Z " fill="#131313" transform="translate(741,456)"/>
<path d="M0 0 C2.95409701 1.37154504 5.44008376 2.98863724 8 5 C7.67 5.66 7.34 6.32 7 7 C5.1875 6.875 5.1875 6.875 3 6 C1.25 2.9375 1.25 2.9375 0 0 Z " fill="#E5E5E5" transform="translate(421,617)"/>
<path d="M0 0 C-2.00773956 2.00773956 -3.36873617 2.99392854 -6 4 C-8.25 3.625 -8.25 3.625 -10 3 C-7.29536552 -0.8183075 -4.37912428 -0.24787496 0 0 Z " fill="#959595" transform="translate(618,489)"/>
<path d="M0 0 C-1.49097658 3.7952131 -3.75700849 5.61042731 -7 8 C-7 5 -7 5 -4.625 2.3125 C-2 0 -2 0 0 0 Z " fill="#787878" transform="translate(516,317)"/>
<path d="M0 0 C0.66 0.33 1.32 0.66 2 1 C-0.97 3.475 -0.97 3.475 -4 6 C-4.33 5.01 -4.66 4.02 -5 3 C-2.625 1.4375 -2.625 1.4375 0 0 Z " fill="#A9A9A9" transform="translate(679,611)"/>
<path d="M0 0 C2.50037734 2.17424117 3.43628586 3.73045798 4 7 C2.35 6.01 0.7 5.02 -1 4 C-0.67 2.68 -0.34 1.36 0 0 Z " fill="#292929" transform="translate(613,477)"/>
</svg>
