<?xml version="1.0" encoding="UTF-8"?>
<svg version="1.1" xmlns="http://www.w3.org/2000/svg" width="2468" height="1017">
<path d="M0 0 C814.44 0 1628.88 0 2468 0 C2468 335.61 2468 671.22 2468 1017 C1653.56 1017 839.12 1017 0 1017 C0 681.39 0 345.78 0 0 Z " fill="#000000" transform="translate(0,0)"/>
<path d="M0 0 C1.49869399 0.27996893 2.99739158 0.55991862 4.49609375 0.83984375 C39.62334649 7.85864928 75.37262959 25.31610576 103 48 C103.80147461 48.65718018 103.80147461 48.65718018 104.61914062 49.32763672 C115.38571449 58.19441478 126.06877632 67.2480333 135 78 C135.80695313 78.91910156 136.61390625 79.83820313 137.4453125 80.78515625 C172.77187291 121.1638636 195.62093953 175.12042801 197 229 C197.04084717 230.56621094 197.04084717 230.56621094 197.08251953 232.1640625 C198.47133448 295.75257069 178.55606267 358.47391589 135.05078125 405.765625 C133.13614309 407.85166886 131.28177042 409.97682046 129.4375 412.125 C122.60057255 419.93192631 115.11278582 426.54331258 107 433 C105.94964668 433.86352114 104.90019037 434.72813435 103.8515625 435.59375 C73.67697727 460.24101968 38.47643635 474.74451848 1 484 C0.30664551 484.1753125 -0.38670898 484.350625 -1.10107422 484.53125 C-45.72556507 495.21584365 -97.87915331 489.95764911 -140 472 C-140.62374512 471.73590332 -141.24749023 471.47180664 -141.89013672 471.19970703 C-180.57444247 454.72997083 -216.03429881 430.49337236 -242 397 C-243.16208984 395.56333984 -243.16208984 395.56333984 -244.34765625 394.09765625 C-261.94012127 371.98858373 -274.88021603 346.68149491 -284 320 C-284.27537598 319.20770996 -284.55075195 318.41541992 -284.83447266 317.59912109 C-305.59689086 256.88875901 -298.3888969 189.03811288 -270.55932617 131.97729492 C-260.64320545 112.07518885 -248.7563717 93.63186682 -233.3671875 77.484375 C-231.38077937 75.39962983 -229.5258046 73.27578215 -227.6875 71.0625 C-217.57714112 59.4941461 -205.40173647 49.9685872 -193 41 C-192.38576172 40.5555957 -191.77152344 40.11119141 -191.13867188 39.65332031 C-167.6935993 22.91235466 -141.19185407 10.74737316 -113.32226562 3.60400391 C-111.20873323 3.05428995 -109.11261224 2.46469985 -107.015625 1.85546875 C-73.26879231 -7.49142371 -34.11633534 -6.98935065 0 0 Z " fill="#FBFBFB" transform="translate(674,268)"/>
<path d="M0 0 C3.34524949 1.11508316 3.84221693 1.81291942 5.9375 4.5 C14.66774318 14.68528371 26.02229893 20.51733863 38 26 C38.96164062 26.44988281 39.92328125 26.89976562 40.9140625 27.36328125 C75.77697131 42.7853461 116.00217527 48.20347492 153.60595703 51.67529297 C156.59500878 51.96125462 159.57572793 52.28550389 162.55859375 52.62890625 C234.71384291 60.44336388 342.00259046 56.30033383 403 12 C407.58345759 8.24411114 411.83079439 4.20651393 416 0 C424.98509098 16.82314907 431.00731488 34.6538166 434.04956055 53.49194336 C434.6310796 57.36270496 434.6310796 57.36270496 436 61 C436.22209479 62.69536615 436.39201877 64.3977127 436.53515625 66.1015625 C436.66664063 67.66197266 436.66664063 67.66197266 436.80078125 69.25390625 C437.23399338 74.83393711 437.63260588 80.41526195 438 86 C438.06171387 86.85819336 438.12342773 87.71638672 438.18701172 88.60058594 C438.69451218 96.23092839 439.02061793 102.87061635 433.92578125 109.06640625 C414.99113432 128.07786716 386.3912393 136.54013123 361 143 C360.04577148 143.24459961 359.09154297 143.48919922 358.10839844 143.74121094 C331.19575029 150.49792867 303.45876141 154.12583892 275.875 156.875 C274.08400879 157.05518677 274.08400879 157.05518677 272.25683594 157.23901367 C268.8396021 157.55149481 265.42421214 157.77867779 262 158 C261.35405884 158.06803833 260.70811768 158.13607666 260.04260254 158.20617676 C255.58546728 158.67426055 251.4338863 158.89806181 247 158 C243.8046437 155.21011069 242.5864205 151.87126513 241 148 C239.89413766 145.9271759 238.76811027 143.865018 237.625 141.8125 C236.41427008 139.54294354 235.20604241 137.27205087 234 135 C233.34513059 133.77147509 232.68993211 132.54312555 232.03442383 131.31494141 C230.68698502 128.7901605 229.34046798 126.2648918 227.99462891 123.73925781 C219.4694055 107.74883513 210.86285572 91.80610674 202 76 C198.92254092 77.21465217 195.93823196 78.47647232 193 80 C193.54419012 84.39553713 194.60760803 87.62691409 196.73828125 91.5 C197.30490479 92.54043457 197.87152832 93.58086914 198.45532227 94.65283203 C199.06819092 95.75739746 199.68105957 96.86196289 200.3125 98 C201.27384056 99.75785887 202.23517887 101.51571898 203.1962738 103.27371216 C204.17132794 105.05368883 205.15041568 106.83138548 206.13085938 108.60839844 C208.30597156 112.55519292 210.46243596 116.5119051 212.61694336 120.4699707 C214.06146543 123.12309982 215.50885746 125.77464384 216.95703125 128.42578125 C220.39293745 134.71868725 223.82541107 141.01342685 227.25 147.3125 C227.82371338 148.3638916 228.39742676 149.4152832 228.98852539 150.49853516 C229.51309326 151.46452637 230.03766113 152.43051758 230.578125 153.42578125 C231.04637695 154.28598877 231.51462891 155.14619629 231.99707031 156.0324707 C233 158 233 158 233 159 C164.27704563 159.44032694 164.27704563 159.44032694 140 157 C139.32289978 156.9321228 138.64579956 156.86424561 137.94818115 156.79431152 C111.65347842 154.13335551 85.68747084 150.30486101 60 144 C59.03642578 143.76522949 58.07285156 143.53045898 57.08007812 143.28857422 C30.21838885 136.68794544 -2.73201521 128.40873874 -20 105 C-21.53272555 100.40182335 -22.06802042 95.4765015 -20.10546875 90.92578125 C-19.11508014 89.25646899 -18.06131613 87.62514033 -17 86 C-17 85.34 -17 84.68 -17 84 C-17.99 84 -18.98 84 -20 84 C-20.06616451 80.33154523 -20.04903459 76.66867893 -20 73 C-19.99613281 72.09378906 -19.99226563 71.18757813 -19.98828125 70.25390625 C-19.05001239 46.40893546 -9.87780604 21.52855163 0 0 Z " fill="#060606" transform="translate(416,412)"/>
<path d="M0 0 C0.09796875 0.58007812 0.1959375 1.16015625 0.296875 1.7578125 C1.67496293 8.95713392 3.85947537 13.67652618 9.9375 18.0625 C33.00739291 32.3367633 66.09076823 33.63827842 92 28 C110.35109526 23.24257197 110.35109526 23.24257197 124 11 C124.391875 10.38125 124.78375 9.7625 125.1875 9.125 C126.32778516 6.14271573 126.63546488 3.15930439 127 0 C133.20936029 1.23122954 139.07412164 2.9055255 145 5.125 C146.23375366 5.58676636 146.23375366 5.58676636 147.49243164 6.05786133 C173.23706868 15.87369942 196.78783016 30.23104229 216.921875 49.09765625 C219.03303502 51.07706329 219.03303502 51.07706329 221.56640625 53.0234375 C223.71370347 54.76747023 225.41563462 56.45357026 227.1875 58.5625 C230.05511267 61.92366692 233.00331794 65.19071549 236 68.4375 C245.86375594 79.29820524 245.86375594 79.29820524 248 83 C247.67 83.99 247.34 84.98 247 86 C247.53109375 86.43570313 248.0621875 86.87140625 248.609375 87.3203125 C258.39600799 95.57108703 258.39600799 95.57108703 259.375 101.12890625 C259.67039395 106.58446326 258.49723278 110.73625045 255 115 C237.71828787 134.17993222 207.94415407 140.93348337 184 147 C183.08089844 147.23315918 182.16179687 147.46631836 181.21484375 147.70654297 C133.63096076 159.48996086 84.73311373 160.57250093 36 160 C35.70114395 159.42472565 35.4022879 158.84945129 35.09437561 158.25674438 C29.6937377 147.87233486 24.28939027 137.51365046 18.4375 127.375 C14.07151943 119.7332423 9.8664463 112.03492051 5.81933594 104.22021484 C1.93055175 96.75910218 -2.23040627 89.45773648 -6.44726562 82.17773438 C-14.3180592 68.46006557 -14.3180592 68.46006557 -16 63 C-14.4375 59.625 -14.4375 59.625 -12 57 C-9.36360578 52.25449041 -9.27896227 47.28505311 -10 42 C-12.13625333 34.93791981 -15.57367057 30.87780639 -21.81640625 27.05859375 C-27.24513016 24.42677947 -33.34343213 24.11197637 -39.1875 25.53125 C-45.61545139 27.77129367 -49.50446866 30.71607691 -52.8125 36.75 C-55.9974385 43.65405972 -55.63535605 48.54408117 -53.4375 55.625 C-51.39368259 60.86910089 -48.74318197 64.01470784 -44 67 C-43.40058594 67.37769531 -42.80117188 67.75539063 -42.18359375 68.14453125 C-38.36093959 69.64213637 -34.25055537 69.13616196 -30.19140625 69.0703125 C-26.0329952 70.28169785 -25.27937523 71.88231493 -23.25366211 75.56542969 C-22.63309937 76.77054199 -22.63309937 76.77054199 -22 78 C-21.53924072 78.83692383 -21.07848145 79.67384766 -20.60375977 80.53613281 C-19.0459596 83.36625218 -17.52143717 86.21268022 -16 89.0625 C-11.53623354 97.37100779 -6.98396151 105.61902615 -2.3125 113.8125 C2.14824487 121.64180737 6.44361495 129.53524863 10.59204102 137.53417969 C13.48503471 143.09267559 16.56131639 148.4935912 19.8203125 153.84765625 C21 156 21 156 21 158 C12.83038108 158.18501905 4.86756387 157.64918154 -3.25 156.75 C-4.47581787 156.61505127 -5.70163574 156.48010254 -6.96459961 156.34106445 C-18.40941738 155.03149535 -29.7031034 153.24264318 -41 151 C-42.04978027 150.79536133 -43.09956055 150.59072266 -44.18115234 150.37988281 C-72.85786299 144.70141029 -110.39098143 137.01104314 -130 113 C-132.70600959 108.52361804 -132.88688519 104.0919443 -132 99 C-129.9133637 95.02997119 -127.05590386 91.99556649 -123.8125 88.9375 C-121.78587194 87.01249469 -121.78587194 87.01249469 -120.8125 83.9375 C-116.72214817 73.65693657 -106.53223924 65.00444384 -99 57 C-98.38382812 56.34128906 -97.76765625 55.68257813 -97.1328125 55.00390625 C-92.16112814 49.85381216 -86.59710844 45.44691731 -81 41 C-80.05640625 40.22785156 -79.1128125 39.45570313 -78.140625 38.66015625 C-58.72749875 23.14474317 -36.59339278 11.52449401 -13.375 2.8125 C-12.59946777 2.52068848 -11.82393555 2.22887695 -11.02490234 1.92822266 C-7.23088232 0.56989071 -4.09326006 -0.3640251 0 0 Z " fill="#020202" transform="translate(561,290)"/>
<path d="M0 0 C-0.52272729 6.86399419 -1.59590023 13.38420639 -3.25 20.0625 C-3.47324951 20.97370605 -3.69649902 21.88491211 -3.92651367 22.82373047 C-4.60413918 25.55281062 -5.2976186 28.2771944 -6 31 C-6.19609863 31.76328613 -6.39219727 32.52657227 -6.59423828 33.31298828 C-9.65939718 45.01031166 -14.11312777 55.95300099 -19 67 C-19.66 67 -20.32 67 -21 67 C-21.66 68.98 -22.32 70.96 -23 73 C-23.66 73 -24.32 73 -25 73 C-24.67 73.99 -24.34 74.98 -24 76 C-25.75 79.1875 -25.75 79.1875 -28 82 C-28.99 82 -29.98 82 -31 82 C-30.94457031 82.89074219 -30.88914062 83.78148437 -30.83203125 84.69921875 C-31.12156963 90.3889845 -34.24381224 93.89670578 -38 98 C-55.5824472 112.70793267 -78.68039313 120.29270251 -100.5 126.0625 C-101.66362061 126.37380859 -102.82724121 126.68511719 -104.02612305 127.00585938 C-105.12093994 127.28365234 -106.21575684 127.56144531 -107.34375 127.84765625 C-108.31505859 128.09523682 -109.28636719 128.34281738 -110.28710938 128.59790039 C-113.22623978 129.03353284 -115.17241091 128.88796114 -118 128 C-119.70779973 126.37550757 -121.37550757 124.70779973 -123 123 C-126.38549252 120.77988399 -128.78768268 121.02416844 -132.75 121.25 C-135.82055664 121.02124023 -135.82055664 121.02124023 -139 120 C-141.0769043 117.32739258 -141.0769043 117.32739258 -142.88671875 113.83203125 C-143.21925156 113.20716324 -143.55178436 112.58229523 -143.89439392 111.93849182 C-144.59393849 110.62335378 -145.28520667 109.30378341 -145.96856689 107.98016357 C-147.27433338 105.47332991 -148.64871469 103.00862661 -150.02963257 100.54263306 C-151.38323876 98.12418506 -152.71852148 95.6958016 -154.05493164 93.26782227 C-155.06460316 91.43367946 -156.07612425 89.60056602 -157.08789062 87.76757812 C-161.44202699 79.87168258 -165.74026636 71.94723946 -170 64 C-175.58500567 64.19898708 -175.58500567 64.19898708 -180 67 C-179.82428223 72.59786607 -177.17842942 76.57272606 -174.3125 81.1875 C-170.9060752 86.76779589 -167.66079963 92.39723613 -164.55493164 98.15112305 C-162.99165482 101.01528967 -161.38004453 103.84689957 -159.75390625 106.67578125 C-158.69010417 108.5546875 -157.62630208 110.43359375 -156.5625 112.3125 C-156.00884766 113.26189453 -155.45519531 114.21128906 -154.88476562 115.18945312 C-151.02805385 122.07197862 -151.02805385 122.07197862 -150.90234375 126.23046875 C-151.26457031 127.14441406 -151.62679688 128.05835938 -152 129 C-152.41636719 130.24007812 -152.83273437 131.48015625 -153.26171875 132.7578125 C-154.82161978 135.30324598 -155.73021079 135.91549257 -158.61572266 136.81933594 C-162.01745908 137.34284205 -165.37860834 137.64371126 -168.8125 137.875 C-169.95654297 137.978125 -171.10058594 138.08125 -172.27929688 138.1875 C-175.85093923 138.49929418 -179.42346142 138.75084069 -183 139 C-184.15208954 139.08660385 -185.30417908 139.1732077 -186.49118042 139.26243591 C-195.04334658 139.88092093 -203.54017737 140.15999981 -212.11328125 140.16796875 C-214.05318184 140.17296135 -214.05318184 140.17296135 -216.03227234 140.17805481 C-218.75239903 140.18397977 -221.47249429 140.18590195 -224.19262695 140.18530273 C-226.91958328 140.18522204 -229.64636956 140.19208512 -232.37329102 140.20581055 C-256.82198685 140.32669227 -280.89682876 138.9758091 -305.125 135.6875 C-306.33160782 135.52601471 -306.33160782 135.52601471 -307.56259155 135.36126709 C-396.55668535 123.37580307 -396.55668535 123.37580307 -420.87890625 93.640625 C-423.15002124 90.31704208 -424.06207991 88.682879 -423.6875 84.5625 C-423.58661157 81.08447733 -423.58661157 81.08447733 -425.41015625 79.71875 C-426.66896916 78.92764889 -427.93084898 78.14141268 -429.1953125 77.359375 C-431.77461263 75.41652555 -432.72796839 73.24346675 -433.9753418 70.31860352 C-435.0109834 67.97514668 -436.15884178 65.72252336 -437.33984375 63.44921875 C-446.43270281 45.32166036 -455.47920394 21.49677414 -455 1 C-454.08734375 1.51046875 -454.08734375 1.51046875 -453.15625 2.03125 C-420.32119855 20.18710198 -386.27549255 30.57257885 -349.22509766 36.48046875 C-345.68186165 37.05124893 -342.14400281 37.65078705 -338.60546875 38.25 C-324.73294674 40.55649914 -310.88315456 42.48139857 -296.875 43.75 C-295.60994629 43.86545166 -294.34489258 43.98090332 -293.04150391 44.09985352 C-271.47714371 45.92760002 -249.88244691 46.27737568 -228.25 46.3125 C-227.19584585 46.31466774 -227.19584585 46.31466774 -226.12039566 46.31687927 C-189.21913782 46.37785784 -152.41765331 44.23405642 -116 38 C-114.845 37.80792969 -113.69 37.61585938 -112.5 37.41796875 C-104.31224473 36.05040187 -96.15227069 34.56437494 -88 33 C-87.08186523 32.82952148 -86.16373047 32.65904297 -85.21777344 32.48339844 C-57.73186305 27.29173005 -25.12289548 18.38615382 -2.6171875 1.21484375 C-1 0 -1 0 0 0 Z " fill="#010101" transform="translate(852,541)"/>
<path d="M0 0 C0.81726562 0.64324219 1.63453125 1.28648437 2.4765625 1.94921875 C19.24576848 15.9927798 29.43892047 37.45965308 31.77842712 59.03462219 C32.28040337 65.75272443 32.21003023 72.50443676 32.23828125 79.23828125 C32.24235678 80.06560446 32.2464323 80.89292767 32.25063133 81.74532127 C32.27140679 86.13205073 32.28574018 90.51874977 32.29516602 94.90551758 C32.30398504 98.49065355 32.32477353 102.07539678 32.35668945 105.66040039 C32.76185139 152.22240174 32.76185139 152.22240174 24.1875 169.625 C23.84130615 170.36169922 23.4951123 171.09839844 23.13842773 171.85742188 C20.32666735 177.6827467 17.11672735 182.99483363 13 188 C12.33484375 188.82628906 11.6696875 189.65257812 10.984375 190.50390625 C-2.61973621 206.53033223 -22.18475052 216.43866976 -43.13671875 218.27490234 C-65.55364495 219.45875481 -87.21750008 215.87182246 -104.859375 200.95703125 C-105.91898438 199.98830078 -105.91898438 199.98830078 -107 199 C-107.89203125 198.19949219 -108.7840625 197.39898438 -109.703125 196.57421875 C-123.58087946 183.47377021 -130.08715667 167.37659321 -134.984375 149.296875 C-135.15678711 148.66104492 -135.32919922 148.02521484 -135.50683594 147.37011719 C-137.29286679 138.78655899 -137.16359519 130.19377719 -137.16796875 121.46875 C-137.17119018 119.94909638 -137.17455489 118.42944305 -137.17805481 116.90979004 C-137.18402279 113.72924076 -137.18589732 110.54871854 -137.18530273 107.36816406 C-137.1852017 103.33877077 -137.19880322 99.30955601 -137.21607494 95.28020477 C-137.22732745 92.13988487 -137.22921787 88.99960617 -137.22869301 85.85926819 C-137.22985525 84.37646373 -137.23417519 82.89365755 -137.24202538 81.41087341 C-137.36803972 55.13270666 -132.30919953 28.95457693 -114 9 C-113.33613281 8.24460937 -112.67226562 7.48921875 -111.98828125 6.7109375 C-84.00117695 -23.3971858 -31.597341 -25.61217914 0 0 Z " fill="#000000" transform="translate(1251,407)"/>
<path d="M0 0 C0.66257812 0.16628906 1.32515625 0.33257812 2.0078125 0.50390625 C31.70697783 8.24403621 55.23584748 26.67967319 70.79077148 52.99121094 C93.20862862 92.8294745 94.46242463 141.86368385 88 186 C87.89848633 186.76022461 87.79697266 187.52044922 87.69238281 188.30371094 C84.49553007 212.00528935 74.29289882 238.26176338 58 256 C57.34 256.79921875 56.68 257.5984375 56 258.421875 C43.2842067 273.4751303 26.68431663 283.14645185 8 289 C6.82050781 289.37125 5.64101562 289.7425 4.42578125 290.125 C-1.40551322 291.87987232 -5.83110732 293 -12 293 C-12 304.55 -12 316.1 -12 328 C2.52 328 17.04 328 32 328 C32 337.57 32 347.14 32 357 C25.52579325 357.06925657 19.05289672 357.12887457 12.57861328 357.16479492 C10.38097757 357.1797854 8.18337129 357.20018466 5.98583984 357.22631836 C-24.54310572 357.58001582 -24.54310572 357.58001582 -35 349 C-42.67668813 341.14884169 -45.167891 333.2480433 -45.09765625 322.515625 C-45.0962413 321.70003113 -45.09482635 320.88443726 -45.09336853 320.04412842 C-45.08778303 317.44604788 -45.07523321 314.84805437 -45.0625 312.25 C-45.05748312 310.48567833 -45.05292054 308.72135531 -45.04882812 306.95703125 C-45.03781835 302.63798744 -45.02056369 298.31900846 -45 294 C-45.74733398 293.9575415 -46.49466797 293.91508301 -47.26464844 293.87133789 C-54.19628038 293.39832893 -60.58950451 292.39948161 -67.25 290.4375 C-68.14823486 290.17573975 -69.04646973 289.91397949 -69.97192383 289.64428711 C-87.10010829 284.41629151 -101.02144511 275.22896839 -114 263 C-115.01707031 262.09701172 -115.01707031 262.09701172 -116.0546875 261.17578125 C-131.53419458 246.84635803 -140.14551934 225.80548792 -146 206 C-146.38027344 204.7521875 -146.76054688 203.504375 -147.15234375 202.21875 C-160.42100613 154.5517063 -156.27834042 94.25115497 -132.05908203 50.78857422 C-118.07091018 27.16539603 -95.42226646 8.72378478 -68.83984375 1.55859375 C-46.55968941 -4.0832465 -22.45955536 -5.70472706 0 0 Z M-87 48 C-87.76054688 48.66644531 -88.52109375 49.33289063 -89.3046875 50.01953125 C-107.44871933 66.9393118 -115.26593265 91.76745424 -116.19448853 116.015625 C-116.27723393 120.11591673 -116.30531877 124.2116042 -116.30078125 128.3125 C-116.30468719 129.82072055 -116.30902559 131.32894004 -116.31376648 132.8371582 C-116.3211486 135.96992591 -116.32099566 139.10258075 -116.31567383 142.23535156 C-116.30987575 146.20184637 -116.32685774 150.16787473 -116.3500185 154.1342926 C-116.36491645 157.2403014 -116.36560626 160.34620178 -116.36250877 163.45223999 C-116.3630135 164.91271898 -116.36808643 166.37320547 -116.37832069 167.83364868 C-116.46182663 181.40470642 -114.68452442 194.43666476 -110.1875 207.3125 C-109.92960693 208.06394287 -109.67171387 208.81538574 -109.40600586 209.58959961 C-102.16382896 230.02374791 -87.47334935 246.51857539 -68 256 C-46.6977089 265.4218499 -21.80971916 266.42704274 0 258 C20.01040126 249.85783673 34.27032513 236.21991702 44 217 C44.48339844 216.05769531 44.96679688 215.11539063 45.46484375 214.14453125 C55.07463149 193.43529262 53.5618495 170.40436469 53.39123535 148.16833496 C53.36951531 144.59857199 53.37030136 141.02896225 53.37151146 137.45914459 C53.3709644 133.98270456 53.35994711 130.50636076 53.34550858 127.029953 C53.33921751 125.38755516 53.33522008 123.74514663 53.33372116 122.10273743 C53.3160819 112.89424183 52.8859081 104.05072543 51 95 C50.7130275 93.50611755 50.7130275 93.50611755 50.42025757 91.98205566 C46.76384411 73.66131027 34.28795073 54.31086382 19.3125 43.3125 C10.33133486 37.40420629 0.52815214 32.37301207 -10 30 C-10.87398437 29.79632813 -11.74796875 29.59265625 -12.6484375 29.3828125 C-38.75769157 24.16096169 -66.98132909 30.12854626 -87 48 Z " fill="#FDFDFD" transform="translate(1230,362)"/>
<path d="M0 0 C11.22 0 22.44 0 34 0 C34.33 63.36 34.66 126.72 35 192 C44.77579808 181.61896816 44.77579808 181.61896816 54.23046875 171.01953125 C57.07704758 167.77078675 60.01788342 164.60806769 62.94506836 161.43212891 C65.59209304 158.55435203 68.19693765 155.64882232 70.75 152.6875 C73.42196583 149.60201565 76.24584716 146.73069865 79.15795898 143.87304688 C80.93190604 142.06924014 82.58965723 140.21131839 84.23828125 138.29296875 C87.94716155 134.02751144 91.79735511 129.91233052 95.6875 125.8125 C101.44988777 119.71440036 107.17941676 113.58927031 112.86328125 107.41796875 C113.33934814 106.9276416 113.81541504 106.43731445 114.3059082 105.93212891 C116.16150186 103.89316153 116.16150186 103.89316153 118.07495117 100.97021484 C121.09641582 96.79754487 124.07912103 92.82656364 129.21517944 91.37313843 C135.36582606 90.51113743 141.50965953 90.90342626 147.6875 91.25 C149.56428134 91.31029559 151.44125 91.36503047 153.31835938 91.4140625 C157.88359111 91.54530278 162.43969893 91.75169041 167 92 C165.1523556 96.02750999 162.4726113 98.71330418 159.3125 101.75 C155.2106045 105.76403696 151.29750747 109.83464619 147.57421875 114.20703125 C145.41419977 116.66720175 143.08069726 118.92964924 140.74609375 121.22265625 C138.93522357 123.06593574 137.24678646 124.97822799 135.5625 126.9375 C133.14382221 129.74576347 130.64100317 132.39970593 128 135 C125.37959391 137.58009215 122.89676588 140.21103607 120.5 143 C117.48237647 146.51141648 114.26640919 149.75307402 110.96875 153 C108.45084396 155.5578728 106.13353196 158.26184809 103.796875 160.984375 C101.25654563 163.83396186 98.53890811 166.48633695 95.796875 169.140625 C93.96485292 171.03636959 92.35382266 172.73190749 91 175 C91.38699528 179.07731299 93.92258378 182.16470257 96.1796875 185.44140625 C96.83902786 186.41419273 96.83902786 186.41419273 97.51168823 187.40663147 C98.48251745 188.83849637 99.45575361 190.26873145 100.43103027 191.6975708 C102.63286202 194.92871136 104.81507621 198.17294918 106.99899292 201.41621399 C108.78954042 204.07444677 110.58261489 206.73095773 112.37646484 209.38696289 C131.28096404 237.37809496 131.28096404 237.37809496 139.375 249.5625 C145.93091587 259.42852396 152.55307941 269.24917794 159.1875 279.0625 C159.6905365 279.80718536 160.193573 280.55187073 160.71185303 281.31912231 C162.15451831 283.45433918 163.59851697 285.58864763 165.04296875 287.72265625 C165.46939163 288.35393433 165.89581451 288.9852124 166.3351593 289.63562012 C168.4410481 292.7431221 170.58702371 295.80458431 172.80981445 298.82983398 C175 302 175 302 175 304 C169.48724033 304.37351916 163.98194826 304.64405034 158.45947266 304.82397461 C156.586423 304.89899339 154.71424007 305.00106928 152.84423828 305.1315918 C137.79173453 306.15516205 137.79173453 306.15516205 133.22451782 302.62936401 C130.06613553 299.10843817 127.9352078 295.09811841 125.90576172 290.85116577 C124.72927652 288.44670433 123.28979626 286.27955755 121.77734375 284.07421875 C120.82992032 282.61250311 119.88331401 281.15025754 118.9375 279.6875 C113.85112216 271.84247397 108.74399381 264.01128209 103.625 256.1875 C96.34364293 245.0568307 89.07021187 233.92104999 81.80957031 222.77685547 C80.5749968 220.88235477 79.33995048 218.98816211 78.10449219 217.09423828 C76.27698104 214.29265145 74.45082912 211.49018323 72.625 208.6875 C72.07102539 207.83881348 71.51705078 206.99012695 70.94628906 206.11572266 C70.4406543 205.33890137 69.93501953 204.56208008 69.4140625 203.76171875 C68.74818115 202.740177 68.74818115 202.740177 68.06884766 201.69799805 C67 200 67 200 66 198 C61.66729039 199.66561586 58.86476001 202.87446792 55.6875 206.125 C55.10790527 206.71104004 54.52831055 207.29708008 53.93115234 207.90087891 C50.36836714 211.52766026 46.89411701 215.2012952 43.68275452 219.14707947 C42 221 42 221 40.19529724 222.26905823 C36.55475226 224.97244461 35.16490287 227.08979015 34.34768677 231.60055542 C34.00125577 236.23976733 34.05541579 240.8785667 34.09765625 245.52734375 C34.08826491 247.24371733 34.07580325 248.96007662 34.06040955 250.67640686 C34.02824859 255.17624044 34.037602 259.67505256 34.05578613 264.17492676 C34.06696234 268.77363161 34.038623 273.37207749 34.01367188 277.97070312 C33.97057807 286.98065092 33.97136713 295.99001448 34 305 C29.31860746 305.02465288 24.63725241 305.04283739 19.95581055 305.05493164 C18.36205386 305.05997157 16.76830181 305.0668035 15.17456055 305.07543945 C12.88849747 305.08751999 10.60249533 305.09323155 8.31640625 305.09765625 C7.59973282 305.10281754 6.88305939 305.10797882 6.14466858 305.11329651 C4.42936328 305.11349263 2.71418734 305.06192007 1 305 C0 304 0 304 -0.1241985 301.92654461 C-0.12381878 301.00344448 -0.12343906 300.08034436 -0.12304783 299.12927151 C-0.12503888 298.0683282 -0.12702993 297.0073849 -0.12908131 295.9142918 C-0.12616847 294.73435636 -0.12325563 293.55442092 -0.12025452 292.33872986 C-0.12110894 291.09647552 -0.12196337 289.85422117 -0.12284368 288.57432276 C-0.12421194 285.11048283 -0.1210642 281.64669871 -0.11606562 278.1828655 C-0.11176463 274.45346854 -0.11320729 270.72407343 -0.1139679 266.99467468 C-0.11449336 260.52801539 -0.11134427 254.06136616 -0.10573006 247.5947094 C-0.09761802 238.24490149 -0.09500014 228.89509848 -0.09374207 219.54528744 C-0.09155108 204.37743821 -0.08488973 189.20959436 -0.07543945 174.04174805 C-0.06626654 159.30379259 -0.05918512 144.56583859 -0.05493164 129.82788086 C-0.05466892 128.92009693 -0.05440619 128.012313 -0.05413551 127.07702046 C-0.05283051 122.52313344 -0.05156679 117.96924641 -0.05032361 113.41535938 C-0.03994954 75.61023564 -0.02205558 37.80511859 0 0 Z " fill="#FBFBFB" transform="translate(1682,347)"/>
<path d="M0 0 C3.8726318 3.5216206 7.30072314 7.35675264 10.62890625 11.390625 C9.27185346 14.45244667 7.77215101 16.45954195 5.328125 18.73828125 C4.68037109 19.34349609 4.03261719 19.94871094 3.36523438 20.57226562 C2.68912109 21.19294922 2.01300781 21.81363281 1.31640625 22.453125 C0.65189453 23.07767578 -0.01261719 23.70222656 -0.69726562 24.34570312 C-4.0694405 27.47105214 -7.27439865 30.22737981 -11.37109375 32.390625 C-11.89316406 31.74996094 -12.41523437 31.10929687 -12.953125 30.44921875 C-23.10546484 18.51888594 -37.5562474 9.88478443 -53.26953125 7.63671875 C-68.29913217 6.44419374 -83.07683155 6.44772869 -95.984375 15.28515625 C-101.37896288 20.04404801 -105.11005021 26.62047165 -105.609375 33.83203125 C-105.85750805 42.92544283 -105.78152645 51.00480814 -99.74609375 58.375 C-87.37416321 70.43763227 -67.53708966 71.67935797 -51.30078125 73.8515625 C-30.18705803 76.80554671 -7.11265195 83.30763132 6.31640625 100.953125 C15.77313055 115.57200615 17.07525924 132.73046193 14.22973633 149.78271484 C10.36433205 165.99321803 1.51531312 179.45306248 -12.43359375 188.515625 C-27.95533483 197.69724988 -44.74479493 200.93129653 -62.62109375 200.640625 C-63.905 200.63546875 -65.18890625 200.6303125 -66.51171875 200.625 C-94.8662885 200.39258549 -118.32232992 190.58062418 -138.43359375 170.578125 C-144.85552916 164.04030504 -144.85552916 164.04030504 -147.37109375 160.390625 C-146.17046283 156.78873223 -144.97294738 156.04756643 -141.99609375 153.765625 C-138.03636472 150.68710734 -134.12190559 147.57361037 -130.24609375 144.390625 C-129.31539062 143.6275 -128.3846875 142.864375 -127.42578125 142.078125 C-126.74773437 141.52125 -126.0696875 140.964375 -125.37109375 140.390625 C-122.47324427 141.69182772 -120.52077365 143.03343935 -118.375 145.3671875 C-117.82312012 145.95185791 -117.27124023 146.53652832 -116.70263672 147.13891602 C-116.11885254 147.75822998 -115.53506836 148.37754395 -114.93359375 149.015625 C-102.22887661 162.06834815 -85.77351042 170.99301887 -67.29296875 171.69140625 C-52.47755604 171.85973107 -38.16944634 171.6044092 -26.37109375 161.390625 C-19.58108727 153.75493179 -16.89772066 146.40790513 -17.12109375 136.23046875 C-17.76971059 128.86258683 -19.98845486 121.65681257 -25.37109375 116.390625 C-36.05970288 108.2366309 -48.6549122 105.92449083 -61.66537476 104.29623413 C-87.62128627 100.99415178 -112.89826054 95.39707495 -130.24609375 74.140625 C-136.65804826 64.35888418 -138.55054806 52.61996053 -138.55859375 41.203125 C-138.57083984 40.30787109 -138.58308594 39.41261719 -138.59570312 38.49023438 C-138.62873457 23.24071591 -133.66758699 9.02650451 -122.93359375 -2.046875 C-90.68982619 -33.10528638 -32.25166391 -26.97578717 0 0 Z " fill="#FCFCFC" transform="translate(1609.37109375,455.609375)"/>
<path d="M0 0 C9.9 0 19.8 0 30 0 C30 19.47 30 38.94 30 59 C45.51 59 61.02 59 77 59 C77 68.57 77 78.14 77 88 C61.49 88 45.98 88 30 88 C30 138.82 30 189.64 30 242 C44.19 242 58.38 242 73 242 C73 251.57 73 261.14 73 271 C65.81265344 271.13841538 58.63000471 271.25765608 51.44238281 271.32958984 C49.00211849 271.35960103 46.56196056 271.40042372 44.12207031 271.45263672 C17.44651809 272.0088318 17.44651809 272.0088318 6.68066406 263.07543945 C-0.88028287 255.66263019 -3.13844778 245.88346552 -3.48101807 235.55229187 C-3.50738779 232.79935166 -3.48303779 230.04848502 -3.45410156 227.2956543 C-3.4529703 225.7666629 -3.45361236 224.23766934 -3.45587158 222.7086792 C-3.45700882 218.59988036 -3.43366224 214.49155848 -3.40557575 210.38286948 C-3.3803949 206.07345296 -3.37820705 201.76402282 -3.37347412 197.45454407 C-3.36109298 189.31274185 -3.32833795 181.17115713 -3.28807616 173.02945024 C-3.24320617 163.75245162 -3.2213333 154.47544205 -3.20129442 145.19836175 C-3.15960035 126.1320932 -3.0863096 107.06612239 -3 88 C-14.55 88 -26.1 88 -38 88 C-38 78.43 -38 68.86 -38 59 C-24.875 58.6875 -24.875 58.6875 -20.76904297 58.61206055 C-19.68768066 58.57894775 -18.60631836 58.54583496 -17.4921875 58.51171875 C-15.84259033 58.47244263 -15.84259033 58.47244263 -14.15966797 58.43237305 C-9.71437302 57.82407314 -6.2706451 56.3582758 -3.1875 53.0625 C-1.16200781 49.54453987 -0.8701679 46.24320845 -0.79467773 42.23144531 C-0.77473251 41.29077209 -0.75478729 40.35009888 -0.73423767 39.38092041 C-0.71752518 38.37349792 -0.70081268 37.36607544 -0.68359375 36.328125 C-0.66281265 35.29057068 -0.64203156 34.25301636 -0.62062073 33.184021 C-0.55528592 29.87274742 -0.49631483 26.56139518 -0.4375 23.25 C-0.39429951 21.00389815 -0.35068473 18.75780422 -0.30664062 16.51171875 C-0.1988421 11.00789193 -0.09964877 5.50400457 0 0 Z " fill="#FDFDFD" transform="translate(2017,380)"/>
<path d="M0 0 C-0.52272729 6.86399419 -1.59590023 13.38420639 -3.25 20.0625 C-3.47324951 20.97370605 -3.69649902 21.88491211 -3.92651367 22.82373047 C-4.60413918 25.55281062 -5.2976186 28.2771944 -6 31 C-6.19609863 31.76328613 -6.39219727 32.52657227 -6.59423828 33.31298828 C-9.65939718 45.01031166 -14.11312777 55.95300099 -19 67 C-19.66 67 -20.32 67 -21 67 C-21.66 68.98 -22.32 70.96 -23 73 C-23.66 73 -24.32 73 -25 73 C-24.67 73.99 -24.34 74.98 -24 76 C-25.75 79.1875 -25.75 79.1875 -28 82 C-28.99 82 -29.98 82 -31 82 C-30.94457031 82.89074219 -30.88914062 83.78148437 -30.83203125 84.69921875 C-31.12156963 90.3889845 -34.24381224 93.89670578 -38 98 C-55.5824472 112.70793267 -78.68039313 120.29270251 -100.5 126.0625 C-102.24543091 126.52946289 -102.24543091 126.52946289 -104.02612305 127.00585938 C-105.12093994 127.28365234 -106.21575684 127.56144531 -107.34375 127.84765625 C-108.31505859 128.09523682 -109.28636719 128.34281738 -110.28710938 128.59790039 C-113.22623978 129.03353284 -115.17241091 128.88796114 -118 128 C-119.70779973 126.37550757 -121.37550757 124.70779973 -123 123 C-126.38549252 120.77988399 -128.78768268 121.02416844 -132.75 121.25 C-135.81860352 121.02490234 -135.81860352 121.02490234 -139 120 C-141.09448242 117.29443359 -141.09448242 117.29443359 -142.91796875 113.7734375 C-143.25215317 113.14547272 -143.58633759 112.51750793 -143.9306488 111.87051392 C-144.62674044 110.56186369 -145.31461245 109.24881016 -145.9944458 107.93164062 C-147.51584416 105.00907825 -149.13948329 102.14540651 -150.75390625 99.2734375 C-152.02510184 96.97487799 -153.29458533 94.67537093 -154.5625 92.375 C-154.89750519 91.76746887 -155.23251038 91.15993774 -155.57766724 90.53399658 C-160.91828547 80.84339792 -166.20093779 71.12219775 -171.4375 61.375 C-171.76436798 60.76823425 -172.09123596 60.16146851 -172.42800903 59.53631592 C-173.34913701 57.82508663 -174.26645663 56.11180901 -175.18359375 54.3984375 C-175.70493896 53.42567871 -176.22628418 52.45291992 -176.76342773 51.45068359 C-178 49 -178 49 -179 46 C-171.52082585 44.48808093 -164.09660622 43.71850518 -156.5 43.125 C-133.47432552 41.26076448 -110.67212528 37.35065345 -88 33 C-87.08186523 32.82952148 -86.16373047 32.65904297 -85.21777344 32.48339844 C-57.73186305 27.29173005 -25.12289548 18.38615382 -2.6171875 1.21484375 C-1 0 -1 0 0 0 Z " fill="#000000" transform="translate(852,541)"/>
<path d="M0 0 C1.5846187 0.41175131 3.16759702 0.8298139 4.75 1.25 C6.07257813 1.59804688 6.07257813 1.59804688 7.421875 1.953125 C10.54276536 2.86622393 13.5961103 3.87763617 16.671875 4.9296875 C49.29805076 15.8687566 84.82519166 19.62878317 119 22 C119.91958496 22.07057617 120.83916992 22.14115234 121.78662109 22.21386719 C154.22509582 24.69549913 187.49073803 23.51312345 219.8359375 20.5 C220.68736328 20.42233398 221.53878906 20.34466797 222.41601562 20.26464844 C224.20991833 20.08091917 226.00051112 19.86292928 227.78710938 19.61816406 C228.67978516 19.50182617 229.57246094 19.38548828 230.4921875 19.265625 C231.29253418 19.14993164 232.09288086 19.03423828 232.91748047 18.91503906 C235 19 235 19 237.75 21.75 C238.86375 23.35875 238.86375 23.35875 240 25 C246.42061599 28.97466704 252.66580766 28.76077287 260 28 C265.44351635 26.35579796 268.79214753 22.49099346 272 18 C272.24363281 17.15179687 272.48726562 16.30359375 272.73828125 15.4296875 C274 13 274 13 276.7734375 11.84765625 C277.96195313 11.58855469 279.15046875 11.32945312 280.375 11.0625 C281.73001938 10.74581415 283.08414496 10.42528705 284.4375 10.1015625 C285.53384766 9.84487793 285.53384766 9.84487793 286.65234375 9.58300781 C290.93704001 8.51896302 295.15153078 7.21986437 299.375 5.9375 C300.19403809 5.69201416 301.01307617 5.44652832 301.85693359 5.19360352 C306.65204198 3.74751354 311.37757716 2.19055601 316.07666016 0.45532227 C318 0 318 0 321 1 C295.57486439 25.55441178 257.98916716 52.87816376 222 57 C222.0721875 56.24074219 222.144375 55.48148438 222.21875 54.69921875 C222.3115625 53.70535156 222.404375 52.71148438 222.5 51.6875 C222.5928125 50.70136719 222.685625 49.71523438 222.78125 48.69921875 C223.04038857 45.95297861 223.04038857 45.95297861 223 43 C215.08 43.495 215.08 43.495 207 44 C206.67 46.31 206.34 48.62 206 51 C199.95516853 59.32259406 187.57763635 62.76989658 177.9921875 64.5625 C159.86841002 66.95344167 136.58206286 67.31608401 120.92578125 56.5 C115.88082365 52.57045899 115.88082365 52.57045899 114 50 C114 47.69 114 45.38 114 43 C108.72 42.67 103.44 42.34 98 42 C97.979375 43.7325 97.95875 45.465 97.9375 47.25 C97.92589844 48.22453125 97.91429687 49.1990625 97.90234375 50.203125 C97.98804423 52.65758678 98.29293934 54.66168914 99 57 C65.67063523 52.36513521 22.30164101 27.95929672 1.08984375 1.62890625 C0.73019531 1.09136719 0.37054688 0.55382812 0 0 Z " fill="#070707" transform="translate(464,674)"/>
<path d="M0 0 C10.89 0 21.78 0 33 0 C33 70.29 33 140.58 33 213 C22.11 213 11.22 213 0 213 C0 142.71 0 72.42 0 0 Z " fill="#FCFCFC" transform="translate(1899,439)"/>
<path d="M0 0 C10.89 0 21.78 0 33 0 C33 70.29 33 140.58 33 213 C22.11 213 11.22 213 0 213 C0 142.71 0 72.42 0 0 Z " fill="#FCFCFC" transform="translate(1379,439)"/>
<path d="M0 0 C-0.52272729 6.86399419 -1.59590023 13.38420639 -3.25 20.0625 C-3.47324951 20.97370605 -3.69649902 21.88491211 -3.92651367 22.82373047 C-4.60413918 25.55281062 -5.2976186 28.2771944 -6 31 C-6.19609863 31.76328613 -6.39219727 32.52657227 -6.59423828 33.31298828 C-9.65939718 45.01031166 -14.11312777 55.95300099 -19 67 C-19.66 67 -20.32 67 -21 67 C-21.66 68.98 -22.32 70.96 -23 73 C-23.66 73 -24.32 73 -25 73 C-24.67 73.99 -24.34 74.98 -24 76 C-25.75 79.1875 -25.75 79.1875 -28 82 C-28.99 82 -29.98 82 -31 82 C-31 83.98 -31 85.96 -31 88 C-31.33 88 -31.66 88 -32 88 C-32.11214844 87.05640625 -32.11214844 87.05640625 -32.2265625 86.09375 C-33.71958452 76.37446939 -37.72708034 71.42036869 -45.5625 65.625 C-66.68236908 51.3289029 -91.48610696 44.76953882 -116 39 C-116 38.67 -116 38.34 -116 38 C-114.90051025 37.81207886 -114.90051025 37.81207886 -113.77880859 37.62036133 C-105.17453918 36.14068467 -96.58365322 34.59486539 -88 33 C-87.04125977 32.8237207 -86.08251953 32.64744141 -85.09472656 32.46582031 C-57.65129722 27.27550015 -25.08603746 18.35803204 -2.6171875 1.21484375 C-1 0 -1 0 0 0 Z " fill="#030303" transform="translate(852,541)"/>
<path d="M0 0 C0.91265625 0.51046875 0.91265625 0.51046875 1.84375 1.03125 C35.75969642 19.78477331 70.77497032 29.86573357 109 36 C111.00017355 36.33229035 113.00026954 36.66505344 115 37 C111.1649112 39.21022223 106.99236184 40.18639952 102.75 41.3125 C63.54760843 51.407281 63.54760843 51.407281 33.375 76.5625 C32.92125 77.366875 32.4675 78.17125 32 79 C27.70287948 78.52254216 25.80991593 76.11506517 23 73 C21.60915899 70.74977756 20.40177351 68.6138461 19.25 66.25 C18.91564941 65.56663574 18.58129883 64.88327148 18.23681641 64.17919922 C9.24540402 45.1788705 -0.49792305 21.29743812 0 0 Z " fill="#020202" transform="translate(397,542)"/>
<path d="M0 0 C1.5846187 0.41175131 3.16759702 0.8298139 4.75 1.25 C6.07257813 1.59804688 6.07257813 1.59804688 7.421875 1.953125 C10.54276536 2.86622393 13.5961103 3.87763617 16.671875 4.9296875 C46.9755833 15.09006797 80.29139929 19.00448703 112 22 C109.18519231 25.57976604 106.21914969 28.78085031 103 32 C99.03122289 36.70373583 97.72709554 40.92114281 97.8125 47.0625 C97.81894531 48.08472656 97.82539062 49.10695313 97.83203125 50.16015625 C97.97638419 52.60072799 98.30107793 54.66839596 99 57 C65.67063523 52.36513521 22.30164101 27.95929672 1.08984375 1.62890625 C0.73019531 1.09136719 0.37054688 0.55382812 0 0 Z " fill="#030303" transform="translate(464,674)"/>
<path d="M0 0 C-25.42513561 24.55441178 -63.01083284 51.87816376 -99 56 C-98.835 55.195625 -98.67 54.39125 -98.5 53.5625 C-97.03726645 43.14052349 -99.03164065 36.88853324 -104.9375 28.125 C-107.38094315 25.60751312 -110.01681499 23.8305908 -113 22 C-108.1288265 19.2404507 -103.04639942 19.05687895 -97.5625 18.5 C-96.52544922 18.36335937 -95.48839844 18.22671875 -94.41992188 18.0859375 C-91.50173862 17.7935569 -88.90884668 17.61528341 -86 18 C-83.15234375 20.78125 -83.15234375 20.78125 -81 24 C-74.67668275 28.05824838 -68.28016341 27.75516847 -61 27 C-55.55648365 25.35579796 -52.20785247 21.49099346 -49 17 C-48.75636719 16.15179687 -48.51273438 15.30359375 -48.26171875 14.4296875 C-47 12 -47 12 -44.2265625 10.84765625 C-43.03804687 10.58855469 -41.84953125 10.32945312 -40.625 10.0625 C-39.26998062 9.74581415 -37.91585504 9.42528705 -36.5625 9.1015625 C-35.46615234 8.84487793 -35.46615234 8.84487793 -34.34765625 8.58300781 C-30.06295999 7.51896302 -25.84846922 6.21986437 -21.625 4.9375 C-20.80596191 4.69201416 -19.98692383 4.44652832 -19.14306641 4.19360352 C-14.34795802 2.74751354 -9.62242284 1.19055601 -4.92333984 -0.54467773 C-3 -1 -3 -1 0 0 Z " fill="#040404" transform="translate(785,675)"/>
<path d="M0 0 C1.1859375 0.31324219 2.371875 0.62648438 3.59375 0.94921875 C9.37429472 2.59615323 14.28405598 4.22724478 19 8 C17.15189141 12.58136394 14.52271297 13.78301424 10.19140625 15.83203125 C3.9913229 18.1010948 -2.492076 19.01817253 -9 20 C-10.06476562 20.18433594 -11.12953125 20.36867188 -12.2265625 20.55859375 C-31.15961545 22.77332976 -53.08039753 22.42384756 -70.3203125 13.34375 C-72.28526387 11.77178891 -73.05148509 10.30772699 -74 8 C-66.62318032 2.85454338 -59.81737487 0.53566737 -51 -1 C-49.95457031 -1.20496094 -48.90914062 -1.40992188 -47.83203125 -1.62109375 C-31.99929294 -4.36392177 -15.5310793 -4.18555463 0 0 Z " fill="#040404" transform="translate(652,283)"/>
<path d="M0 0 C4.57512136 2.64784063 7.31604999 6.21193786 9.30859375 11.12890625 C9.87056941 14.12944257 9.92959869 17.01967364 9.87109375 20.06640625 C9.85574585 21.26064209 9.85574585 21.26064209 9.84008789 22.47900391 C9.62391501 28.43018823 8.82613929 32.92491786 4.30859375 37.12890625 C-1.28514131 41.99302369 -6.91833318 41.66647061 -14.15234375 41.4453125 C-20.00870017 40.92173097 -23.59751483 39.61063196 -27.56640625 35.12890625 C-31.14760656 30.07309404 -30.9364217 25.77754132 -31.00390625 19.81640625 C-31.03291016 18.97400391 -31.06191406 18.13160156 -31.09179688 17.26367188 C-31.14844846 11.69002768 -30.4138469 8.54420994 -26.69140625 4.12890625 C-19.74654014 -2.13841195 -8.85055068 -2.86454688 0 0 Z " fill="#FCFCFC" transform="translate(1926.69140625,347.87109375)"/>
<path d="M0 0 C4.57512136 2.64784063 7.31604999 6.21193786 9.30859375 11.12890625 C9.87056941 14.12944257 9.92959869 17.01967364 9.87109375 20.06640625 C9.85574585 21.26064209 9.85574585 21.26064209 9.84008789 22.47900391 C9.62391501 28.43018823 8.82613929 32.92491786 4.30859375 37.12890625 C-1.28514131 41.99302369 -6.91833318 41.66647061 -14.15234375 41.4453125 C-20.00870017 40.92173097 -23.59751483 39.61063196 -27.56640625 35.12890625 C-31.14760656 30.07309404 -30.9364217 25.77754132 -31.00390625 19.81640625 C-31.03291016 18.97400391 -31.06191406 18.13160156 -31.09179688 17.26367188 C-31.14844846 11.69002768 -30.4138469 8.54420994 -26.69140625 4.12890625 C-19.74654014 -2.13841195 -8.85055068 -2.86454688 0 0 Z " fill="#FCFCFC" transform="translate(1406.69140625,347.87109375)"/>
<path d="M0 0 C7.22949286 4.59362633 14.03886259 10.07038421 19.58203125 16.640625 C19.58203125 17.300625 19.58203125 17.960625 19.58203125 18.640625 C20.24203125 18.970625 20.90203125 19.300625 21.58203125 19.640625 C20.92203125 19.640625 20.26203125 19.640625 19.58203125 19.640625 C18.59203125 22.610625 18.59203125 22.610625 17.58203125 25.640625 C16.92203125 25.640625 16.26203125 25.640625 15.58203125 25.640625 C15.91203125 26.630625 16.24203125 27.620625 16.58203125 28.640625 C14.83203125 31.828125 14.83203125 31.828125 12.58203125 34.640625 C11.59203125 34.640625 10.60203125 34.640625 9.58203125 34.640625 C9.58203125 36.620625 9.58203125 38.600625 9.58203125 40.640625 C9.25203125 40.640625 8.92203125 40.640625 8.58203125 40.640625 C8.50726562 40.0115625 8.4325 39.3825 8.35546875 38.734375 C6.86244673 29.01509439 2.85495091 24.06099369 -4.98046875 18.265625 C-26.10033783 3.9695279 -50.90407571 -2.58983618 -75.41796875 -8.359375 C-75.41796875 -8.689375 -75.41796875 -9.019375 -75.41796875 -9.359375 C-74.61166016 -9.50036621 -73.80535156 -9.64135742 -72.97460938 -9.78662109 C-69.28853455 -10.43290159 -65.60325273 -11.08360065 -61.91796875 -11.734375 C-60.64953125 -11.95609375 -59.38109375 -12.1778125 -58.07421875 -12.40625 C-50.36525028 -13.75586257 -50.36525028 -13.75586257 -42.76171875 -15.5859375 C-30.6555112 -18.38620513 -10.47286926 -6.00051947 0 0 Z " fill="#616161" transform="translate(811.41796875,588.359375)"/>
<path d="M0 0 C0.68400879 0.14099121 1.36801758 0.28198242 2.07275391 0.42724609 C20.44858246 4.22723351 20.44858246 4.22723351 39 7 C35.1649112 9.21022223 30.99236184 10.18639952 26.75 11.3125 C-12.45239157 21.407281 -12.45239157 21.407281 -42.625 46.5625 C-43.07875 47.366875 -43.5325 48.17125 -44 49 C-48.30565461 48.52159393 -50.26970047 46.20810194 -53 43 C-54.48882777 40.39816507 -55.78354812 37.73871568 -57 35 C-56.34 35 -55.68 35 -55 35 C-54.74863281 34.42765625 -54.49726563 33.8553125 -54.23828125 33.265625 C-46.07123377 18.32276211 -25.58140868 10.37740341 -10.4375 4.625 C-9.74615967 4.36187012 -9.05481934 4.09874023 -8.3425293 3.82763672 C-5.42152946 2.75184062 -3.13846166 2 0 2 C0 1.34 0 0.68 0 0 Z " fill="#5A5A5A" transform="translate(473,572)"/>
<path d="M0 0 C0.20496094 0.90363281 0.40992188 1.80726563 0.62109375 2.73828125 C0.89050781 3.91777344 1.15992188 5.09726562 1.4375 6.3125 C1.70433594 7.48425781 1.97117187 8.65601563 2.24609375 9.86328125 C2.95313969 13.00236971 2.95313969 13.00236971 4 16 C3.14341797 16.2019397 3.14341797 16.2019397 2.26953125 16.40795898 C-21.68691081 22.14236567 -43.91215101 30.17794268 -65 43 C-64.12731596 35.58218569 -58.67090193 30.23002917 -53.9375 24.8125 C-53.37329346 24.16337646 -52.80908691 23.51425293 -52.2277832 22.84545898 C-47.06805521 16.96751651 -41.63030585 11.42720865 -36 6 C-35.34 6.33 -34.68 6.66 -34 7 C-34.33 7.33 -34.66 7.66 -35 8 C-27.1451717 6.33357917 -19.45413739 4.22969536 -11.73242188 2.03515625 C-10.79333984 1.77347656 -9.85425781 1.51179688 -8.88671875 1.2421875 C-8.04326904 1.0035498 -7.19981934 0.76491211 -6.33081055 0.51904297 C-4 0 -4 0 0 0 Z " fill="#323232" transform="translate(505,334)"/>
<path d="M0 0 C5.26395897 3.70869837 8.35710963 7.66637435 10 14 C9.59765625 16.27734375 9.59765625 16.27734375 9 18 C9 17.01 9 16.02 9 15 C7.83082031 15.21398437 6.66164063 15.42796875 5.45703125 15.6484375 C3.909125 15.89235 2.36093118 16.13444242 0.8125 16.375 C0.04357422 16.52066406 -0.72535156 16.66632812 -1.51757812 16.81640625 C-3.81234879 17.15126549 -5.70354548 17.3440318 -8 17 C-10.8125 14.1875 -10.8125 14.1875 -13 11 C-14.92119121 9.53114737 -14.92119121 9.53114737 -16.8125 8.625 C-17.864375 8.08875 -18.91625 7.5525 -20 7 C-19.67 6.34 -19.34 5.68 -19 5 C-17.03125 4.7265625 -17.03125 4.7265625 -14.5 4.625 C-9.04667863 4.20853598 -4.81693862 2.50155025 0 0 Z " fill="#5F5F5F" transform="translate(678,702)"/>
<path d="M0 0 C0.99 0.33 1.98 0.66 3 1 C3.25523437 1.81855469 3.51046875 2.63710938 3.7734375 3.48046875 C4.38058594 4.72763672 4.38058594 4.72763672 5 6 C8.08765687 7.04417909 8.08765687 7.04417909 11.625 7.3125 C12.81351563 7.45300781 14.00203125 7.59351563 15.2265625 7.73828125 C16.14179687 7.82464844 17.05703125 7.91101563 18 8 C16.35697047 9.68997323 14.68528688 11.35216394 13 13 C12.2884375 13.7321875 11.576875 14.464375 10.84375 15.21875 C6.97281622 17.64340083 3.97463545 17.01624405 -0.3125 16.25 C-1.05306641 16.1365625 -1.79363281 16.023125 -2.55664062 15.90625 C-4.37440695 15.62478941 -6.18777415 15.31516971 -8 15 C-8.33 15.66 -8.66 16.32 -9 17 C-7.96630118 9.970848 -4.5758751 5.19423661 0 0 Z " fill="#7F7F7F" transform="translate(570,701)"/>
<path d="M0 0 C2.07535607 2.64028108 3.72678097 5.22782269 5.1875 8.25 C5.53167969 8.95640625 5.87585938 9.6628125 6.23046875 10.390625 C6.48441406 10.92171875 6.73835937 11.4528125 7 12 C6.37351562 12.32613281 5.74703125 12.65226562 5.1015625 12.98828125 C4.28429687 13.42527344 3.46703125 13.86226563 2.625 14.3125 C1.81289063 14.74175781 1.00078125 15.17101562 0.1640625 15.61328125 C-2.26834043 16.96778724 -2.26834043 16.96778724 -4 20 C-5.00508801 18.21118264 -6.00392736 16.41885304 -7 14.625 C-7.8353125 13.12839844 -7.8353125 13.12839844 -8.6875 11.6015625 C-10 9 -10 9 -10 7 C-7.8125 5.2734375 -7.8125 5.2734375 -5 3.375 C-4.071875 2.74335938 -3.14375 2.11171875 -2.1875 1.4609375 C-1.1046875 0.73777344 -1.1046875 0.73777344 0 0 Z " fill="#565656" transform="translate(611,475)"/>
<path d="M0 0 C1.484375 2.28515625 1.484375 2.28515625 2.75 5.0625 C3.17796875 5.98160156 3.6059375 6.90070312 4.046875 7.84765625 C4.36140625 8.55792969 4.6759375 9.26820313 5 10 C1.97265625 10.68359375 1.97265625 10.68359375 -1.0546875 11.3671875 C-3.20719964 11.90474428 -3.20719964 11.90474428 -5 14 C-5.66 14.66 -6.32 15.32 -7 16 C-7.87191947 14.61518672 -8.72190384 13.21654754 -9.5625 11.8125 C-10.03816406 11.03519531 -10.51382813 10.25789062 -11.00390625 9.45703125 C-12.21450028 6.47089931 -12.01172 5.02499195 -11 2 C-7.85247601 -1.14752399 -4.10598582 -1.70949604 0 0 Z " fill="#888888" transform="translate(683,605)"/>
<path d="M0 0 C0.99 0.33 1.98 0.66 3 1 C3.25523437 1.81855469 3.51046875 2.63710938 3.7734375 3.48046875 C4.38058594 4.72763672 4.38058594 4.72763672 5 6 C8.08765687 7.04417909 8.08765687 7.04417909 11.625 7.3125 C12.81351563 7.45300781 14.00203125 7.59351563 15.2265625 7.73828125 C16.14179687 7.82464844 17.05703125 7.91101563 18 8 C15.75 10.5625 15.75 10.5625 13 13 C10.6875 12.8125 10.6875 12.8125 9 12 C9 11.34 9 10.68 9 10 C8.00419922 9.90912109 8.00419922 9.90912109 6.98828125 9.81640625 C-1.78207381 8.98418278 -1.78207381 8.98418278 -6 8 C-4.02 5.36 -2.04 2.72 0 0 Z " fill="#696969" transform="translate(570,701)"/>
<path d="M0 0 C2.25245881 2.68841859 3.88213958 4.64641875 5 8 C4.38511719 8.18175781 3.77023437 8.36351562 3.13671875 8.55078125 C2.32847656 8.80214844 1.52023437 9.05351563 0.6875 9.3125 C-0.51326172 9.67794922 -0.51326172 9.67794922 -1.73828125 10.05078125 C-4.09964573 11.04182023 -5.33879993 12.08074943 -7 14 C-8.5625 11.6875 -8.5625 11.6875 -10 9 C-8.82648048 5.47944145 -8.09677617 5.17776613 -5 3.375 C-2.3413953 1.8943999 -2.3413953 1.8943999 0 0 Z " fill="#3F3F3F" transform="translate(677,596)"/>
<path d="M0 0 C1.42944945 2.35438733 2.08661261 3.48032433 1.625 6.25 C1.41875 6.8275 1.2125 7.405 1 8 C1 7.01 1 6.02 1 5 C-4.61 5.66 -10.22 6.32 -16 7 C-16.33 5.68 -16.66 4.36 -17 3 C-11.17181824 0.50220782 -6.34576998 -0.12442686 0 0 Z " fill="#A1A1A1" transform="translate(686,712)"/>
<path d="M0 0 C1.6875 3.0625 1.6875 3.0625 3 6 C2.278125 5.9175 1.55625 5.835 0.8125 5.75 C-3.64611411 6.14632125 -5.9436818 8.9436818 -9 12 C-10.44231146 9.70927004 -10.99432597 8.2269613 -11.0625 5.5 C-9.14789181 0.99503955 -4.80015026 -1.60005009 0 0 Z " fill="#A6A6A6" transform="translate(619,488)"/>
<path d="M0 0 C3 4 3 4 3 6 C2.45730469 6.26554687 1.91460938 6.53109375 1.35546875 6.8046875 C0.64003906 7.15789062 -0.07539062 7.51109375 -0.8125 7.875 C-1.87404297 8.39707031 -1.87404297 8.39707031 -2.95703125 8.9296875 C-5.21246418 10.0656486 -5.21246418 10.0656486 -8 12 C-8.66 10.35 -9.32 8.7 -10 7 C-6.7 4.69 -3.4 2.38 0 0 Z " fill="#464646" transform="translate(611,475)"/>
<path d="M0 0 C0.66 0.33 1.32 0.66 2 1 C2 1.66 2 2.32 2 3 C-1.85756507 5.15305957 -4.55129785 6.39253254 -9 6 C-9 6.66 -9 7.32 -9 8 C-11.6875 9.1875 -11.6875 9.1875 -15 10 C-17.875 8.625 -17.875 8.625 -20 7 C-19.67 6.34 -19.34 5.68 -19 5 C-17.03125 4.7265625 -17.03125 4.7265625 -14.5 4.625 C-9.66370462 4.26366759 -6.09497095 2.95989567 -1.8125 0.7421875 C-1.214375 0.49726562 -0.61625 0.25234375 0 0 Z " fill="#484848" transform="translate(678,702)"/>
<path d="M0 0 C5.45769811 -0.11138159 10.61509359 0.08342019 16 1 C16 2.65 16 4.3 16 6 C15.67 5.34 15.34 4.68 15 4 C9.72 4 4.44 4 -1 4 C-0.67 2.68 -0.34 1.36 0 0 Z " fill="#D6D6D6" transform="translate(562,716)"/>
<path d="M0 0 C1.9375 0.8125 1.9375 0.8125 4 2 C4.33 2.99 4.66 3.98 5 5 C2.98177083 5.45572917 0.96354167 5.91145833 -1.0546875 6.3671875 C-3.20719964 6.90474428 -3.20719964 6.90474428 -5 9 C-5.66 9.66 -6.32 10.32 -7 11 C-7.66 9.02 -8.32 7.04 -9 5 C-8.071875 4.54625 -7.14375 4.0925 -6.1875 3.625 C-2.96078611 2.0578367 -2.96078611 2.0578367 0 0 Z " fill="#BDBDBD" transform="translate(683,610)"/>
<path d="M0 0 C0.33 0.99 0.66 1.98 1 3 C-0.13179687 3.20496094 -1.26359375 3.40992188 -2.4296875 3.62109375 C-3.91148761 3.89306972 -5.39325685 4.16521387 -6.875 4.4375 C-7.62136719 4.57220703 -8.36773438 4.70691406 -9.13671875 4.84570312 C-13.18533378 5.54536611 -13.18533378 5.54536611 -17 7 C-16.67 6.01 -16.34 5.02 -16 4 C-15.01 4 -14.02 4 -13 4 C-12.67 3.01 -12.34 2.02 -12 1 C-7.64334521 -0.67563646 -4.50462014 -1.36503641 0 0 Z " fill="#898989" transform="translate(685,709)"/>
<path d="M0 0 C5.51639835 0.56578445 10.73280235 2.34489244 16 4 C15.67 4.66 15.34 5.32 15 6 C9.72 5.34 4.44 4.68 -1 4 C-1.33 4.66 -1.66 5.32 -2 6 C-1.125 1.125 -1.125 1.125 0 0 Z " fill="#ACACAC" transform="translate(563,712)"/>
<path d="M0 0 C1.07765625 0.00902344 2.1553125 0.01804687 3.265625 0.02734375 C4.08546875 0.03894531 4.9053125 0.05054688 5.75 0.0625 C5.75 1.0525 5.75 2.0425 5.75 3.0625 C4.76257813 3.12308594 3.77515625 3.18367187 2.7578125 3.24609375 C1.47648438 3.32988281 0.19515625 3.41367187 -1.125 3.5 C-2.40117188 3.58121094 -3.67734375 3.66242187 -4.9921875 3.74609375 C-8.13300152 3.85456027 -8.13300152 3.85456027 -10.25 5.0625 C-10.25 3.7425 -10.25 2.4225 -10.25 1.0625 C-6.78777385 -0.00473961 -3.60960734 -0.03923486 0 0 Z " fill="#DFDFDF" transform="translate(681.25,716.9375)"/>
<path d="M0 0 C0.99 0.33 1.98 0.66 3 1 C4.1875 4.0625 4.1875 4.0625 5 7 C1.37 7.33 -2.26 7.66 -6 8 C-4.02 5.36 -2.04 2.72 0 0 Z " fill="#606060" transform="translate(570,701)"/>
<path d="M0 0 C-2.17302848 1.69013326 -4.27817391 3.15525986 -6.6875 4.5 C-9.2968972 5.85099122 -9.2968972 5.85099122 -10 9 C-10.66 8.34 -11.32 7.68 -12 7 C-11.67028521 3.70285207 -11.3773161 2.3773161 -9 0 C-5.64103108 -0.97233311 -3.32221382 -1.10740461 0 0 Z " fill="#727272" transform="translate(683,605)"/>
<path d="M0 0 C-4.52054795 3.76712329 -4.52054795 3.76712329 -7.1875 5.0625 C-9.34509852 5.99309803 -9.34509852 5.99309803 -11 9 C-12.125 4.25 -12.125 4.25 -11 2 C-6.94619026 -0.48756507 -4.60175748 -1.48880389 0 0 Z " fill="#7C7C7C" transform="translate(618,486)"/>
<path d="M0 0 C0.33 1.98 0.66 3.96 1 6 C0.67 5.01 0.34 4.02 0 3 C-7.92 3.495 -7.92 3.495 -16 4 C-15.67 3.34 -15.34 2.68 -15 2 C-9.81100071 0.38962091 -5.41000193 -0.22541675 0 0 Z " fill="#BABABA" transform="translate(687,714)"/>
<path d="M0 0 C0.33 0 0.66 0 1 0 C2.125 5.625 2.125 5.625 1 9 C1.99 9 2.98 9 4 9 C4.33 9.99 4.66 10.98 5 12 C3.125 15.1875 3.125 15.1875 1 18 C0.67 18 0.34 18 0 18 C0 12.06 0 6.12 0 0 Z " fill="#C7C7C7" transform="translate(395,487)"/>
<path d="M0 0 C0.86625 0.433125 1.7325 0.86625 2.625 1.3125 C2.625 1.6425 2.625 1.9725 2.625 2.3125 C1.5525 2.56 0.48 2.8075 -0.625 3.0625 C-4.37149437 4.31133146 -5.89573882 5.33738658 -8.375 8.3125 C-8.705 6.9925 -9.035 5.6725 -9.375 4.3125 C-4.20576923 -0.85673077 -4.20576923 -0.85673077 0 0 Z " fill="#DBDBDB" transform="translate(620.375,493.6875)"/>
<path d="M0 0 C0.33 0.66 0.66 1.32 1 2 C0.07767578 2.27263672 0.07767578 2.27263672 -0.86328125 2.55078125 C-1.67152344 2.80214844 -2.47976563 3.05351563 -3.3125 3.3125 C-4.51326172 3.67794922 -4.51326172 3.67794922 -5.73828125 4.05078125 C-8.09964573 5.04182023 -9.33879993 6.08074943 -11 8 C-11.33 6.35 -11.66 4.7 -12 3 C-4.71428571 -0.42857143 -4.71428571 -0.42857143 0 0 Z " fill="#5B5B5B" transform="translate(681,602)"/>
<path d="M0 0 C0.33 0.66 0.66 1.32 1 2 C0.278125 1.9175 -0.44375 1.835 -1.1875 1.75 C-5.64611411 2.14632125 -7.9436818 4.9436818 -11 8 C-11.33 6.35 -11.66 4.7 -12 3 C-4.71428571 -0.42857143 -4.71428571 -0.42857143 0 0 Z " fill="#BCBCBC" transform="translate(621,492)"/>
<path d="M0 0 C-2 2 -2 2 -4.5625 2.5 C-5.366875 2.665 -6.17125 2.83 -7 3 C-7.33 3.66 -7.66 4.32 -8 5 C-9.64363134 5.72159424 -11.31050386 6.39351421 -13 7 C-13.33 5.68 -13.66 4.36 -14 3 C-4.58997722 -0.44419134 -4.58997722 -0.44419134 0 0 Z " fill="#6C6C6C" transform="translate(680,708)"/>
<path d="M0 0 C0.66 0.99 1.32 1.98 2 3 C-1.90102388 5.78644563 -5.38486888 7.68139111 -10 9 C-10 8.34 -10 7.68 -10 7 C-7.8125 5.2734375 -7.8125 5.2734375 -5 3.375 C-4.071875 2.74335938 -3.14375 2.11171875 -2.1875 1.4609375 C-1.1046875 0.73777344 -1.1046875 0.73777344 0 0 Z " fill="#353535" transform="translate(611,475)"/>
<path d="M0 0 C1.64630328 0.14042877 3.29204179 0.28749329 4.9375 0.4375 C6.31228516 0.55931641 6.31228516 0.55931641 7.71484375 0.68359375 C10 1 10 1 11 2 C13.32817964 2.36760731 15.6618385 2.70241581 18 3 C17.01 4.485 17.01 4.485 16 6 C10.72 4.35 5.44 2.7 0 1 C0 0.67 0 0.34 0 0 Z " fill="#949494" transform="translate(563,711)"/>
<path d="M0 0 C-3.5087188 3.09592835 -6.49197399 4.74194623 -11 6 C-4.94863014 -1.48458904 -4.94863014 -1.48458904 0 0 Z " fill="#9F9F9F" transform="translate(685,609)"/>
<path d="M0 0 C0.99 0.495 0.99 0.495 2 1 C1.01 1.495 1.01 1.495 0 2 C0 1.34 0 0.68 0 0 Z M-3 2 C-2.01 2.33 -1.02 2.66 0 3 C-2.97 5.97 -5.94 8.94 -9 12 C-9 8.41087588 -8.33563446 7.89142971 -6 5.3125 C-5.443125 4.68988281 -4.88625 4.06726563 -4.3125 3.42578125 C-3.879375 2.95527344 -3.44625 2.48476563 -3 2 Z " fill="#2F2F2F" transform="translate(408,490)"/>
<path d="M0 0 C-3.16240582 2.10827055 -4.50657469 2.33817465 -8.1875 2.625 C-9.53908203 2.73714844 -9.53908203 2.73714844 -10.91796875 2.8515625 C-11.94857422 2.92503906 -11.94857422 2.92503906 -13 3 C-12 1 -12 1 -8.75 -0.1875 C-5.22790825 -0.95061988 -3.38319499 -1.0252106 0 0 Z " fill="#7C7C7C" transform="translate(685,709)"/>
<path d="M0 0 C-0.598125 0.28875 -1.19625 0.5775 -1.8125 0.875 C-4.19327792 2.04742026 -4.19327792 2.04742026 -7 4 C-7.99 4 -8.98 4 -10 4 C-10.33 4.99 -10.66 5.98 -11 7 C-11.33 6.01 -11.66 5.02 -12 4 C-5.30232558 -1.76744186 -5.30232558 -1.76744186 0 0 Z " fill="#666666" transform="translate(617,484)"/>
<path d="M0 0 C3.96 0.33 7.92 0.66 12 1 C10.515 2.485 10.515 2.485 9 4 C6.73828125 3.85546875 6.73828125 3.85546875 4.3125 3.1875 C3.10013672 2.86845703 3.10013672 2.86845703 1.86328125 2.54296875 C0.94095703 2.27419922 0.94095703 2.27419922 0 2 C0 1.34 0 0.68 0 0 Z " fill="#525252" transform="translate(576,708)"/>
<path d="M0 0 C-0.928125 0.598125 -1.85625 1.19625 -2.8125 1.8125 C-5.20254718 3.45272845 -7.08470253 4.8718917 -9 7 C-9.3125 4.6875 -9.3125 4.6875 -9 2 C-5.85636787 -0.61969344 -3.87356388 -1.57811862 0 0 Z " fill="#DFDFDF" transform="translate(686,616)"/>
<path d="M0 0 C-2.12121657 2.33333823 -4.01594365 3.9148886 -7 5 C-9.12890625 4.546875 -9.12890625 4.546875 -11 4 C-9.73760288 3.13341385 -8.46472499 2.28207941 -7.1875 1.4375 C-6.47980469 0.96183594 -5.77210938 0.48617188 -5.04296875 -0.00390625 C-3 -1 -3 -1 0 0 Z " fill="#969696" transform="translate(619,488)"/>
<path d="M0 0 C0.99 0.33 1.98 0.66 3 1 C3.33 2.65 3.66 4.3 4 6 C-0.75 4.125 -0.75 4.125 -3 3 C-2.01 2.01 -1.02 1.02 0 0 Z " fill="#494949" transform="translate(570,701)"/>
<path d="M0 0 C2.95409701 1.37154504 5.44008376 2.98863724 8 5 C7.67 5.66 7.34 6.32 7 7 C5.1875 6.875 5.1875 6.875 3 6 C1.25 2.9375 1.25 2.9375 0 0 Z " fill="#E5E5E5" transform="translate(421,617)"/>
<path d="M0 0 C0.99 0.99 1.98 1.98 3 3 C-2.445 4.485 -2.445 4.485 -8 6 C-3.5 1.5 -3.5 1.5 0 0 Z " fill="#4D4D4D" transform="translate(678,599)"/>
<path d="M0 0 C-3 2 -3 2 -7 2 C-7.66 3.32 -8.32 4.64 -9 6 C-9.33 4.68 -9.66 3.36 -10 2 C-6.49223216 0.39644899 -3.85645121 -0.22036864 0 0 Z " fill="#9A9A9A" transform="translate(679,713)"/>
</svg>
