<?xml version="1.0" encoding="UTF-8" standalone="no"?>
<!-- Created with Inkscape (http://www.inkscape.org/) -->

<svg
   width="200mm"
   height="20mm"
   viewBox="0 0 200 20"
   version="1.1"
   id="svg5"
   xml:space="preserve"
   inkscape:version="1.2.1 (9c6d41e410, 2022-07-14)"
   sodipodi:docname="IBM Quantum Platform logo.svg"
   xmlns:inkscape="http://www.inkscape.org/namespaces/inkscape"
   xmlns:sodipodi="http://sodipodi.sourceforge.net/DTD/sodipodi-0.dtd"
   xmlns="http://www.w3.org/2000/svg"
   xmlns:svg="http://www.w3.org/2000/svg"><sodipodi:namedview
     id="namedview7"
     pagecolor="#ffffff"
     bordercolor="#000000"
     borderopacity="0.25"
     inkscape:showpageshadow="2"
     inkscape:pageopacity="0.0"
     inkscape:pagecheckerboard="0"
     inkscape:deskcolor="#d1d1d1"
     inkscape:document-units="mm"
     showgrid="false"
     inkscape:zoom="0.78793242"
     inkscape:cx="381.37788"
     inkscape:cy="342.66898"
     inkscape:window-width="1366"
     inkscape:window-height="695"
     inkscape:window-x="0"
     inkscape:window-y="0"
     inkscape:window-maximized="1"
     inkscape:current-layer="layer1" /><defs
     id="defs2"><rect
       x="-81.65683"
       y="672.79266"
       width="833.69934"
       height="203.36081"
       id="rect356" /></defs><g
     inkscape:label="Layer 1"
     inkscape:groupmode="layer"
     id="layer1"><path
       id="path1844"
       style="font-weight:600;font-size:33.3333px;font-family:'IBM Plex Sans';-inkscape-font-specification:'IBM Plex Sans Semi-Bold';text-align:center;text-anchor:middle;white-space:pre;fill:#161616;stroke-width:2.12451"
       d="M 186.1337,15.396255 V 8.9319938 c 0,-1.0492741 0.89938,-1.5739084 1.81749,-1.5739084 1.06801,0 1.57391,0.6932673 1.57391,2.0985427 v 5.9396269 h 2.39833 V 8.9319938 c 0,-1.0492741 0.88064,-1.5739084 1.81749,-1.5739084 1.06801,0 1.57391,0.6932673 1.57391,2.0985427 v 5.9396269 h 2.39833 V 9.2130489 c 0,-2.4358088 -1.08675,-3.822349 -2.99792,-3.822349 -1.55517,0 -2.64192,0.8806411 -2.99792,1.9673855 h -0.0375 c -0.46842,-1.3115884 -1.49896,-1.9673855 -2.82928,-1.9673855 -1.46149,0 -2.24844,0.8244301 -2.62318,1.8549635 h -0.0937 V 5.615544 h -2.39833 v 9.780711 z m -7.36363,0 V 9.400417 c 0,-1.0680092 0.84317,-1.5176973 2.45454,-1.5176973 h 0.74949 V 5.615544 h -0.52464 c -1.55517,0 -2.34212,0.9930631 -2.5857,2.0235965 h -0.0937 V 5.615544 h -2.39833 v 9.780711 z m -9.06871,0.224844 c 2.81055,0 4.55309,-1.986121 4.55309,-5.133938 0,-3.1290756 -1.74254,-5.0964611 -4.55309,-5.0964611 -2.79181,0 -4.53435,1.9673855 -4.53435,5.0964611 0,3.147817 1.74254,5.133938 4.53435,5.133938 z m 0,-1.92991 c -1.23664,0 -2.02359,-0.805695 -2.02359,-2.285916 V 9.5877852 c 0,-1.4614807 0.78695,-2.2671757 2.02359,-2.2671757 1.25538,0 2.04233,0.805695 2.04233,2.2671757 v 1.8174878 c 0,1.480221 -0.78695,2.285916 -2.04233,2.285916 z m -9.87432,1.705066 h 2.39833 V 7.5079833 h 2.00486 V 5.615544 h -2.00486 V 3.4420552 h 2.00486 V 1.5308807 h -1.70507 c -1.76128,0 -2.69812,0.9555872 -2.69812,2.6793935 V 5.615544 h -1.44275 v 1.8924393 h 1.44275 z m -4.38443,0 h 1.7238 V 13.48508 h -1.85496 V 7.5267185 h 2.00485 V 5.615544 h -2.00485 V 2.9361561 h -2.15475 v 1.6675896 c 0,0.6745322 -0.22485,1.0117983 -0.93685,1.0117983 h -0.74949 v 1.9111745 h 1.44276 v 5.3775165 c 0,1.592644 0.88063,2.49202 2.52949,2.49202 z m -11.03602,0.224844 c 1.46149,0 2.52949,-0.655797 2.84802,-1.911175 h 0.11242 c 0.1499,1.011799 0.78696,1.686331 1.81749,1.686331 h 1.33033 V 13.48508 h -0.97433 V 8.8757828 c 0,-2.2297054 -1.40527,-3.4850829 -4.04718,-3.4850829 -1.96739,0 -3.11035,0.749484 -3.82235,1.8736986 l 1.42401,1.2741182 c 0.46843,-0.6745322 1.10548,-1.2366423 2.2297,-1.2366423 1.27412,0 1.81749,0.6370563 1.81749,1.7238007 v 0.712008 h -1.66759 c -2.66065,0 -4.17835,0.9930579 -4.17835,2.9979189 0,1.742536 1.12422,2.885497 3.11034,2.885497 z m 0.80569,-1.742542 c -0.93685,0 -1.48022,-0.393477 -1.48022,-1.180431 v -0.318525 c 0,-0.768219 0.61832,-1.199172 1.8737,-1.199172 h 1.53643 v 1.292853 c 0,0.918111 -0.8619,1.405275 -1.92991,1.405275 z m -5.04022,1.517698 V 13.48508 H 138.8792 V 1.5308807 h -2.39833 V 13.035392 c 0,1.498957 0.76822,2.360863 2.39833,2.360863 z m -13.07839,0 v -4.98404 h 3.41013 c 2.41707,0 3.87855,-1.611384 3.87855,-4.0471871 0,-2.4170736 -1.46148,-4.047193 -3.87855,-4.047193 h -5.88342 V 15.396255 Z m 0,-10.9236664 h 3.18528 c 0.95559,0 1.53644,0.5058991 1.53644,1.4614863 v 0.8619004 c 0,0.9555872 -0.58085,1.4802215 -1.53644,1.4802215 h -3.18528 z M 105.39628,15.396255 V 8.688409 c 0,-1.2366367 1.12422,-1.8362227 2.30465,-1.8362227 1.42401,0 2.0798,0.8806411 2.0798,2.6044418 v 5.9396269 h 1.49896 V 8.688409 c 0,-1.2366367 1.08675,-1.8362227 2.26718,-1.8362227 1.46148,0 2.11728,0.8993762 2.11728,2.6044418 v 5.9396269 h 1.49895 V 9.1943081 c 0,-2.3421218 -1.18042,-3.6911862 -3.14781,-3.6911862 -1.64885,0 -2.58571,0.918117 -2.94171,1.9673855 h -0.0375 c -0.52463,-1.3865346 -1.68632,-1.9673855 -2.96044,-1.9673855 -1.49896,0 -2.17349,0.805695 -2.60444,1.7987525 h -0.075 V 5.727966 h -1.49896 v 9.668289 z m -6.183187,0 h 1.498967 V 5.727966 h -1.498967 v 6.689105 c 0,1.274118 -1.161691,1.854964 -2.342122,1.854964 -1.442745,0 -2.210965,-0.880642 -2.210965,-2.604442 V 5.727966 H 93.16105 v 6.201947 c 0,2.342122 1.274112,3.691186 3.260233,3.691186 1.611384,0 2.342122,-0.880641 2.716864,-1.798753 h 0.07495 z m -8.525322,0 V 14.084666 H 88.720385 V 7.0395545 h 2.117284 V 5.727966 H 88.720385 V 3.0485781 h -1.349064 v 1.7987524 c 0,0.6557914 -0.206103,0.8806355 -0.84316,0.8806355 h -0.899376 v 1.3115885 h 1.592644 v 6.7640565 c 0,0.936847 0.56211,1.592644 1.592643,1.592644 z m -13.153344,0 V 8.688409 c 0,-1.2366367 1.161696,-1.8362227 2.360863,-1.8362227 1.442746,0 2.192229,0.8806411 2.192229,2.6044418 v 5.9396269 h 1.498957 V 9.1943081 c 0,-2.3421218 -1.255377,-3.6911862 -3.241498,-3.6911862 -1.442751,0 -2.267176,0.7120081 -2.735599,1.7987525 h -0.07495 V 5.727966 h -1.498956 v 9.668289 z m -3.634952,0 v -1.311589 h -1.10548 V 8.7633608 c 0,-2.0423317 -1.38654,-3.2602389 -3.709927,-3.2602389 -1.742536,0 -2.904232,0.861906 -3.428866,1.8924394 l 0.899376,0.8431652 c 0.524634,-0.8806411 1.292854,-1.4427512 2.454544,-1.4427512 1.536433,0 2.285911,0.7494783 2.285911,2.1172778 v 0.9555872 h -1.911169 c -2.810551,0 -4.122139,1.0117987 -4.122139,2.8292857 0,1.798753 1.199166,2.922973 3.241498,2.922973 1.349064,0 2.379598,-0.618321 2.79181,-1.798753 h 0.09369 c 0.112422,0.899377 0.56211,1.573909 1.667589,1.573909 z m -5.152667,-1.049274 c -1.161696,0 -1.911175,-0.54337 -1.911175,-1.498957 v -0.393477 c 0,-0.936852 0.768214,-1.461486 2.473279,-1.461486 h 1.986121 v 1.592643 c 0,0.993063 -1.068004,1.761277 -2.548225,1.761277 z m -7.401091,1.049274 h 1.498962 V 5.727966 h -1.498962 v 6.689105 c 0,1.274118 -1.16169,1.854964 -2.342122,1.854964 -1.442745,0 -2.210964,-0.880642 -2.210964,-2.604442 V 5.727966 h -1.498957 v 6.201947 c 0,2.342122 1.274113,3.691186 3.260233,3.691186 1.611384,0 2.342122,-0.880641 2.716864,-1.798753 h 0.07495 z m -11.298369,1.761276 h -2.004861 v -1.592643 c 2.866762,-0.393477 4.665514,-2.716864 4.665514,-6.707846 0,-4.3844534 -2.173494,-6.7640512 -5.54615,-6.7640512 -3.372655,0 -5.546149,2.3795978 -5.546149,6.7640512 0,4.103404 1.911174,6.464261 4.927828,6.745316 v 1.330329 c 0,0.880636 0.543375,1.536433 1.573909,1.536433 h 1.929909 z m -2.885497,-2.941708 c -2.267175,0 -3.859819,-1.68633 -3.859819,-4.2720309 V 7.7702976 c 0,-2.585701 1.592644,-4.2720314 3.859819,-4.2720314 2.267176,0 3.85982,1.6863304 3.85982,4.2720314 v 2.1734945 c 0,2.5857009 -1.592644,4.2720309 -3.85982,4.2720309 z m -24.526652,1.180432 h 1.536432 V 4.3789073 h 0.09369 l 1.105479,2.1922239 3.129082,5.6960478 3.129076,-5.6960478 1.10548,-2.1922239 h 0.09369 V 15.396255 H 34.36456 V 2.3178349 h -2.023596 l -3.766133,7.0451063 h -0.09369 l -3.7474,-7.0451063 h -2.098542 z m -12.23525,0 h 5.939627 c 1.92991,0 3.372655,-1.63012 3.372655,-3.784873 0,-2.1734891 -1.630113,-2.979184 -2.566965,-3.035395 V 8.4635706 c 0.8619,-0.1311628 2.117277,-0.8244301 2.117277,-2.7730749 0,-2.0423316 -1.330323,-3.3726608 -3.485077,-3.3726608 h -5.377517 z m 1.573909,-6.0707841 h 3.878554 c 1.349065,0 2.173495,0.7120021 2.173495,2.0235911 v 0.637062 c 0,1.311588 -0.82443,2.023591 -2.173495,2.023591 h -3.878554 z m 0,-5.6210958 h 3.61624 c 1.236637,0 1.98612,0.6557914 1.98612,1.8174876 V 6.158919 c 0,1.1616905 -0.749483,1.8174876 -1.98612,1.8174876 h -3.61624 z M 7.533199,15.396255 V 14.084666 H 5.6969763 V 3.6294234 H 7.533199 V 2.3178349 H 2.2868396 V 3.6294234 H 4.1230679 V 14.084666 H 2.2868396 v 1.311589 z" /></g></svg>
