<?xml version="1.0" encoding="UTF-8"?>
<svg version="1.1" xmlns="http://www.w3.org/2000/svg" width="3895" height="1500">
<path d="M0 0 C0.5986084 0.29745117 1.1972168 0.59490234 1.81396484 0.90136719 C30.07512478 15.15133881 48.75645762 41.91514452 58.91381836 71.2878418 C75.73191038 122.49681304 74.28653105 185.41324409 50.06640625 234.09375 C34.60747222 263.97956886 9.23224649 282.91597948 -22.234375 292.96875 C-26 294 -26 294 -30 294 C-30 301.59 -30 309.18 -30 317 C-14.82 317 0.36 317 16 317 C16 335.15 16 353.3 16 372 C5.1409375 372.061875 5.1409375 372.061875 -5.9375 372.125 C-8.18425537 372.14320801 -10.43101074 372.16141602 -12.74584961 372.18017578 C-35.19342894 372.28655491 -58.80555641 371.54994056 -76.25 355.5 C-91.98576121 338.81358867 -92.22695644 316.51042671 -92 295 C-93.31226563 294.88527344 -94.62453125 294.77054688 -95.9765625 294.65234375 C-122.077781 291.71200734 -147.4000335 274.58190252 -163.65185547 254.6262207 C-188.6779754 222.97050767 -196.21736346 182.30657404 -196.25 142.875 C-196.25067474 142.13455444 -196.25134949 141.39410889 -196.25204468 140.63122559 C-196.18583716 94.46911691 -185.25570182 50.37342574 -151.92578125 16.91796875 C-113.03691245 -19.52686763 -46.30930129 -23.55546351 0 0 Z M-106 61 C-106.62519531 61.57105469 -107.25039062 62.14210938 -107.89453125 62.73046875 C-123.73700251 78.93055787 -126.13030115 103.35200974 -126.203125 124.7734375 C-126.20882507 126.09179596 -126.21452515 127.41015442 -126.22039795 128.76846313 C-126.23084857 131.5538165 -126.23672833 134.33914156 -126.24023438 137.12451172 C-126.24459809 139.94040026 -126.25841876 142.75597878 -126.28125 145.57177734 C-126.50634959 173.90999129 -126.00873578 201.77208594 -105.48046875 223.67578125 C-93.76235869 234.65574265 -77.50839849 239.71899701 -61.5625 239.25 C-43.3446243 237.47264627 -27.67093574 231.88329976 -15.65625 217.375 C-0.87111754 196.17367798 -0.64165162 170.99810976 -0.68432617 146.16625977 C-0.6874792 142.33776156 -0.66397997 138.5100435 -0.63867188 134.68164062 C-0.57028187 108.65976795 -1.66663731 81.63948706 -20.125 61.3125 C-32.88353533 49.49167439 -48.7845661 44.82486187 -65.85205078 44.91357422 C-81.06444021 45.52566627 -94.79713658 50.61828887 -106 61 Z " fill="#000000" transform="translate(1673,608)"/>
<path d="M0 0 C11.69458148 8.84197796 18.82664602 19.83922339 25 33 C25.70962891 31.54980469 25.70962891 31.54980469 26.43359375 30.0703125 C35.85857027 11.29771244 49.55689059 -0.25436177 69.3984375 -7.1875 C88.11896995 -12.74576118 109.13874411 -12.06947696 126.75 -3.375 C143.83830486 6.81713435 153.64057136 23.13214541 158.52294922 42.0234375 C161.47345474 54.54405534 162.14615025 66.73165166 162.11352539 79.52563477 C162.11324291 81.08359271 162.11340245 82.6415508 162.1139679 84.19950867 C162.11425348 88.40546496 162.10839539 92.61139242 162.10139394 96.81734204 C162.09512061 101.22156453 162.09455346 105.62578777 162.09336853 110.03001404 C162.09026692 118.35955616 162.08206935 126.68908507 162.07201904 135.01862139 C162.06082151 144.50595128 162.05533829 153.99328182 162.05032361 163.48061669 C162.03988571 182.98708679 162.02155483 202.4935388 162 222 C140.88 222 119.76 222 98 222 C97.95101562 212.16316406 97.90203125 202.32632813 97.8515625 192.19140625 C97.81614873 185.93423634 97.78025098 179.6770753 97.7421875 173.41992188 C97.68195114 163.50319503 97.62360812 153.58648469 97.578125 143.66967773 C97.54497902 136.44476179 97.50502685 129.21991944 97.45720994 121.99508518 C97.43216723 118.17660875 97.41032312 114.35817973 97.39665604 110.53964424 C99.10510881 77.99932413 99.10510881 77.99932413 86.7734375 49.43359375 C80.03561801 43.98694232 71.47214259 42.27693469 63 43 C53.03598584 44.40501623 43.55084074 47.30687996 37.0546875 55.43359375 C32.84032911 62.12159728 30.76095533 68.66750108 30.7215271 76.61228943 C30.71036362 77.90086349 30.69920013 79.18943756 30.68769836 80.51705933 C30.68533394 81.92730683 30.68315819 83.33755467 30.68115234 84.74780273 C30.67184512 86.2463586 30.66167527 87.74490932 30.65071106 89.24345398 C30.62348646 93.29661832 30.60828409 97.34974805 30.59528303 101.40297961 C30.5796194 105.64443081 30.55283952 109.88581168 30.5272522 114.12721252 C30.48052155 122.15221107 30.44374983 130.17722293 30.41057932 138.20228773 C30.37231751 147.34137655 30.322918 156.48039462 30.27259517 165.61942375 C30.16936029 184.41290337 30.08154263 203.20641288 30 222 C8.88 222 -12.24 222 -34 222 C-34.04898438 211.99558594 -34.09796875 201.99117187 -34.1484375 191.68359375 C-34.18384431 185.32616348 -34.21973752 178.96874205 -34.2578125 172.61132812 C-34.31808853 162.53200336 -34.37644149 152.45269508 -34.421875 142.37329102 C-34.45498238 135.03046741 -34.4949146 127.68771679 -34.54279006 120.3449741 C-34.56787029 116.46284513 -34.58970426 112.5807634 -34.60334396 108.69857597 C-34.61633439 105.03203857 -34.63856434 101.36566479 -34.66738319 97.69921875 C-34.68053942 95.73762703 -34.68434731 93.77597928 -34.68769836 91.81434631 C-34.89631827 69.00653852 -34.89631827 69.00653852 -45.2265625 49.43359375 C-51.93255363 44.01267141 -60.55576642 42.22096033 -69 43 C-79.7833771 44.97380792 -89.12055951 48.07767998 -96 57 C-99.74243553 63.61163611 -101.11413866 69.75840051 -101.15821838 77.33381653 C-101.1680072 78.61122711 -101.17779602 79.8886377 -101.18788147 81.20475769 C-101.19378489 82.61282311 -101.19959539 84.02088893 -101.20532227 85.42895508 C-101.21490641 86.91736113 -101.22491681 88.40576449 -101.23532104 89.89416504 C-101.26231803 93.928847 -101.28335573 97.96354059 -101.30332303 101.99826264 C-101.32521475 106.21701815 -101.35258784 110.435738 -101.37937927 114.65446472 C-101.42926311 122.64057931 -101.4742179 130.62671373 -101.51740164 138.61286706 C-101.56681086 147.70594114 -101.62171532 156.79897945 -101.67708123 165.89201891 C-101.79083512 184.59464752 -101.89696309 203.29730907 -102 222 C-123.12 222 -144.24 222 -166 222 C-166 147.09 -166 72.18 -166 -5 C-144.88 -5 -123.76 -5 -102 -5 C-102 7.54 -102 20.08 -102 33 C-101.34 33 -100.68 33 -100 33 C-99.85304688 32.46632813 -99.70609375 31.93265625 -99.5546875 31.3828125 C-95.15341936 16.76250798 -85.24161883 4.58876401 -72 -3 C-49.73905633 -13.95564767 -21.13148902 -13.68164771 0 0 Z " fill="#000000" transform="translate(3136,679)"/>
<path d="M0 0 C16.5 0 33 0 50 0 C57.99710534 14.89656876 65.97043402 29.80418144 73.875 44.75 C74.25055023 45.46003174 74.62610046 46.17006348 75.01303101 46.90161133 C76.54015115 49.78890115 78.06724785 52.67620338 79.59428406 55.5635376 C83.61832316 63.17109235 87.65058664 70.77426983 91.6875 78.375 C92.03972626 79.03820251 92.39195251 79.70140503 92.75485229 80.38470459 C97.62858233 89.55919609 102.52522414 98.72107959 107.4375 107.875 C113.26338685 118.73197547 119.04719314 129.61076099 124.8125 140.5 C125.20944061 141.24940857 125.60638123 141.99881714 126.01535034 142.77093506 C127.14233509 144.8990612 128.26859206 147.02757052 129.39453125 149.15625 C129.73028168 149.79035797 130.0660321 150.42446594 130.41195679 151.07778931 C131.68638334 153.48930293 132.94962479 155.89171621 134.1003418 158.36523438 C134.9015205 160.1874199 134.9015205 160.1874199 137 161 C137.3403125 159.80117188 137.3403125 159.80117188 137.6875 158.578125 C139.35825334 154.02333316 141.6328748 149.97566381 144 145.75 C149.45149799 135.89380039 154.74724128 125.96306977 160 116 C165.52512366 105.52709642 171.10173556 95.08844021 176.8046875 84.7109375 C180.28952168 78.35111512 183.66207595 71.93800151 187 65.5 C191.27292875 57.25900683 195.65318251 49.08685816 200.12207031 40.95068359 C207.55880527 27.3780367 214.75355485 13.67474328 222 0 C237.84 0 253.68 0 270 0 C270 99.33 270 198.66 270 301 C258.12 301 246.24 301 234 301 C233.67 217.84 233.34 134.68 233 49 C221.22129501 71.81325877 221.22129501 71.81325877 209.6875 94.75 C205.77942929 102.61949393 201.53232834 110.25028642 197.16674805 117.87402344 C192.8051034 125.50991507 188.62637235 133.23538479 184.5 141 C179.94539758 149.56550616 175.31078806 158.0750083 170.5 166.5 C165.62968005 175.03077683 160.93278098 183.64473615 156.3125 192.3125 C147.53253671 208.77092559 147.53253671 208.77092559 143.3125 216.4375 C142.92682861 217.14624268 142.54115723 217.85498535 142.14379883 218.58520508 C140.05435809 222.35758602 137.8136847 225.70360641 135 229 C130.68112873 221.95240487 126.65312265 214.78484256 122.75 207.5 C118.93344856 200.41613057 115.10781191 193.33955283 111.1875 186.3125 C106.83706757 178.50941524 102.50559592 170.69601718 98.1875 162.875 C97.84429718 162.25343018 97.50109436 161.63186035 97.14749146 160.99145508 C91.88845056 151.46273295 86.68269811 141.90632344 81.51464844 132.32788086 C78.36895236 126.50402587 75.17431984 120.71109385 71.9375 114.9375 C64.42955007 101.48770332 57.36824958 87.80718672 50.52734375 74.0078125 C50.14277512 73.23326721 49.75820648 72.45872192 49.36198425 71.66070557 C47.43650124 67.7811758 45.51812088 63.89839681 43.61108398 60.00976562 C42.90498935 58.58193026 42.19869971 57.15419129 41.4921875 55.7265625 C41.16874863 55.06101349 40.84530975 54.39546448 40.5120697 53.70974731 C38.93770953 50.23100942 38.93770953 50.23100942 36 48 C36 131.49 36 214.98 36 301 C24.12 301 12.24 301 0 301 C0 201.67 0 102.34 0 0 Z " fill="#000000" transform="translate(1062,600)"/>
<path d="M0 0 C150.28283846 0 150.28283846 0 164.5625 7.875 C165.2232251 8.22377197 165.8839502 8.57254395 166.56469727 8.93188477 C171.42569317 11.55202588 175.8863699 14.31843608 180 18 C180.72316406 18.62003906 181.44632813 19.24007812 182.19140625 19.87890625 C188.8763291 26.02089121 192.94983167 32.99171261 197 41 C197.4228125 41.83273437 197.845625 42.66546875 198.28125 43.5234375 C206.71089154 62.23468729 206.13807764 86.02135703 199.96875 105.20703125 C193.83521311 121.3490084 183.13831248 131.22716376 167.87890625 138.3984375 C163.55116551 140.29596112 159.73417868 141 155 141 C155 141.66 155 142.32 155 143 C155.57105469 143.01417969 156.14210938 143.02835938 156.73046875 143.04296875 C172.58975804 143.97586812 187.17254099 152.68038376 198 164 C212.94400969 182.07743107 215.46856288 203.36548321 214 226 C211.76115827 248.83240703 200.54251171 269.49370306 183.5859375 284.70410156 C138.54604112 321.50702182 26.24248265 301 0 301 C0 201.67 0 102.34 0 0 Z M37 32 C37 64.01 37 96.02 37 129 C51.9325 129.061875 66.865 129.12375 82.25 129.1875 C89.29069824 129.22846802 89.29069824 129.22846802 96.47363281 129.27026367 C100.72591835 129.28030447 100.72591835 129.28030447 104.97821045 129.28633118 C106.85437156 129.29090129 108.73052454 129.30137545 110.60662842 129.31672668 C126.41915061 129.43950801 140.88169478 129.13798499 153.2578125 117.9609375 C158.12758619 112.87552808 160.94812742 107.71205775 163 101 C163.1750708 100.43853271 163.3501416 99.87706543 163.53051758 99.29858398 C164.57783722 94.17091136 164.22623975 88.79684532 164.24023438 83.57568359 C164.2498761 81.40292122 164.28089226 79.23113185 164.3125 77.05859375 C164.41473699 63.72480275 161.9839059 53.32551727 152.8125 43.3125 C142.58935581 33.55708136 128.61988394 31.82462972 115.10546875 31.88647461 C113.8104821 31.88629381 113.8104821 31.88629381 112.48933411 31.88610935 C109.72202895 31.88684987 106.95479295 31.8944385 104.1875 31.90234375 C102.46809929 31.90381584 100.74869813 31.9048349 99.02929688 31.90539551 C92.68619104 31.91061745 86.34309482 31.92457871 80 31.9375 C58.715 31.9684375 58.715 31.9684375 37 32 Z M37 161 C37 196.31 37 231.62 37 268 C59.5225 268.0928125 59.5225 268.0928125 82.5 268.1875 C87.20958984 268.21481201 91.91917969 268.24212402 96.77148438 268.27026367 C101.05962809 268.28030801 101.05962809 268.28030801 105.34777832 268.28633118 C107.23126361 268.29088394 109.11474116 268.30132038 110.99816895 268.31672668 C129.64371004 268.46138234 148.18611648 267.95004524 163 255 C175.22285847 240.97293581 175.77619015 223.69794815 175 206 C173.98658218 193.33869133 171.20049425 182.20049425 162 173 C149.95903661 163.39001976 136.46302966 160.82311524 121.46289062 160.88647461 C120.53018089 160.88635407 119.59747116 160.88623354 118.6364975 160.88610935 C115.64305667 160.88685062 112.64967956 160.89444275 109.65625 160.90234375 C107.79785187 160.90381561 105.93945332 160.90483482 104.08105469 160.90539551 C97.22069677 160.91062013 90.36034775 160.9245814 83.5 160.9375 C60.4825 160.9684375 60.4825 160.9684375 37 161 Z " fill="#000000" transform="translate(782,600)"/>
<path d="M0 0 C14.7694875 12.59875591 22.4213099 30.69730717 24.3125 49.8125 C24.44954565 53.47436469 24.43903263 57.13257844 24.42602539 60.79663086 C24.42617142 61.88029938 24.42631744 62.9639679 24.4264679 64.08047485 C24.42577376 67.6461185 24.41800477 71.21170928 24.41015625 74.77734375 C24.4082903 77.25598624 24.40686723 79.7346291 24.40586853 82.21327209 C24.40205732 88.72503687 24.39223897 95.23677922 24.38116455 101.74853516 C24.37037729 108.39810767 24.36636447 115.04768674 24.36132812 121.69726562 C24.35061544 134.73568851 24.33302995 147.77408887 24.3125 160.8125 C31.2425 160.8125 38.1725 160.8125 45.3125 160.8125 C45.3125 177.6425 45.3125 194.4725 45.3125 211.8125 C36.5571875 211.874375 36.5571875 211.874375 27.625 211.9375 C25.81169189 211.95570801 23.99838379 211.97391602 22.13012695 211.99267578 C5.38935682 212.09179157 -8.93372833 211.03596621 -21.65234375 199.03515625 C-28.09214323 192.00205471 -33.6875 181.5231161 -33.6875 171.8125 C-34.3475 171.8125 -35.0075 171.8125 -35.6875 171.8125 C-35.89375 173.070625 -36.1 174.32875 -36.3125 175.625 C-39.13967774 188.06458204 -47.47893947 198.57650869 -57.9375 205.625 C-79.12997951 218.20988979 -104.10944898 219.30757459 -127.6875 213.8125 C-143.48165613 209.45047759 -156.09150436 200.02118508 -164.40234375 185.8984375 C-174.66774311 166.47198492 -174.93910305 144.7998747 -168.87890625 124.04296875 C-162.98639293 107.4129867 -149.55457786 96.50398718 -134.14453125 89.11328125 C-104.32739869 76.4258197 -71.40226992 78.52412341 -39.6875 78.8125 C-40.23162117 57.47409313 -40.23162117 57.47409313 -49.98828125 39.2421875 C-60.46576835 30.42664663 -74.7830618 30.81234978 -87.6875 31.8125 C-100.84929382 34.12666155 -112.20998917 41.16905359 -120.5 51.5625 C-121.29019531 52.54734375 -122.08039062 53.5321875 -122.89453125 54.546875 C-123.48621094 55.29453125 -124.07789062 56.0421875 -124.6875 56.8125 C-128.21660489 55.58001873 -130.46837432 54.37021197 -133 51.625 C-136.03316132 48.45456198 -139.19866497 45.56012171 -142.51953125 42.6953125 C-145.79378228 39.85172873 -149.00067866 36.93456693 -152.21484375 34.0234375 C-155.15568973 31.3938659 -158.16036006 28.84516787 -161.19140625 26.3203125 C-162.6875 24.8125 -162.6875 24.8125 -163.6875 21.8125 C-153.88070758 4.3208527 -135.21907609 -9.28578622 -116.10205078 -14.95410156 C-78.27682122 -25.1329171 -32.21847612 -24.65336433 0 0 Z M-102.94140625 126.62890625 C-108.76658544 133.91363817 -108.4131218 142.86661975 -107.6875 151.8125 C-106.71127241 158.31111309 -104.11700423 162.01964187 -99.2109375 166.3046875 C-92.47952904 170.32686036 -85.67379839 171.34567727 -77.9375 171.25 C-77.06569092 171.24170166 -76.19388184 171.23340332 -75.2956543 171.22485352 C-64.90011779 170.95505156 -55.61582579 168.76580849 -47.5625 161.8671875 C-38.97823513 152.46026391 -39.54018017 141.3345955 -39.625 129.375 C-39.62951172 128.16650391 -39.63402344 126.95800781 -39.63867188 125.71289062 C-39.65039855 122.74604211 -39.66681104 119.7792973 -39.6875 116.8125 C-45.57327487 116.71263043 -51.45854215 116.64056453 -57.3449707 116.59277344 C-59.34180305 116.57282281 -61.33857824 116.54565228 -63.33520508 116.51074219 C-84.87397709 115.96857591 -84.87397709 115.96857591 -102.94140625 126.62890625 Z " fill="#000000" transform="translate(2205.6875,689.1875)"/>
<path d="M0 0 C21.45 0 42.9 0 65 0 C65.03738281 10.37695312 65.07476563 20.75390625 65.11328125 31.4453125 C65.14357155 38.0351694 65.17460611 44.62500901 65.20898438 51.21484375 C65.26336484 61.66518552 65.31478224 72.11547933 65.34643555 82.56591797 C65.36950781 90.1786712 65.40300767 97.79129736 65.44870156 105.40394962 C65.47251017 109.42970998 65.49131947 113.45534546 65.49761391 117.48117447 C65.50372133 121.28155616 65.52392117 125.08161883 65.55427551 128.88188171 C65.56706503 130.91880565 65.56550139 132.95580446 65.5632782 134.99276733 C65.68191361 146.79856347 66.49857553 160.70067343 74.71875 169.9296875 C81.35364097 176.27496021 87.68451804 178.11588645 96.75 178.4375 C107.5896205 178.16884561 118.509618 174.95505072 127 168 C132.54238354 161.58189681 135.23654086 154.98220447 135.2784729 146.47000122 C135.28963638 145.17438766 135.30079987 143.87877411 135.31230164 142.54389954 C135.31466623 141.12057524 135.31684194 139.69725063 135.31884766 138.27392578 C135.32815211 136.76566534 135.33832155 135.25741003 135.34928894 133.74916077 C135.3765448 129.66494643 135.39172523 125.58076651 135.40471697 121.49648523 C135.42036685 117.22433185 135.44715115 112.95224854 135.4727478 108.68014526 C135.51950272 100.59490614 135.55626273 92.50965378 135.58942068 84.42434871 C135.62766529 75.21756994 135.67706933 66.0108616 135.72740483 56.80414224 C135.83067583 37.86947372 135.91847886 18.93477551 136 0 C157.45 0 178.9 0 201 0 C201 74.91 201 149.82 201 227 C179.55 227 158.1 227 136 227 C135.67 214.79 135.34 202.58 135 190 C132.36 195.28 129.72 200.56 127 206 C115.40326363 220.53675405 101.21818703 229.21067034 82.625 231.6875 C81.08511817 231.81537005 79.54298357 231.91760767 78 232 C76.58847656 232.07927734 76.58847656 232.07927734 75.1484375 232.16015625 C55.00725237 232.73490471 36.8369128 227.20167039 21.875 213.375 C1.27199782 191.65046342 -0.19238417 160.05224432 -0.11352539 131.80297852 C-0.11324235 130.35250857 -0.11340352 128.90203847 -0.1139679 127.4515686 C-0.11425132 123.56620417 -0.10842911 119.68087149 -0.10139394 115.79551435 C-0.09508373 111.71564224 -0.0945506 107.63576917 -0.09336853 103.55589294 C-0.09027759 95.85341269 -0.08209478 88.15094686 -0.07201904 80.44847292 C-0.05868216 70.02361991 -0.0533399 59.59876287 -0.04751682 49.17390347 C-0.03815305 32.78259153 -0.01821931 16.39131003 0 0 Z " fill="#000000" transform="translate(1789,674)"/>
<path d="M0 0 C21.45 0 42.9 0 65 0 C65.03738281 10.68890625 65.07476563 21.3778125 65.11328125 32.390625 C65.14356564 39.17188785 65.1745958 45.95313378 65.20898438 52.734375 C65.2634004 63.49217169 65.31481643 74.24992142 65.34643555 85.0078125 C65.36948121 92.84394742 65.40295205 100.67995834 65.44870156 108.51599479 C65.47254559 112.66129857 65.49133193 116.80648021 65.49761391 120.95185089 C65.50370498 124.8622071 65.52384795 128.77225115 65.55427551 132.6824913 C65.56299183 134.10937957 65.56679178 135.53630873 65.56500816 136.9632225 C65.55296443 151.05773581 67.18288445 162.97161106 77.3125 173.375 C86.62092188 179.00334811 96.9744835 179.37253468 107.5390625 177.30859375 C118.06959492 174.36152437 126.43733915 169.62299173 132 160 C135.48509813 151.927848 135.4431291 143.74682347 135.43237305 135.09521484 C135.44140605 133.61591787 135.45173701 132.13662834 135.46325684 130.65734863 C135.49067256 126.67044447 135.50009019 122.68368291 135.50611091 118.69669676 C135.51553504 114.51930891 135.5417415 110.34202591 135.56611633 106.16470337 C135.6096744 98.26729664 135.63828687 90.36991038 135.66143972 82.47242033 C135.68854893 73.47592646 135.73245676 64.47953863 135.77772844 55.48312068 C135.87042151 36.98878935 135.93995518 18.49446813 136 0 C157.12 0 178.24 0 200 0 C200 74.91 200 149.82 200 227 C178.88 227 157.76 227 136 227 C136 214.46 136 201.92 136 189 C135.34 189 134.68 189 134 189 C133.8453125 190.04607422 133.8453125 190.04607422 133.6875 191.11328125 C130.40447078 204.89827327 120.03681475 215.7252805 108.36499023 223.01293945 C91.24348334 233.13259199 70.1126961 233.96875657 51 230 C34.26943373 225.60984038 21.62793267 216.16604156 12.375 201.5625 C-1.06186698 177.29637721 -0.44190878 150.16577669 -0.30418181 123.26925373 C-0.28518805 118.92249813 -0.28364697 114.57573357 -0.28010559 110.22894287 C-0.2708508 102.03075374 -0.24632784 93.83268732 -0.21605712 85.63455176 C-0.18230625 76.28724573 -0.16597557 66.93993325 -0.15097082 57.59258127 C-0.11977089 38.39497087 -0.06484303 19.19752828 0 0 Z " fill="#000000" transform="translate(2711,674)"/>
<path d="M0 0 C1.03898437 0.40089844 2.07796875 0.80179688 3.1484375 1.21484375 C19.40835477 8.42521838 29.85604155 22.50301036 36.42578125 38.62890625 C42.16126091 53.75284032 43.15434359 69.51859538 43.11352539 85.52563477 C43.11324291 87.08359271 43.11340245 88.6415508 43.1139679 90.19950867 C43.11425348 94.40546496 43.10839539 98.61139242 43.10139394 102.81734204 C43.09512061 107.22156453 43.09455346 111.62578777 43.09336853 116.03001404 C43.09026692 124.35955616 43.08206935 132.68908507 43.07201904 141.01862139 C43.06082151 150.50595128 43.05533829 159.99328182 43.05032361 169.48061669 C43.03988571 188.98708679 43.02155483 208.4935388 43 228 C21.88 228 0.76 228 -21 228 C-21.04898438 218.09097656 -21.09796875 208.18195313 -21.1484375 197.97265625 C-21.18385088 191.66991348 -21.21974839 185.36717952 -21.2578125 179.06445312 C-21.31805104 169.07529775 -21.37639461 159.08615877 -21.421875 149.09692383 C-21.45501885 141.81927053 -21.49496994 134.54169032 -21.54279006 127.26411813 C-21.56783484 123.417696 -21.58967839 119.57132095 -21.60334396 115.72484016 C-20.69974696 85.44425663 -20.69974696 85.44425663 -29.625 57.125 C-34.66992319 52.61112136 -41.20497793 49.43372481 -48 49 C-48.61746094 48.94972656 -49.23492188 48.89945313 -49.87109375 48.84765625 C-60.55390367 48.3576191 -71.15747265 50.99768486 -80 57 C-80.9075 57.5775 -81.815 58.155 -82.75 58.75 C-92.1529209 68.1529209 -92.30078674 80.18333849 -92.31884766 92.67773438 C-92.32815784 94.15673361 -92.33832811 95.63572765 -92.34928894 97.11471558 C-92.37648026 101.1099712 -92.39170594 105.10519178 -92.40471697 109.10051537 C-92.4203953 113.28323743 -92.44717043 117.46588843 -92.4727478 121.64855957 C-92.51945258 129.56019341 -92.55623676 137.47184074 -92.58942068 145.38354158 C-92.62770086 154.39448239 -92.67709551 163.40535168 -92.72740483 172.41623211 C-92.83060119 190.9441084 -92.91843443 209.47201499 -93 228 C-114.12 228 -135.24 228 -157 228 C-157 153.09 -157 78.18 -157 1 C-135.88 1 -114.76 1 -93 1 C-93 13.54 -93 26.08 -93 39 C-92.34 39 -91.68 39 -91 39 C-90.649375 37.741875 -90.29875 36.48375 -89.9375 35.1875 C-85.10940223 20.77120808 -74.4815559 9.74694521 -61.37109375 2.55859375 C-42.96416323 -6.41712928 -19.11963356 -7.41990645 0 0 Z " fill="#000000" transform="translate(2450,673)"/>
<path d="M0 0 C19.47 0 38.94 0 59 0 C59 20.13 59 40.26 59 61 C73.52 61 88.04 61 103 61 C103 77.5 103 94 103 111 C88.48 111 73.96 111 59 111 C59 152.58 59 194.16 59 237 C72.53 237 86.06 237 100 237 C100 253.83 100 270.66 100 288 C29.45236223 288.47031759 29.45236223 288.47031759 9.75 270.3125 C-3.13286254 256.55846028 -6.17195938 239.13831675 -6.11352539 221.00610352 C-6.11367142 219.81514572 -6.11381744 218.62418793 -6.1139679 217.3971405 C-6.11339278 214.14970726 -6.10839571 210.90231774 -6.10139394 207.65489316 C-6.09512028 204.25430064 -6.09455343 200.85370716 -6.09336853 197.45310974 C-6.09026701 191.02179499 -6.08206958 184.59049735 -6.07201904 178.15919012 C-6.0608212 170.83389747 -6.05533822 163.50860399 -6.05032361 156.18330491 C-6.03988593 141.12219219 -6.02155518 126.06110168 -6 111 C-16.56 111 -27.12 111 -38 111 C-38 94.5 -38 78 -38 61 C-30.74 60.67 -23.48 60.34 -16 60 C-8.18933341 57.30185649 -8.18933341 57.30185649 -3 52 C-0.58313956 46.53621095 -0.65518994 41.21935583 -0.5859375 35.3515625 C-0.56829346 34.45332764 -0.55064941 33.55509277 -0.5324707 32.62963867 C-0.4697111 29.29493657 -0.42331259 25.9599427 -0.375 22.625 C-0.25125 15.15875 -0.1275 7.6925 0 0 Z " fill="#000000" transform="translate(2567,613)"/>
<path d="M0 0 C39.93 0 79.86 0 121 0 C121 10.23 121 20.46 121 31 C107.14 31 93.28 31 79 31 C79 109.54 79 188.08 79 269 C92.86 269 106.72 269 121 269 C121 279.56 121 290.12 121 301 C81.07 301 41.14 301 0 301 C0 290.44 0 279.88 0 269 C13.86 269 27.72 269 42 269 C42 190.46 42 111.92 42 31 C28.14 31 14.28 31 0 31 C0 20.77 0 10.54 0 0 Z " fill="#000000" transform="translate(596,600)"/>
</svg>
